<svg width="340" height="30" viewBox="0 0 340 30" fill="none" xmlns="http://www.w3.org/2000/svg">
<path fill-rule="evenodd" clip-rule="evenodd" d="M338.466 15.7788C338.942 15.3653 339 15.1052 339 15C339 14.8948 338.942 14.6347 338.466 14.2212C337.997 13.8137 337.24 13.3652 336.15 12.8952C333.979 11.9589 330.717 11.0332 326.436 10.1402C317.891 8.35765 305.489 6.74559 290.12 5.38953C259.394 2.67837 216.924 1 170 1C123.076 1 80.6062 2.67837 49.8797 5.38953C34.511 6.74559 22.1087 8.35765 13.5637 10.1402C9.28309 11.0332 6.02119 11.9589 3.84975 12.8952C2.7599 13.3652 2.00262 13.8137 1.53356 14.2212C1.05762 14.6347 1 14.8948 1 15C1 15.1052 1.05762 15.3653 1.53356 15.7788C2.00262 16.1863 2.7599 16.6348 3.84975 17.1048C6.02119 18.0411 9.28309 18.9668 13.5637 19.8598C22.1087 21.6424 34.511 23.2544 49.8797 24.6105C80.6062 27.3216 123.076 29 170 29C216.924 29 259.394 27.3216 290.12 24.6105C305.489 23.2544 317.891 21.6424 326.436 19.8598C330.717 18.9668 333.979 18.0411 336.15 17.1048C337.24 16.6348 337.997 16.1863 338.466 15.7788ZM170 30C263.888 30 340 23.2843 340 15C340 6.71573 263.888 0 170 0C76.1116 0 0 6.71573 0 15C0 23.2843 76.1116 30 170 30Z" fill="white"/>
</svg>
