<svg width="370" height="32" viewBox="0 0 370 32" fill="none" xmlns="http://www.w3.org/2000/svg">
<path fill-rule="evenodd" clip-rule="evenodd" d="M368.664 17.9326L368.081 17.1204C368.884 16.5438 369 16.1592 369 16C369 15.8408 368.884 15.4562 368.081 14.8796L368.664 14.0674C369.546 14.701 370 15.3459 370 16C370 16.6541 369.546 17.2991 368.664 17.9326ZM364.161 11.9964L363.843 12.9444C362.526 12.5024 360.981 12.0645 359.213 11.6326L359.451 10.6612C361.237 11.0979 362.811 11.5432 364.161 11.9964ZM354.636 9.60592L354.442 10.5868C352.942 10.2895 351.337 9.99661 349.633 9.70848L349.8 8.72247C351.512 9.01196 353.126 9.30655 354.636 9.60592ZM344.927 7.95185L344.78 8.94103C343.222 8.70997 341.598 8.4825 339.911 8.25884L340.042 7.26751C341.735 7.49179 343.363 7.71997 344.927 7.95185ZM335.152 6.65131L335.033 7.64419C333.452 7.45451 331.823 7.26792 330.148 7.08454L330.257 6.09048C331.935 6.27421 333.567 6.46119 335.152 6.65131ZM325.353 5.57585L325.253 6.57082C323.653 6.40985 322.016 6.25165 320.344 6.09631L320.437 5.1006C322.111 5.25616 323.75 5.41461 325.353 5.57585ZM315.506 4.65965L315.42 5.65597C313.819 5.51811 312.188 5.38277 310.529 5.25001L310.609 4.2532C312.27 4.38611 313.902 4.52162 315.506 4.65965ZM305.707 3.87462L305.633 4.87185C304.017 4.75145 302.377 4.63342 300.714 4.51783L300.783 3.52023C302.448 3.63594 304.09 3.75409 305.707 3.87462ZM295.841 3.18853L295.777 4.18643C294.167 4.08211 292.537 3.97999 290.887 3.88015L290.948 2.88197C292.599 2.9819 294.23 3.08411 295.841 3.18853ZM286.025 2.5941L285.969 3.59251C284.339 3.50045 282.692 3.41056 281.027 3.32288L281.079 2.32426C282.745 2.41201 284.394 2.50197 286.025 2.5941ZM276.182 2.07519L276.133 3.07398C274.506 2.99412 272.863 2.91632 271.206 2.84064L271.251 1.84168C272.91 1.91742 274.553 1.99526 276.182 2.07519ZM266.32 1.62462L266.277 2.62372C264.654 2.55492 263.018 2.48811 261.369 2.42334L261.408 1.42411C263.058 1.48892 264.696 1.55577 266.32 1.62462ZM256.462 1.2374L256.426 2.23674C254.802 2.17787 253.166 2.12095 251.519 2.06601L251.553 1.06656C253.201 1.12154 254.837 1.17849 256.462 1.2374ZM246.62 0.909017L246.59 1.90855C244.958 1.85871 243.316 1.8108 241.663 1.76484L241.691 0.765227C243.345 0.81121 244.988 0.859151 246.62 0.909017ZM236.77 0.634912L236.745 1.6346C235.107 1.5934 233.461 1.55411 231.805 1.51675L231.827 0.517004C233.484 0.554381 235.132 0.593693 236.77 0.634912ZM226.914 0.412403L226.894 1.4122C225.255 1.37936 223.607 1.34839 221.951 1.31935L221.968 0.319502C223.625 0.348563 225.274 0.379539 226.914 0.412403ZM217.056 0.23933L217.041 1.23922C215.402 1.21446 213.756 1.19157 212.103 1.17057L212.116 0.170651C213.77 0.19166 215.417 0.214562 217.056 0.23933ZM207.196 0.113978L207.186 1.11392C205.548 1.09699 203.904 1.0819 202.253 1.06869L202.261 0.0687232C203.912 0.0819389 205.558 0.097032 207.196 0.113978ZM197.336 0.0350069L197.33 1.03499C195.693 1.02567 194.049 1.01819 192.401 1.01257L192.404 0.0125795C194.054 0.018195 195.698 0.0256787 197.336 0.0350069ZM187.476 0.00140356L187.475 1.0014C186.651 1.00047 185.826 1 185 1C184.174 1 183.349 1.00047 182.525 1.0014L182.524 0.00140353C183.348 0.000468811 184.173 0 185 0C185.827 0 186.652 0.000468822 187.476 0.00140356ZM177.596 0.0125794L177.599 1.01257C175.951 1.01819 174.307 1.02567 172.67 1.03499L172.664 0.0350069C174.302 0.0256786 175.946 0.0181949 177.596 0.0125794ZM167.739 0.0687231L167.747 1.06869C166.096 1.0819 164.452 1.09699 162.814 1.11392L162.804 0.113978C164.442 0.0970319 166.088 0.0819388 167.739 0.0687231ZM157.884 0.170651L157.897 1.17057C156.244 1.19157 154.598 1.21446 152.959 1.23922L152.944 0.23933C154.583 0.214562 156.23 0.19166 157.884 0.170651ZM148.032 0.319502L148.049 1.31935C146.393 1.34839 144.745 1.37936 143.106 1.4122L143.086 0.412403C144.726 0.379539 146.375 0.348563 148.032 0.319502ZM138.173 0.517004L138.195 1.51675C136.539 1.55411 134.893 1.5934 133.255 1.6346L133.23 0.634912C134.868 0.593693 136.516 0.55438 138.173 0.517004ZM128.309 0.765226L128.337 1.76484C126.684 1.8108 125.042 1.85871 123.41 1.90855L123.38 0.909017C125.012 0.85915 126.655 0.811209 128.309 0.765226ZM118.447 1.06656L118.481 2.066C116.834 2.12095 115.198 2.17787 113.574 2.23674L113.538 1.2374C115.163 1.17849 116.799 1.12154 118.447 1.06656ZM108.592 1.4241L108.632 2.42333C106.982 2.48811 105.346 2.55491 103.723 2.62372L103.68 1.62461C105.304 1.55577 106.942 1.48892 108.592 1.4241ZM98.7487 1.84168L98.7944 2.84064C97.1369 2.91632 95.4944 2.99412 93.8673 3.07398L93.8183 2.07518C95.4466 1.99526 97.0902 1.91741 98.7487 1.84168ZM88.9209 2.32426L88.9734 3.32288C87.3085 3.41056 85.6608 3.50045 84.031 3.59251L83.9746 2.5941C85.6057 2.50197 87.2546 2.41201 88.9209 2.32426ZM79.0522 2.88197L79.1126 3.88015C77.4629 3.97999 75.833 4.08211 74.2234 4.18643L74.1588 3.18853C75.7698 3.08411 77.4011 2.9819 79.0522 2.88197ZM69.2169 3.52023L69.2862 4.51783C67.6226 4.63342 65.9827 4.75145 64.3673 4.87185L64.2929 3.87462C65.9101 3.75409 67.5517 3.63594 69.2169 3.52023ZM59.3911 4.2532L59.4708 5.25001C57.8119 5.38277 56.1812 5.51811 54.5798 5.65597L54.494 4.65965C56.0975 4.52162 57.7302 4.38611 59.3911 4.2532ZM49.5631 5.1006L49.6556 6.09631C47.9837 6.25165 46.3472 6.40985 44.7474 6.57082L44.6473 5.57584C46.2498 5.4146 47.8887 5.25616 49.5631 5.1006ZM39.7433 6.09048L39.8521 7.08454C38.1774 7.26791 36.5485 7.45451 34.9668 7.64419L34.8477 6.6513C36.433 6.46119 38.0654 6.2742 39.7433 6.09048ZM29.9577 7.26751L30.0891 8.25884C28.4016 8.4825 26.7777 8.70996 25.2198 8.94103L25.0731 7.95185C26.6365 7.71996 28.2655 7.49179 29.9577 7.26751ZM20.2005 8.72246L20.3672 9.70847C18.6627 9.9966 17.0585 10.2895 15.5582 10.5868L15.3638 9.60591C16.8745 9.30654 18.488 9.01195 20.2005 8.72246ZM10.5492 10.6612C8.76259 11.0979 7.18898 11.5432 5.83914 11.9964L6.15738 12.9444C7.47393 12.5024 9.01942 12.0645 10.7866 11.6326L10.5492 10.6612ZM1.3358 14.0674C0.45385 14.7009 0 15.3459 0 16C0 16.6541 0.453835 17.299 1.33576 17.9326L1.91919 17.1204C1.11648 16.5438 1 16.1592 1 16C1 15.8408 1.11649 15.4562 1.91922 14.8796L1.3358 14.0674ZM5.83909 20.0036C7.18893 20.4568 8.76254 20.9021 10.5491 21.3388L10.7865 20.3674C9.01937 19.9355 7.47388 19.4976 6.15734 19.0556L5.83909 20.0036ZM15.3637 22.3941L15.5581 21.4132C17.0585 21.7105 18.6627 22.0034 20.3672 22.2915L20.2005 23.2775C18.488 22.988 16.8744 22.6935 15.3637 22.3941ZM25.073 24.0481L25.2197 23.059C26.7777 23.29 28.4015 23.5175 30.0891 23.7412L29.9577 24.7325C28.2655 24.5082 26.6365 24.28 25.073 24.0481ZM34.8477 25.3487L34.9668 24.3558C36.5485 24.5455 38.1774 24.7321 39.8521 24.9155L39.7433 25.9095C38.0653 25.7258 36.433 25.5388 34.8477 25.3487ZM44.6472 26.4242C46.2497 26.5854 47.8887 26.7438 49.5631 26.8994L49.6556 25.9037C47.9836 25.7484 46.3472 25.5902 44.7474 25.4292L44.6472 26.4242ZM54.494 27.3403L54.5797 26.344C56.1812 26.4819 57.8119 26.6172 59.4708 26.75L59.391 27.7468C57.7302 27.6139 56.0975 27.4784 54.494 27.3403ZM64.2929 28.1254L64.3672 27.1281C65.9827 27.2485 67.6226 27.3666 69.2862 27.4822L69.2169 28.4798C67.5517 28.3641 65.9101 28.2459 64.2929 28.1254ZM74.1587 28.8115C75.7697 28.9159 77.4011 29.0181 79.0521 29.118L79.1126 28.1199C77.4629 28.02 75.833 27.9179 74.2234 27.8136L74.1587 28.8115ZM83.9746 29.4059L84.031 28.4075C85.6608 28.4995 87.3084 28.5894 88.9734 28.6771L88.9208 29.6757C87.2546 29.588 85.6057 29.498 83.9746 29.4059ZM93.8183 29.9248L93.8673 28.926C95.4944 29.0059 97.1369 29.0837 98.7943 29.1594L98.7487 30.1583C97.0902 30.0826 95.4465 30.0047 93.8183 29.9248ZM103.68 30.3754L103.723 29.3763C105.346 29.4451 106.982 29.5119 108.631 29.5767L108.592 30.5759C106.942 30.5111 105.304 30.4442 103.68 30.3754ZM113.538 30.7626L113.574 29.7633C115.198 29.8221 116.834 29.8791 118.481 29.934L118.447 30.9334C116.799 30.8785 115.163 30.8215 113.538 30.7626ZM123.38 31.091L123.41 30.0914C125.042 30.1413 126.684 30.1892 128.337 30.2352L128.309 31.2348C126.655 31.1888 125.012 31.1408 123.38 31.091ZM133.23 31.3651L133.255 30.3654C134.893 30.4066 136.539 30.4459 138.195 30.4832L138.173 31.483C136.516 31.4456 134.868 31.4063 133.23 31.3651ZM143.086 31.5876L143.106 30.5878C144.745 30.6206 146.393 30.6516 148.049 30.6807L148.032 31.6805C146.375 31.6514 144.726 31.6205 143.086 31.5876ZM152.944 31.7607C154.583 31.7854 156.23 31.8083 157.884 31.8293L157.897 30.8294C156.244 30.8084 154.598 30.7855 152.959 30.7608L152.944 31.7607ZM162.804 31.886L162.814 30.8861C164.452 30.903 166.096 30.9181 167.747 30.9313L167.739 31.9313C166.088 31.9181 164.442 31.903 162.804 31.886ZM172.664 31.965L172.67 30.965C174.307 30.9743 175.951 30.9818 177.599 30.9874L177.596 31.9874C175.946 31.9818 174.302 31.9743 172.664 31.965ZM182.524 31.9986L182.525 30.9986C183.349 30.9995 184.174 31 185 31C185.826 31 186.651 30.9995 187.475 30.9986L187.476 31.9986C186.652 31.9995 185.827 32 185 32C184.173 32 183.348 31.9995 182.524 31.9986ZM192.404 31.9874L192.401 30.9874C194.049 30.9818 195.693 30.9743 197.33 30.965L197.336 31.965C195.698 31.9743 194.054 31.9818 192.404 31.9874ZM202.261 31.9313L202.253 30.9313C203.904 30.9181 205.548 30.903 207.186 30.8861L207.196 31.886C205.558 31.903 203.912 31.9181 202.261 31.9313ZM212.116 31.8293L212.103 30.8294C213.756 30.8084 215.402 30.7855 217.041 30.7608L217.056 31.7607C215.417 31.7854 213.77 31.8083 212.116 31.8293ZM221.968 31.6805L221.951 30.6807C223.607 30.6516 225.255 30.6206 226.894 30.5878L226.914 31.5876C225.274 31.6205 223.625 31.6514 221.968 31.6805ZM231.827 31.483L231.805 30.4832C233.461 30.4459 235.107 30.4066 236.745 30.3654L236.77 31.3651C235.132 31.4063 233.484 31.4456 231.827 31.483ZM241.691 31.2348L241.663 30.2352C243.316 30.1892 244.958 30.1413 246.59 30.0914L246.62 31.091C244.988 31.1408 243.345 31.1888 241.691 31.2348ZM251.553 30.9334L251.519 29.934C253.166 29.8791 254.802 29.8221 256.426 29.7633L256.462 30.7626C254.837 30.8215 253.201 30.8785 251.553 30.9334ZM261.408 30.5759C263.058 30.5111 264.696 30.4442 266.32 30.3754L266.277 29.3763C264.654 29.4451 263.018 29.5119 261.368 29.5767L261.408 30.5759ZM271.251 30.1583L271.206 29.1594C272.863 29.0837 274.506 29.0059 276.133 28.926L276.182 29.9248C274.553 30.0047 272.91 30.0826 271.251 30.1583ZM281.079 29.6757L281.027 28.6771C282.692 28.5894 284.339 28.4995 285.969 28.4075L286.025 29.4059C284.394 29.498 282.745 29.588 281.079 29.6757ZM290.948 29.118L290.887 28.1199C292.537 28.02 294.167 27.9179 295.777 27.8136L295.841 28.8115C294.23 28.9159 292.599 29.0181 290.948 29.118ZM300.783 28.4798L300.714 27.4822C302.377 27.3666 304.017 27.2486 305.633 27.1281L305.707 28.1254C304.09 28.2459 302.448 28.3641 300.783 28.4798ZM310.609 27.7468L310.529 26.75C312.188 26.6172 313.819 26.4819 315.42 26.344L315.506 27.3403C313.902 27.4784 312.27 27.6139 310.609 27.7468ZM320.437 26.8994L320.344 25.9037C322.016 25.7484 323.653 25.5902 325.253 25.4292L325.353 26.4242C323.75 26.5854 322.111 26.7438 320.437 26.8994ZM330.257 25.9095L330.148 24.9155C331.823 24.7321 333.452 24.5455 335.033 24.3558L335.152 25.3487C333.567 25.5388 331.935 25.7258 330.257 25.9095ZM340.042 24.7325L339.911 23.7412C341.598 23.5175 343.222 23.29 344.78 23.059L344.927 24.0482C343.363 24.28 341.735 24.5082 340.042 24.7325ZM349.799 23.2775L349.633 22.2915C351.337 22.0034 352.941 21.7105 354.442 21.4132L354.636 22.3941C353.126 22.6935 351.512 22.9881 349.799 23.2775ZM359.451 21.3388L359.213 20.3674C360.981 19.9355 362.526 19.4976 363.843 19.0556L364.161 20.0036C362.811 20.4568 361.237 20.9021 359.451 21.3388Z" fill="white"/>
<path fill-rule="evenodd" clip-rule="evenodd" d="M251.028 16.6309C251.028 16.6309 251.027 16.6297 251.026 16.6273C251.027 16.6297 251.028 16.6309 251.028 16.6309ZM250.897 16.5C250.765 16.6081 250.546 16.7472 250.21 16.9064C249.416 17.2829 248.183 17.6719 246.511 18.0554C243.183 18.8187 238.327 19.5142 232.28 20.1009C220.196 21.2731 203.48 22 185 22C166.52 22 149.804 21.2731 137.72 20.1009C131.673 19.5142 126.817 18.8187 123.489 18.0554C121.817 17.6719 120.584 17.2829 119.79 16.9064C119.454 16.7472 119.235 16.6081 119.103 16.5C119.235 16.3919 119.454 16.2528 119.79 16.0936C120.584 15.7171 121.817 15.3281 123.489 14.9446C126.817 14.1813 131.673 13.4858 137.72 12.8991C149.804 11.7269 166.52 11 185 11C203.48 11 220.196 11.7269 232.28 12.8991C238.327 13.4858 243.183 14.1813 246.511 14.9446C248.183 15.3281 249.416 15.7171 250.21 16.0936C250.546 16.2528 250.765 16.3919 250.897 16.5ZM118.972 16.6309C118.972 16.6309 118.973 16.6297 118.974 16.6273C118.973 16.6297 118.972 16.6309 118.972 16.6309ZM118.972 16.3691C118.972 16.3691 118.973 16.3703 118.974 16.3727C118.973 16.3703 118.972 16.3691 118.972 16.3691ZM251.026 16.3726C251.027 16.3703 251.028 16.3691 251.028 16.3691C251.028 16.3691 251.027 16.3702 251.026 16.3726ZM185 10C222.003 10 252 12.9101 252 16.5C252 20.0899 222.003 23 185 23C147.997 23 118 20.0899 118 16.5C118 12.9101 147.997 10 185 10Z" fill="white"/>
<path fill-rule="evenodd" clip-rule="evenodd" d="M309.999 16C309.992 15.9715 309.948 15.849 309.698 15.6336C309.379 15.3597 308.845 15.043 308.048 14.7029C306.462 14.0263 304.064 13.3515 300.896 12.6977C294.577 11.3934 285.396 10.2122 274.008 9.21804C251.244 7.23066 219.774 6 185 6C150.226 6 118.756 7.23066 95.9915 9.21804C84.6039 10.2122 75.423 11.3934 69.1038 12.6977C65.9363 13.3515 63.5382 14.0263 61.9523 14.7029C61.1551 15.043 60.6211 15.3597 60.3024 15.6336C60.0519 15.849 60.0078 15.9714 60.0008 16C60.0078 16.0286 60.0519 16.151 60.3024 16.3664C60.6211 16.6403 61.1551 16.957 61.9523 17.2971C63.5382 17.9737 65.9363 18.6485 69.1038 19.3023C75.423 20.6066 84.6039 21.7878 95.9915 22.782C118.756 24.7693 150.226 26 185 26C219.774 26 251.244 24.7693 274.008 22.782C285.396 21.7878 294.577 20.6066 300.896 19.3023C304.064 18.6485 306.462 17.9737 308.048 17.2971C308.845 16.957 309.379 16.6403 309.698 16.3664C309.948 16.1511 309.992 16.0287 309.999 16ZM59.9996 15.9935C59.9996 15.9935 59.9998 15.9942 59.9999 15.9956ZM59.9996 16.0065C59.9996 16.0065 59.9996 16.0058 59.9999 16.0044ZM185 27C254.588 27 311 22.0751 311 16C311 9.92487 254.588 5 185 5C115.412 5 59 9.92487 59 16C59 22.0751 115.412 27 185 27Z" fill="white"/>
</svg>
