<svg width="186" height="186" viewBox="0 0 186 186" fill="none" xmlns="http://www.w3.org/2000/svg">
<path fill-rule="evenodd" clip-rule="evenodd" d="M162.947 95.7522L161.948 95.7136C161.982 94.8134 162 93.9088 162 93C162 92.0912 161.982 91.1866 161.948 90.2864L162.947 90.2478C162.982 91.1608 163 92.0783 163 93C163 93.9217 162.982 94.8392 162.947 95.7522ZM162.521 84.7673L161.528 84.8837C161.316 83.0777 161.035 81.2931 160.687 79.5327L161.668 79.3387C162.021 81.1247 162.306 82.9352 162.521 84.7673ZM160.388 73.9914L159.426 74.2624C158.934 72.5163 158.376 70.7983 157.753 69.1113L158.691 68.7651C159.323 70.4767 159.89 72.2198 160.388 73.9914ZM156.585 63.6863L155.677 64.1055C154.918 62.4611 154.096 60.8517 153.214 59.2802L154.086 58.7908C154.981 60.3851 155.815 62.0179 156.585 63.6863ZM151.21 54.1069L150.379 54.6632C149.372 53.1599 148.308 51.6984 147.19 50.2817L147.975 49.6621C149.109 51.0992 150.189 52.5819 151.21 54.1069ZM144.403 45.4839L143.669 46.1629C142.442 44.8363 141.164 43.558 139.837 42.3311L140.516 41.597C141.862 42.8415 143.158 44.1382 144.403 45.4839ZM136.338 38.0252L135.718 38.8101C134.302 37.6918 132.84 36.6278 131.337 35.6214L131.893 34.7904C133.418 35.8114 134.901 36.8907 136.338 38.0252ZM127.209 31.9142L126.72 32.7862C125.148 31.9043 123.539 31.0821 121.894 30.3227L122.314 29.4149C123.982 30.1853 125.615 31.0194 127.209 31.9142ZM117.235 27.3088L116.889 28.247C115.202 27.6244 113.484 27.0659 111.738 26.5743L112.009 25.6117C113.78 26.1104 115.523 26.6771 117.235 27.3088ZM106.661 24.3324L106.467 25.3134C104.707 24.9651 102.922 24.6838 101.116 24.4722L101.233 23.479C103.065 23.6937 104.875 23.979 106.661 24.3324ZM95.7522 23.0531L95.7136 24.0524C94.8134 24.0176 93.9088 24 93 24C92.0912 24 91.1866 24.0176 90.2864 24.0524L90.2478 23.0531C91.1608 23.0178 92.0783 23 93 23C93.9217 23 94.8392 23.0178 95.7522 23.0531ZM84.7673 23.479L84.8837 24.4722C83.0777 24.6838 81.2931 24.9651 79.5327 25.3134L79.3387 24.3324C81.1247 23.979 82.9352 23.6937 84.7673 23.479ZM73.9914 25.6117L74.2624 26.5743C72.5163 27.0659 70.7983 27.6244 69.1113 28.247L68.7651 27.3088C70.4767 26.6771 72.2198 26.1104 73.9914 25.6117ZM63.6863 29.4149L64.1055 30.3227C62.4611 31.0821 60.8517 31.9043 59.2802 32.7862L58.7908 31.9142C60.3851 31.0194 62.0179 30.1853 63.6863 29.4149ZM54.1069 34.7904L54.6632 35.6214C53.1599 36.6278 51.6984 37.6918 50.2817 38.8101L49.6621 38.0252C51.0992 36.8907 52.5819 35.8114 54.1069 34.7904ZM45.4839 41.597L46.1629 42.3311C44.8363 43.558 43.558 44.8363 42.3311 46.1629L41.597 45.4839C42.8415 44.1382 44.1382 42.8415 45.4839 41.597ZM38.0252 49.6621L38.8101 50.2817C37.6918 51.6984 36.6278 53.1599 35.6214 54.6632L34.7904 54.1069C35.8114 52.5819 36.8907 51.0992 38.0252 49.6621ZM31.9142 58.7908L32.7862 59.2802C31.9043 60.8517 31.0821 62.4611 30.3227 64.1055L29.4149 63.6863C30.1853 62.0179 31.0194 60.3851 31.9142 58.7908ZM27.3088 68.7651L28.247 69.1113C27.6244 70.7983 27.0659 72.5163 26.5743 74.2624L25.6117 73.9914C26.1104 72.2198 26.6771 70.4767 27.3088 68.7651ZM24.3324 79.3387L25.3134 79.5327C24.9651 81.2932 24.6838 83.0777 24.4722 84.8837L23.479 84.7673C23.6937 82.9352 23.979 81.1247 24.3324 79.3387ZM23.0531 90.2478C23.0178 91.1608 23 92.0783 23 93C23 93.9217 23.0178 94.8392 23.0531 95.7522L24.0524 95.7136C24.0176 94.8134 24 93.9088 24 93C24 92.0912 24.0176 91.1866 24.0524 90.2864L23.0531 90.2478ZM23.479 101.233L24.4722 101.116C24.6838 102.922 24.9651 104.707 25.3134 106.467L24.3324 106.661C23.979 104.875 23.6937 103.065 23.479 101.233ZM25.6117 112.009L26.5743 111.738C27.0659 113.484 27.6244 115.202 28.247 116.889L27.3088 117.235C26.6771 115.523 26.1104 113.78 25.6117 112.009ZM29.4149 122.314L30.3227 121.894C31.0821 123.539 31.9043 125.148 32.7862 126.72L31.9142 127.209C31.0194 125.615 30.1853 123.982 29.4149 122.314ZM34.7904 131.893C35.8114 133.418 36.8907 134.901 38.0252 136.338L38.8101 135.718C37.6918 134.302 36.6278 132.84 35.6214 131.337L34.7904 131.893ZM41.597 140.516L42.3311 139.837C43.558 141.164 44.8363 142.442 46.1629 143.669L45.4839 144.403C44.1382 143.158 42.8415 141.862 41.597 140.516ZM49.6621 147.975L50.2817 147.19C51.6984 148.308 53.1599 149.372 54.6632 150.379L54.1069 151.21C52.5819 150.189 51.0992 149.109 49.6621 147.975ZM58.7908 154.086L59.2802 153.214C60.8517 154.096 62.4611 154.918 64.1055 155.677L63.6863 156.585C62.0179 155.815 60.3851 154.981 58.7908 154.086ZM68.7651 158.691L69.1113 157.753C70.7983 158.376 72.5163 158.934 74.2624 159.426L73.9914 160.388C72.2198 159.89 70.4767 159.323 68.7651 158.691ZM79.3387 161.668C81.1247 162.021 82.9352 162.306 84.7673 162.521L84.8837 161.528C83.0777 161.316 81.2932 161.035 79.5327 160.687L79.3387 161.668ZM90.2478 162.947L90.2864 161.948C91.1866 161.982 92.0912 162 93 162C93.9088 162 94.8134 161.982 95.7136 161.948L95.7522 162.947C94.8392 162.982 93.9217 163 93 163C92.0783 163 91.1608 162.982 90.2478 162.947ZM101.233 162.521L101.116 161.528C102.922 161.316 104.707 161.035 106.467 160.687L106.661 161.668C104.875 162.021 103.065 162.306 101.233 162.521ZM112.009 160.388L111.738 159.426C113.484 158.934 115.202 158.376 116.889 157.753L117.235 158.691C115.523 159.323 113.78 159.89 112.009 160.388ZM122.314 156.585L121.894 155.677C123.539 154.918 125.148 154.096 126.72 153.214L127.209 154.086C125.615 154.981 123.982 155.815 122.314 156.585ZM131.893 151.21L131.337 150.379C132.84 149.372 134.302 148.308 135.718 147.19L136.338 147.975C134.901 149.109 133.418 150.189 131.893 151.21ZM140.516 144.403L139.837 143.669C141.164 142.442 142.442 141.164 143.669 139.837L144.403 140.516C143.158 141.862 141.862 143.158 140.516 144.403ZM147.975 136.338L147.19 135.718C148.308 134.302 149.372 132.84 150.379 131.337L151.21 131.893C150.189 133.418 149.109 134.901 147.975 136.338ZM154.086 127.209L153.214 126.72C154.096 125.148 154.918 123.539 155.677 121.894L156.585 122.314C155.815 123.982 154.981 125.615 154.086 127.209ZM158.691 117.235L157.753 116.889C158.376 115.202 158.934 113.484 159.426 111.738L160.388 112.009C159.89 113.78 159.323 115.523 158.691 117.235ZM161.668 106.661L160.687 106.467C161.035 104.707 161.316 102.922 161.528 101.116L162.521 101.233C162.306 103.065 162.021 104.875 161.668 106.661Z" fill="white"/>
<path fill-rule="evenodd" clip-rule="evenodd" d="M185.958 95.8158L184.959 95.7861C184.986 94.8608 185 93.932 185 93C185 92.068 184.986 91.1392 184.959 90.2139L185.958 90.1842C185.986 91.1194 186 92.0581 186 93C186 93.9419 185.986 94.8806 185.958 95.8158ZM185.624 84.5779L184.628 84.6673C184.461 82.8124 184.24 80.9735 183.965 79.1521L184.954 79.0029C185.232 80.8441 185.455 82.7029 185.624 84.5779ZM183.947 73.4736L182.969 73.6826C182.58 71.8627 182.137 70.0627 181.642 68.2844L182.606 68.0164C183.106 69.8141 183.554 71.6338 183.947 73.4736ZM180.936 62.6523L179.991 62.9785C179.385 61.2222 178.727 59.4901 178.019 57.7838L178.943 57.4007C179.658 59.1257 180.323 60.8768 180.936 62.6523ZM176.634 52.279L175.736 52.7175C174.922 51.0487 174.059 49.4081 173.148 47.7977L174.019 47.3057C174.939 48.9336 175.812 50.592 176.634 52.279ZM171.108 42.5004L170.269 43.0441C169.26 41.4874 168.206 39.9631 167.108 38.473L167.913 37.8797C169.023 39.3859 170.088 40.9268 171.108 42.5004ZM164.445 33.4594L163.677 34.1C162.489 32.6766 161.26 31.2895 159.989 29.9408L160.717 29.2553C162.001 30.6185 163.244 32.0206 164.445 33.4594ZM156.745 25.2825L156.059 26.0105C154.71 24.7405 153.323 23.5107 151.9 22.3231L152.541 21.5553C153.979 22.7557 155.381 23.9988 156.745 25.2825ZM148.12 18.0874L147.527 18.8924C146.037 17.7942 144.513 16.7399 142.956 15.7314L143.5 14.8921C145.073 15.9116 146.614 16.9774 148.12 18.0874ZM138.694 11.981L138.202 12.8516C136.592 11.9414 134.951 11.0783 133.283 10.2643L133.721 9.36552C135.408 10.1885 137.066 11.0609 138.694 11.981ZM128.599 7.05688C126.874 6.34158 125.123 5.67669 123.348 5.06406L123.022 6.00937C124.778 6.61536 126.51 7.27305 128.216 7.98061L128.599 7.05688ZM117.984 3.39412L117.716 4.35753C115.937 3.86278 114.137 3.4201 112.317 3.03124L112.526 2.05332C114.366 2.44643 116.186 2.89395 117.984 3.39412ZM106.997 1.04638L106.848 2.03518C105.027 1.76025 103.188 1.53871 101.333 1.37221L101.422 0.376213C103.297 0.544512 105.156 0.768455 106.997 1.04638ZM95.8158 0.0418137L95.7861 1.04137C94.8608 1.01386 93.932 1 93 1C92.068 1 91.1392 1.01386 90.2139 1.04137L90.1842 0.0418137C91.1194 0.0140035 92.0581 0 93 0C93.9419 0 94.8806 0.0140035 95.8158 0.0418137ZM84.5779 0.376213L84.6673 1.37221C82.8124 1.53871 80.9735 1.76025 79.1521 2.03518L79.0029 1.04638C80.8441 0.768455 82.7029 0.544512 84.5779 0.376213ZM73.4736 2.05332L73.6826 3.03124C71.8627 3.4201 70.0627 3.86278 68.2844 4.35753L68.0164 3.39413C69.8141 2.89395 71.6338 2.44643 73.4736 2.05332ZM62.6523 5.06406L62.9785 6.00937C61.2222 6.61536 59.4901 7.27305 57.7838 7.98062L57.4007 7.05689C59.1257 6.34158 60.8768 5.6767 62.6523 5.06406ZM52.279 9.36552L52.7175 10.2643C51.0487 11.0783 49.4081 11.9414 47.7977 12.8516L47.3057 11.981C48.9336 11.0609 50.592 10.1885 52.279 9.36552ZM42.5004 14.8921L43.0441 15.7314C41.4874 16.7399 39.9631 17.7942 38.473 18.8924L37.8797 18.0874C39.3859 16.9773 40.9268 15.9116 42.5004 14.8921ZM33.4594 21.5553L34.1 22.3231C32.6766 23.5107 31.2895 24.7405 29.9408 26.0105L29.2553 25.2825C30.6185 23.9987 32.0206 22.7557 33.4594 21.5553ZM25.2825 29.2552L26.0105 29.9408C24.7405 31.2895 23.5107 32.6766 22.3231 34.1L21.5553 33.4594C22.7557 32.0206 23.9988 30.6185 25.2825 29.2552ZM18.0874 37.8797L18.8924 38.473C17.7942 39.963 16.7399 41.4874 15.7314 43.0441L14.8921 42.5004C15.9116 40.9267 16.9774 39.3859 18.0874 37.8797ZM11.981 47.3057L12.8516 47.7977C11.9414 49.4081 11.0783 51.0487 10.2643 52.7175L9.36552 52.279C10.1885 50.592 11.0609 48.9336 11.981 47.3057ZM7.05689 57.4007L7.98061 57.7838C7.27305 59.4901 6.61536 61.2222 6.00937 62.9785L5.06406 62.6523C5.67669 60.8768 6.34158 59.1257 7.05689 57.4007ZM3.39412 68.0164L4.35753 68.2844C3.86278 70.0627 3.4201 71.8627 3.03124 73.6826L2.05332 73.4736C2.44643 71.6338 2.89395 69.8141 3.39412 68.0164ZM1.04638 79.0029L2.03518 79.1521C1.76025 80.9735 1.53871 82.8124 1.37221 84.6673L0.376213 84.5779C0.544512 82.703 0.768455 80.8441 1.04638 79.0029ZM0.0418137 90.1842C0.0140035 91.1194 0 92.0581 0 93C0 93.9419 0.0140035 94.8806 0.0418137 95.8158L1.04137 95.7861C1.01386 94.8608 1 93.932 1 93C1 92.068 1.01386 91.1392 1.04137 90.2139L0.0418137 90.1842ZM0.376213 101.422L1.37221 101.333C1.53871 103.188 1.76025 105.027 2.03518 106.848L1.04638 106.997C0.768455 105.156 0.544512 103.297 0.376213 101.422ZM2.05332 112.526L3.03124 112.317C3.4201 114.137 3.86278 115.937 4.35753 117.716L3.39413 117.984C2.89395 116.186 2.44643 114.366 2.05332 112.526ZM5.06406 123.348L6.00937 123.022C6.61536 124.778 7.27305 126.51 7.98062 128.216L7.05689 128.599C6.34158 126.874 5.6767 125.123 5.06406 123.348ZM9.36552 133.721L10.2643 133.283C11.0783 134.951 11.9414 136.592 12.8516 138.202L11.981 138.694C11.0609 137.066 10.1885 135.408 9.36552 133.721ZM14.8921 143.5L15.7314 142.956C16.7399 144.513 17.7942 146.037 18.8924 147.527L18.0874 148.12C16.9773 146.614 15.9116 145.073 14.8921 143.5ZM21.5553 152.541L22.3231 151.9C23.5107 153.323 24.7405 154.71 26.0105 156.059L25.2825 156.745C23.9987 155.381 22.7557 153.979 21.5553 152.541ZM29.2553 160.717L29.9408 159.989C31.2895 161.26 32.6766 162.489 34.1 163.677L33.4594 164.445C32.0206 163.244 30.6185 162.001 29.2553 160.717ZM37.8797 167.913L38.473 167.108C39.963 168.206 41.4874 169.26 43.0441 170.269L42.5004 171.108C40.9267 170.088 39.3859 169.023 37.8797 167.913ZM47.3057 174.019L47.7977 173.148C49.4081 174.059 51.0487 174.922 52.7175 175.736L52.279 176.634C50.592 175.812 48.9336 174.939 47.3057 174.019ZM57.4007 178.943L57.7838 178.019C59.4901 178.727 61.2222 179.385 62.9785 179.991L62.6523 180.936C60.8768 180.323 59.1257 179.658 57.4007 178.943ZM68.0164 182.606L68.2844 181.642C70.0627 182.137 71.8627 182.58 73.6826 182.969L73.4736 183.947C71.6338 183.554 69.8141 183.106 68.0164 182.606ZM79.0029 184.954L79.1521 183.965C80.9735 184.24 82.8124 184.461 84.6673 184.628L84.5779 185.624C82.7029 185.455 80.8441 185.232 79.0029 184.954ZM90.1842 185.958L90.2139 184.959C91.1392 184.986 92.068 185 93 185C93.932 185 94.8608 184.986 95.7861 184.959L95.8158 185.958C94.8806 185.986 93.9419 186 93 186C92.0581 186 91.1194 185.986 90.1842 185.958ZM101.422 185.624L101.333 184.628C103.188 184.461 105.027 184.24 106.848 183.965L106.997 184.954C105.156 185.232 103.297 185.455 101.422 185.624ZM112.526 183.947L112.317 182.969C114.137 182.58 115.937 182.137 117.716 181.642L117.984 182.606C116.186 183.106 114.366 183.554 112.526 183.947ZM123.348 180.936L123.022 179.991C124.778 179.385 126.51 178.727 128.216 178.019L128.599 178.943C126.874 179.658 125.123 180.323 123.348 180.936ZM133.721 176.634L133.283 175.736C134.951 174.922 136.592 174.059 138.202 173.148L138.694 174.019C137.066 174.939 135.408 175.812 133.721 176.634ZM143.5 171.108L142.956 170.269C144.513 169.26 146.037 168.206 147.527 167.108L148.12 167.913C146.614 169.023 145.073 170.088 143.5 171.108ZM152.541 164.445L151.9 163.677C153.323 162.489 154.71 161.26 156.059 159.989L156.745 160.717C155.381 162.001 153.979 163.244 152.541 164.445ZM160.717 156.745L159.989 156.059C161.26 154.71 162.489 153.323 163.677 151.9L164.445 152.541C163.244 153.979 162.001 155.381 160.717 156.745ZM167.913 148.12L167.108 147.527C168.206 146.037 169.26 144.513 170.269 142.956L171.108 143.5C170.088 145.073 169.023 146.614 167.913 148.12ZM174.019 138.694L173.148 138.202C174.059 136.592 174.922 134.951 175.736 133.283L176.634 133.721C175.812 135.408 174.939 137.066 174.019 138.694ZM178.943 128.599L178.019 128.216C178.727 126.51 179.385 124.778 179.991 123.022L180.936 123.348C180.323 125.123 179.658 126.874 178.943 128.599ZM182.606 117.984L181.642 117.716C182.137 115.937 182.58 114.137 182.969 112.317L183.947 112.526C183.554 114.366 183.106 116.186 182.606 117.984ZM184.954 106.997L183.965 106.848C184.24 105.027 184.461 103.188 184.628 101.333L185.624 101.422C185.455 103.297 185.232 105.156 184.954 106.997Z" fill="white"/>
<path fill-rule="evenodd" clip-rule="evenodd" d="M144.92 95.9173L143.921 95.8621C143.973 94.9148 144 93.9606 144 93C144 92.0395 143.973 91.0852 143.921 90.138L144.92 90.0827C144.973 91.0484 145 92.021 145 93C145 93.979 144.973 94.9516 144.92 95.9173ZM144.273 84.2854L143.287 84.4518C142.967 82.5552 142.542 80.6943 142.019 78.8751L142.98 78.5987C143.514 80.4538 143.947 82.3515 144.273 84.2854ZM141.054 73.095L140.13 73.4781C139.397 71.7086 138.566 69.9894 137.645 68.3269L138.52 67.8424C139.459 69.5376 140.306 71.2907 141.054 73.095ZM135.413 62.9071L134.598 63.4864C133.491 61.9294 132.299 60.4371 131.029 59.0164L131.774 58.3498C133.069 59.7982 134.284 61.3196 135.413 62.9071ZM127.65 54.226L126.984 54.9715C125.563 53.701 124.071 52.509 122.514 51.4023L123.093 50.5872C124.68 51.7156 126.202 52.9308 127.65 54.226ZM118.158 47.4798L117.673 48.3546C116.011 47.4338 114.291 46.6033 112.522 45.8695L112.905 44.9458C114.709 45.694 116.462 46.5409 118.158 47.4798ZM107.401 43.02L107.125 43.981C105.306 43.4578 103.445 43.0331 101.548 42.7131L101.715 41.727C103.649 42.0534 105.546 42.4864 107.401 43.02ZM95.9173 41.0805L95.8621 42.0789C94.9148 42.0265 93.9606 42 93 42C92.0395 42 91.0852 42.0265 90.138 42.0789L90.0827 41.0805C91.0484 41.0271 92.021 41 93 41C93.979 41 94.9516 41.0271 95.9173 41.0805ZM84.2854 41.727L84.4518 42.7131C82.5552 43.0331 80.6943 43.4578 78.8751 43.981L78.5987 43.02C80.4538 42.4864 82.3515 42.0534 84.2854 41.727ZM73.095 44.9458L73.4781 45.8695C71.7086 46.6033 69.9894 47.4338 68.3269 48.3546L67.8424 47.4798C69.5376 46.5409 71.2907 45.694 73.095 44.9458ZM62.9071 50.5872L63.4864 51.4023C61.9294 52.509 60.4371 53.701 59.0164 54.9715L58.3498 54.226C59.7982 52.9308 61.3196 51.7156 62.9071 50.5872ZM54.226 58.3498L54.9715 59.0164C53.701 60.4371 52.509 61.9294 51.4023 63.4864L50.5872 62.9071C51.7156 61.3196 52.9308 59.7982 54.226 58.3498ZM47.4798 67.8424L48.3546 68.3269C47.4338 69.9894 46.6033 71.7086 45.8695 73.4781L44.9458 73.095C45.694 71.2907 46.5409 69.5376 47.4798 67.8424ZM43.02 78.5987L43.981 78.8751C43.4578 80.6943 43.0331 82.5552 42.7131 84.4518L41.727 84.2854C42.0534 82.3515 42.4864 80.4538 43.02 78.5987ZM41.0805 90.0827C41.0271 91.0484 41 92.021 41 93C41 93.979 41.0271 94.9516 41.0805 95.9173L42.0789 95.862C42.0265 94.9148 42 93.9605 42 93C42 92.0394 42.0265 91.0852 42.0789 90.1379L41.0805 90.0827ZM41.727 101.715L42.7131 101.548C43.0331 103.445 43.4578 105.306 43.981 107.125L43.02 107.401C42.4864 105.546 42.0534 103.649 41.727 101.715ZM44.9458 112.905L45.8695 112.522C46.6033 114.291 47.4338 116.011 48.3546 117.673L47.4798 118.158C46.5409 116.462 45.694 114.709 44.9458 112.905ZM50.5872 123.093L51.4023 122.514C52.509 124.071 53.701 125.563 54.9715 126.984L54.226 127.65C52.9308 126.202 51.7156 124.68 50.5872 123.093ZM58.3499 131.774L59.0164 131.029C60.4371 132.299 61.9294 133.491 63.4864 134.598L62.9071 135.413C61.3196 134.284 59.7982 133.069 58.3499 131.774ZM67.8424 138.52L68.3269 137.645C69.9894 138.566 71.7086 139.397 73.4781 140.13L73.095 141.054C71.2907 140.306 69.5376 139.459 67.8424 138.52ZM78.5987 142.98L78.8751 142.019C80.6943 142.542 82.5552 142.967 84.4518 143.287L84.2854 144.273C82.3515 143.947 80.4538 143.514 78.5987 142.98ZM90.0827 144.92L90.1379 143.921C91.0852 143.973 92.0394 144 93 144C93.9605 144 94.9148 143.973 95.862 143.921L95.9173 144.92C94.9516 144.973 93.979 145 93 145C92.021 145 91.0484 144.973 90.0827 144.92ZM101.715 144.273L101.548 143.287C103.445 142.967 105.306 142.542 107.125 142.019L107.401 142.98C105.546 143.514 103.649 143.947 101.715 144.273ZM112.905 141.054L112.522 140.13C114.291 139.397 116.011 138.566 117.673 137.645L118.158 138.52C116.462 139.459 114.709 140.306 112.905 141.054ZM123.093 135.413L122.514 134.598C124.071 133.491 125.563 132.299 126.984 131.029L127.65 131.774C126.202 133.069 124.68 134.284 123.093 135.413ZM131.774 127.65L131.029 126.984C132.299 125.563 133.491 124.071 134.598 122.514L135.413 123.093C134.284 124.68 133.069 126.202 131.774 127.65ZM138.52 118.158L137.645 117.673C138.566 116.011 139.397 114.291 140.13 112.522L141.054 112.905C140.306 114.709 139.459 116.462 138.52 118.158ZM142.98 107.401L142.019 107.125C142.542 105.306 142.967 103.445 143.287 101.548L144.273 101.715C143.947 103.649 143.514 105.546 142.98 107.401Z" fill="white"/>
<path d="M130 93C130 113.435 113.435 130 93 130C72.5655 130 56 113.435 56 93C56 72.5655 72.5655 56 93 56C113.435 56 130 72.5655 130 93Z" fill="#444444"/>
</svg>
