<svg width="378" height="336" viewBox="0 0 378 336" fill="none" xmlns="http://www.w3.org/2000/svg">
<g clip-path="url(#clip0)">
<path fill-rule="evenodd" clip-rule="evenodd" d="M103.54 3.29729L103.537 0.759766L106.074 0.756396L106.077 2.75639L105.539 2.75711L105.54 3.29464L103.54 3.29729ZM116.224 0.742919L111.149 0.749657L111.152 2.74966L116.227 2.74292L116.224 0.742919ZM121.299 0.73618L121.302 2.73618L126.377 2.72944L126.374 0.729441L121.299 0.73618ZM131.449 0.722702L131.452 2.7227L136.527 2.71596L136.524 0.715964L131.449 0.722702ZM141.599 0.709225L141.602 2.70922L146.677 2.70248L146.675 0.702486L141.599 0.709225ZM151.75 0.695747L151.752 2.69575L156.827 2.68901L156.825 0.689009L151.75 0.695747ZM161.9 0.68227L161.902 2.68227L166.977 2.67553L166.975 0.675531L161.9 0.68227ZM172.05 0.668792L172.052 2.66879L177.127 2.66205L177.125 0.662054L172.05 0.668792ZM182.2 0.655315L182.203 2.65531L187.278 2.64857L187.275 0.648576L182.2 0.655315ZM192.35 0.641837L192.353 2.64184L197.428 2.6351L197.425 0.635099L192.35 0.641837ZM202.5 0.62836L202.503 2.62836L207.578 2.62162L207.575 0.621621L202.5 0.62836ZM212.65 0.614882L212.653 2.61488L217.728 2.60814L217.725 0.608143L212.65 0.614882ZM222.8 0.601405L222.803 2.6014L227.878 2.59466L227.875 0.594666L222.8 0.601405ZM232.95 0.587927L232.953 2.58793L238.028 2.58119L238.025 0.581188L232.95 0.587927ZM243.101 0.57445L243.103 2.57445L248.178 2.56771L248.176 0.567711L243.101 0.57445ZM253.251 0.560972L253.253 2.56097L258.328 2.55423L258.326 0.554233L253.251 0.560972ZM263.401 0.547495L263.403 2.54749L268.478 2.54075L268.476 0.540756L263.401 0.547495ZM273.551 0.534017L273.554 2.53402L278.629 2.52728L278.626 0.527278L273.551 0.534017ZM283.701 0.520539L283.704 2.52054L288.779 2.5138L288.776 0.513801L283.701 0.520539ZM293.851 0.507062L293.854 2.50706L298.929 2.50032L298.926 0.500323L293.851 0.507062ZM304.001 0.493584L304.004 2.49358L309.079 2.48684L309.076 0.486846L304.001 0.493584ZM314.151 0.480107L314.154 2.48011L319.229 2.47337L319.226 0.473368L314.151 0.480107ZM324.301 0.466629L324.304 2.46663L329.379 2.45989L329.376 0.459891L324.301 0.466629ZM334.451 0.453152L334.454 2.45315L339.529 2.44641L339.527 0.446413L334.451 0.453152ZM344.602 0.439674L344.604 2.43967L349.679 2.43293L349.677 0.432935L344.602 0.439674ZM354.752 0.426197L354.754 2.42619L359.829 2.41946L359.827 0.419458L354.752 0.426197ZM364.902 0.412719L364.904 2.41272L369.98 2.40598L369.977 0.40598L364.902 0.412719ZM375.052 0.399242L375.055 2.39924L375.592 2.39853L375.593 2.93606L377.593 2.93341L377.589 0.395872L375.052 0.399242ZM377.6 8.00844L375.6 8.01109L375.606 13.0861L377.606 13.0835L377.6 8.00844ZM377.613 18.1585L375.613 18.1612L375.62 23.2362L377.62 23.2336L377.613 18.1585ZM377.627 28.3086L375.627 28.3113L375.633 33.3863L377.633 33.3837L377.627 28.3086ZM377.64 38.4587L375.64 38.4614L375.647 43.5364L377.647 43.5338L377.64 38.4587ZM377.653 48.6088L375.653 48.6115L375.66 53.6865L377.66 53.6839L377.653 48.6088ZM377.667 58.7589L375.667 58.7616L375.674 63.8366L377.674 63.834L377.667 58.7589ZM377.68 68.909L375.68 68.9117L375.687 73.9867L377.687 73.9841L377.68 68.909ZM377.694 79.0591L375.694 79.0618L375.701 84.1368L377.701 84.1342L377.694 79.0591ZM377.707 89.2093L375.707 89.2119L375.714 94.287L377.714 94.2843L377.707 89.2093ZM377.721 99.3594L375.721 99.362L375.728 104.437L377.728 104.434L377.721 99.3594ZM377.734 109.509L375.734 109.512L375.741 114.587L377.741 114.585L377.734 109.509ZM377.748 119.66L375.748 119.662L375.755 124.737L377.755 124.735L377.748 119.66ZM377.761 129.81L375.761 129.812L375.768 134.887L377.768 134.885L377.761 129.81ZM377.775 139.96L375.775 139.962L375.782 145.037L377.782 145.035L377.775 139.96ZM377.788 150.11L375.788 150.113L375.795 155.188L377.795 155.185L377.788 150.11ZM377.802 160.26L375.802 160.263L375.808 165.338L377.808 165.335L377.802 160.26ZM377.815 170.41L375.815 170.413L375.822 175.488L377.822 175.485L377.815 170.41ZM377.829 180.56L375.829 180.563L375.835 185.638L377.835 185.635L377.829 180.56ZM377.842 190.71L375.842 190.713L375.849 195.788L377.849 195.785L377.842 190.71ZM377.856 200.86L375.856 200.863L375.862 205.938L377.862 205.935L377.856 200.86ZM377.869 211.011L375.869 211.013L375.876 216.088L377.876 216.086L377.869 211.011ZM377.883 221.161L375.883 221.163L375.889 226.238L377.889 226.236L377.883 221.161ZM377.896 231.311L375.896 231.313L375.903 236.388L377.903 236.386L377.896 231.311ZM377.91 241.461L375.91 241.464L375.916 246.539L377.916 246.536L377.91 241.461ZM377.923 251.611L375.923 251.614L375.93 256.689L377.93 256.686L377.923 251.611ZM377.936 261.761L375.936 261.764L375.943 266.839L377.943 266.836L377.936 261.761ZM377.95 271.911L375.95 271.914L375.951 272.451L375.413 272.452L375.416 274.452L377.953 274.449L377.95 271.911ZM370.341 274.459L370.338 272.459L365.263 272.466L365.266 274.466L370.341 274.459ZM360.191 274.472L360.188 272.472L355.113 272.479L355.116 274.479L360.191 274.472ZM350.041 274.486L350.038 272.486L344.963 272.493L344.966 274.492L350.041 274.486ZM339.89 274.499L339.888 272.499L334.813 272.506L334.815 274.506L339.89 274.499ZM329.74 274.513L329.738 272.513L324.663 272.519L324.665 274.519L329.74 274.513ZM319.59 274.526L319.588 272.526L314.513 272.533L314.515 274.533L319.59 274.526ZM309.44 274.54L309.438 272.54L304.362 272.546L304.365 274.546L309.44 274.54ZM299.29 274.553L299.287 272.553L294.212 272.56L294.215 274.56L299.29 274.553ZM289.14 274.567L289.137 272.567L284.062 272.573L284.065 274.573L289.14 274.567ZM278.99 274.58L278.987 272.58L273.912 272.587L273.915 274.587L278.99 274.58ZM268.84 274.594L268.837 272.594L263.762 272.6L263.765 274.6L268.84 274.594ZM258.69 274.607L258.687 272.607L253.612 272.614L253.615 274.614L258.69 274.607ZM248.54 274.621L248.537 272.621L243.462 272.627L243.464 274.627L248.54 274.621ZM238.389 274.634L238.387 272.634L233.312 272.641L233.314 274.641L238.389 274.634ZM228.239 274.647L228.237 272.647L223.162 272.654L223.164 274.654L228.239 274.647ZM218.089 274.661L218.087 272.661L213.012 272.668L213.014 274.668L218.089 274.661ZM207.939 274.674L207.936 272.674L202.861 272.681L202.864 274.681L207.939 274.674ZM197.789 274.688L197.786 272.688L192.711 272.695L192.714 274.695L197.789 274.688ZM187.639 274.701L187.636 272.701L182.561 272.708L182.564 274.708L187.639 274.701ZM177.489 274.715L177.486 272.715L172.411 272.722L172.414 274.722L177.489 274.715ZM167.339 274.728L167.336 272.728L162.261 272.735L162.264 274.735L167.339 274.728ZM157.189 274.742L157.186 272.742L152.111 272.749L152.114 274.749L157.189 274.742ZM147.038 274.755L147.036 272.755L141.961 272.762L141.963 274.762L147.038 274.755ZM136.888 274.769L136.886 272.769L131.811 272.776L131.813 274.776L136.888 274.769ZM126.738 274.782L126.736 272.782L121.661 272.789L121.663 274.789L126.738 274.782ZM116.588 274.796L116.585 272.796L111.51 272.802L111.513 274.802L116.588 274.796ZM106.438 274.809L106.435 272.809L105.898 272.81L105.897 272.272L103.897 272.275L103.901 274.813L106.438 274.809ZM103.89 267.2L105.89 267.197L105.884 262.122L103.884 262.125L103.89 267.2ZM103.877 257.05L105.877 257.047L105.87 251.972L103.87 251.975L103.877 257.05ZM103.863 246.9L105.863 246.897L105.857 241.822L103.857 241.825L103.863 246.9ZM103.85 236.75L105.85 236.747L105.843 231.672L103.843 231.675L103.85 236.75ZM103.836 226.6L105.836 226.597L105.83 221.522L103.83 221.525L103.836 226.6ZM103.823 216.45L105.823 216.447L105.816 211.372L103.816 211.374L103.823 216.45ZM103.81 206.299L105.81 206.297L105.803 201.222L103.803 201.224L103.81 206.299ZM103.796 196.149L105.796 196.147L105.789 191.072L103.789 191.074L103.796 196.149ZM103.783 185.999L105.783 185.997L105.776 180.921L103.776 180.924L103.783 185.999ZM103.769 175.849L105.769 175.846L105.762 170.771L103.762 170.774L103.769 175.849ZM103.756 165.699L105.756 165.696L105.749 160.621L103.749 160.624L103.756 165.699ZM103.742 155.549L105.742 155.546L105.735 150.471L103.735 150.474L103.742 155.549ZM103.729 145.399L105.729 145.396L105.722 140.321L103.722 140.324L103.729 145.399ZM103.715 135.249L105.715 135.246L105.708 130.171L103.708 130.174L103.715 135.249ZM103.702 125.099L105.702 125.096L105.695 120.021L103.695 120.024L103.702 125.099ZM103.688 114.948L105.688 114.946L105.682 109.871L103.682 109.873L103.688 114.948ZM103.675 104.798L105.675 104.796L105.668 99.7206L103.668 99.7233L103.675 104.798ZM103.661 94.6482L105.661 94.6456L105.655 89.5705L103.655 89.5732L103.661 94.6482ZM103.648 84.4981L105.648 84.4955L105.641 79.4204L103.641 79.4231L103.648 84.4981ZM103.634 74.348L105.634 74.3454L105.628 69.2703L103.628 69.273L103.634 74.348ZM103.621 64.1979L105.621 64.1953L105.614 59.1202L103.614 59.1229L103.621 64.1979ZM103.607 54.0478L105.607 54.0452L105.601 48.9701L103.601 48.9728L103.607 54.0478ZM103.594 43.8977L105.594 43.8951L105.587 38.82L103.587 38.8227L103.594 43.8977ZM103.58 33.7476L105.58 33.745L105.574 28.6699L103.574 28.6726L103.58 33.7476ZM103.567 23.5975L105.567 23.5948L105.56 18.5198L103.56 18.5224L103.567 23.5975ZM103.553 13.4474L105.553 13.4447L105.547 8.36969L103.547 8.37234L103.553 13.4474Z" fill="white"/>
<path fill-rule="evenodd" clip-rule="evenodd" d="M276.84 333.706L274.699 334.962L273.687 333.237L275.828 331.981L276.84 333.706ZM285.405 328.684L281.123 331.195L280.111 329.47L284.393 326.959L285.405 328.684ZM293.97 323.661L289.688 326.173L288.676 324.447L292.958 321.936L293.97 323.661ZM302.535 318.639L298.253 321.15L297.241 319.425L301.523 316.914L302.535 318.639ZM311.1 313.617L306.818 316.128L305.806 314.403L310.088 311.891L311.1 313.617ZM319.665 308.594L315.383 311.105L314.371 309.38L318.654 306.869L319.665 308.594ZM328.23 303.572L323.948 306.083L322.936 304.358L327.219 301.847L328.23 303.572ZM336.795 298.549L332.513 301.061L331.501 299.335L335.783 296.824L336.795 298.549ZM345.36 293.527L341.078 296.038L340.066 294.313L344.348 291.802L345.36 293.527ZM353.925 288.505L349.643 291.016L348.631 289.291L352.914 286.779L353.925 288.505ZM362.49 283.482L358.208 285.993L357.196 284.268L361.479 281.757L362.49 283.482ZM371.055 278.46L366.773 280.971L365.761 279.246L370.044 276.735L371.055 278.46ZM377.479 274.693L375.338 275.949L374.326 274.223L376.467 272.968L377.479 274.693Z" fill="white"/>
<path fill-rule="evenodd" clip-rule="evenodd" d="M3.51106 333.706L1.36981 334.962L0.358135 333.237L2.49939 331.981L3.51106 333.706ZM12.0761 328.684L7.79356 331.195L6.78189 329.47L11.0644 326.959L12.0761 328.684ZM20.6411 323.661L16.3586 326.173L15.3469 324.447L19.6294 321.936L20.6411 323.661ZM29.2061 318.639L24.9236 321.15L23.9119 319.425L28.1944 316.914L29.2061 318.639ZM37.7711 313.617L33.4886 316.128L32.4769 314.403L36.7594 311.891L37.7711 313.617ZM46.3361 308.594L42.0536 311.105L41.0419 309.38L45.3244 306.869L46.3361 308.594ZM54.9011 303.572L50.6186 306.083L49.6069 304.358L53.8894 301.847L54.9011 303.572ZM63.4661 298.549L59.1836 301.061L58.1719 299.335L62.4544 296.824L63.4661 298.549ZM72.0311 293.527L67.7486 296.038L66.7369 294.313L71.0194 291.802L72.0311 293.527ZM80.5961 288.505L76.3136 291.016L75.3019 289.291L79.5844 286.779L80.5961 288.505ZM89.1611 283.482L84.8786 285.993L83.8669 284.268L88.1494 281.757L89.1611 283.482ZM97.7261 278.46L93.4436 280.971L92.4319 279.246L96.7144 276.735L97.7261 278.46ZM104.15 274.693L102.009 275.949L100.997 274.223L103.138 272.968L104.15 274.693Z" fill="white"/>
<path fill-rule="evenodd" clip-rule="evenodd" d="M5.67219 61.0735L3.53094 62.3291L2.51927 60.6038L4.66052 59.3482L5.67219 61.0735ZM14.2372 56.051L9.95469 58.5623L8.94302 56.837L13.2255 54.3258L14.2372 56.051ZM22.8022 51.0286L18.5197 53.5398L17.508 51.8146L21.7905 49.3034L22.8022 51.0286ZM31.3672 46.0062L27.0847 48.5174L26.073 46.7922L30.3555 44.281L31.3672 46.0062ZM39.9322 40.9838L35.6497 43.495L34.638 41.7698L38.9205 39.2586L39.9322 40.9838ZM48.4972 35.9614L44.2147 38.4726L43.203 36.7474L47.4855 34.2361L48.4972 35.9614ZM57.0622 30.939L52.7797 33.4502L51.768 31.7249L56.0505 29.2137L57.0622 30.939ZM65.6272 25.9166L61.3447 28.4278L60.333 26.7025L64.6155 24.1913L65.6272 25.9166ZM74.1922 20.8942L69.9097 23.4054L68.898 21.6801L73.1805 19.1689L74.1922 20.8942ZM82.7572 15.8718L78.4747 18.383L77.463 16.6577L81.7455 14.1465L82.7572 15.8718ZM91.3222 10.8494L87.0397 13.3606L86.028 11.6353L90.3105 9.1241L91.3222 10.8494ZM99.8872 5.82695L95.6047 8.33816L94.593 6.6129L98.8755 4.10169L99.8872 5.82695ZM106.311 2.06013L104.17 3.31575L103.158 1.59048L105.299 0.33487L106.311 2.06013Z" fill="white"/>
<path fill-rule="evenodd" clip-rule="evenodd" d="M276.947 61.0735L274.805 62.3291L273.794 60.6038L275.935 59.3482L276.947 61.0735ZM285.512 56.051L281.229 58.5623L280.217 56.837L284.5 54.3258L285.512 56.051ZM294.077 51.0286L289.794 53.5398L288.782 51.8146L293.065 49.3034L294.077 51.0286ZM302.642 46.0062L298.359 48.5174L297.347 46.7922L301.63 44.281L302.642 46.0062ZM311.207 40.9838L306.924 43.495L305.912 41.7698L310.195 39.2586L311.207 40.9838ZM319.772 35.9614L315.489 38.4726L314.477 36.7474L318.76 34.2361L319.772 35.9614ZM328.337 30.939L324.054 33.4502L323.042 31.7249L327.325 29.2137L328.337 30.939ZM336.902 25.9166L332.619 28.4278L331.607 26.7025L335.89 24.1913L336.902 25.9166ZM345.467 20.8942L341.184 23.4054L340.172 21.6801L344.455 19.1689L345.467 20.8942ZM354.032 15.8718L349.749 18.383L348.737 16.6577L353.02 14.1465L354.032 15.8718ZM362.597 10.8494L358.314 13.3606L357.302 11.6353L361.585 9.1241L362.597 10.8494ZM371.162 5.82695L366.879 8.33816L365.867 6.6129L370.15 4.10169L371.162 5.82695ZM377.585 2.06013L375.444 3.31575L374.432 1.59048L376.574 0.33487L377.585 2.06013Z" fill="white"/>
<path fill-rule="evenodd" clip-rule="evenodd" d="M0.866056 62.9147L0.862793 60.457L3.40033 60.4537L3.40298 62.4537L2.86545 62.4544L2.86605 62.9121L0.866056 62.9147ZM13.5504 60.4402L8.47536 60.4469L8.47801 62.4469L13.5531 62.4402L13.5504 60.4402ZM18.6254 60.4334L18.6281 62.4334L23.7031 62.4267L23.7005 60.4267L18.6254 60.4334ZM28.7755 60.42L28.7782 62.42L33.8532 62.4132L33.8506 60.4132L28.7755 60.42ZM38.9256 60.4065L38.9283 62.4065L44.0033 62.3998L44.0007 60.3998L38.9256 60.4065ZM49.0758 60.393L49.0784 62.393L54.1535 62.3863L54.1508 60.3863L49.0758 60.393ZM59.2259 60.3795L59.2285 62.3795L64.3036 62.3728L64.3009 60.3728L59.2259 60.3795ZM69.376 60.3661L69.3786 62.3661L74.4537 62.3593L74.451 60.3593L69.376 60.3661ZM79.5261 60.3526L79.5287 62.3526L84.6038 62.3458L84.6011 60.3458L79.5261 60.3526ZM89.6762 60.3391L89.6788 62.3391L94.7539 62.3324L94.7512 60.3324L89.6762 60.3391ZM99.8263 60.3256L99.8289 62.3256L104.904 62.3189L104.901 60.3189L99.8263 60.3256ZM109.976 60.3121L109.979 62.3121L115.054 62.3054L115.051 60.3054L109.976 60.3121ZM120.126 60.2987L120.129 62.2987L125.204 62.2919L125.202 60.2919L120.126 60.2987ZM130.277 60.2852L130.279 62.2852L135.354 62.2785L135.352 60.2785L130.277 60.2852ZM140.427 60.2717L140.429 62.2717L145.504 62.265L145.502 60.265L140.427 60.2717ZM150.577 60.2582L150.579 62.2582L155.655 62.2515L155.652 60.2515L150.577 60.2582ZM160.727 60.2448L160.73 62.2448L165.805 62.238L165.802 60.238L160.727 60.2448ZM170.877 60.2313L170.88 62.2313L175.955 62.2245L175.952 60.2245L170.877 60.2313ZM181.027 60.2178L181.03 62.2178L186.105 62.2111L186.102 60.2111L181.027 60.2178ZM191.177 60.2043L191.18 62.2043L196.255 62.1976L196.252 60.1976L191.177 60.2043ZM201.327 60.1909L201.33 62.1908L206.405 62.1841L206.402 60.1841L201.327 60.1909ZM211.477 60.1774L211.48 62.1774L216.555 62.1706L216.553 60.1706L211.477 60.1774ZM221.628 60.1639L221.63 62.1639L226.705 62.1572L226.703 60.1572L221.628 60.1639ZM231.778 60.1504L231.78 62.1504L236.855 62.1437L236.853 60.1437L231.778 60.1504ZM241.928 60.1369L241.93 62.1369L247.005 62.1302L247.003 60.1302L241.928 60.1369ZM252.078 60.1235L252.081 62.1235L257.156 62.1167L257.153 60.1167L252.078 60.1235ZM262.228 60.11L262.231 62.11L267.306 62.1032L267.303 60.1032L262.228 60.11ZM272.378 60.0965L272.381 62.0965L272.918 62.0958L272.919 62.5535L274.919 62.5509L274.916 60.0931L272.378 60.0965ZM274.925 67.4662L272.925 67.4689L272.932 72.3843L274.932 72.3816L274.925 67.4662ZM274.938 77.297L272.938 77.2996L272.945 82.215L274.945 82.2123L274.938 77.297ZM274.952 87.1277L272.952 87.1303L272.958 92.0457L274.958 92.043L274.952 87.1277ZM274.965 96.9584L272.965 96.9611L272.971 101.876L274.971 101.874L274.965 96.9584ZM274.978 106.789L272.978 106.792L272.984 111.707L274.984 111.704L274.978 106.789ZM274.991 116.62L272.991 116.622L272.997 121.538L274.997 121.535L274.991 116.62ZM275.004 126.451L273.004 126.453L273.01 131.369L275.01 131.366L275.004 126.451ZM275.017 136.281L273.017 136.284L273.023 141.199L275.023 141.197L275.017 136.281ZM275.03 146.112L273.03 146.115L273.036 151.03L275.036 151.027L275.03 146.112ZM275.043 155.943L273.043 155.945L273.049 160.861L275.049 160.858L275.043 155.943ZM275.056 165.773L273.056 165.776L273.062 170.691L275.062 170.689L275.056 165.773ZM275.069 175.604L273.069 175.607L273.076 180.522L275.076 180.519L275.069 175.604ZM275.082 185.435L273.082 185.437L273.089 190.353L275.089 190.35L275.082 185.435ZM275.095 195.266L273.095 195.268L273.102 200.184L275.102 200.181L275.095 195.266ZM275.108 205.096L273.108 205.099L273.115 210.014L275.115 210.012L275.108 205.096ZM275.121 214.927L273.121 214.93L273.128 219.845L275.128 219.842L275.121 214.927ZM275.134 224.758L273.134 224.76L273.141 229.676L275.141 229.673L275.134 224.758ZM275.147 234.588L273.147 234.591L273.154 239.506L275.154 239.504L275.147 234.588ZM275.16 244.419L273.16 244.422L273.167 249.337L275.167 249.334L275.16 244.419ZM275.173 254.25L273.173 254.252L273.18 259.168L275.18 259.165L275.173 254.25ZM275.186 264.081L273.186 264.083L273.193 268.999L275.193 268.996L275.186 264.081ZM275.2 273.911L273.2 273.914L273.206 278.829L275.206 278.827L275.2 273.911ZM275.213 283.742L273.213 283.745L273.219 288.66L275.219 288.657L275.213 283.742ZM275.226 293.573L273.226 293.575L273.232 298.491L275.232 298.488L275.226 293.573ZM275.239 303.403L273.239 303.406L273.245 308.321L275.245 308.319L275.239 303.403ZM275.252 313.234L273.252 313.237L273.258 318.152L275.258 318.15L275.252 313.234ZM275.265 323.065L273.265 323.068L273.271 327.983L275.271 327.98L275.265 323.065ZM275.278 332.896L273.278 332.898L273.278 333.356L272.741 333.357L272.744 335.357L275.281 335.353L275.278 332.896ZM267.669 335.363L267.666 333.363L262.591 333.37L262.594 335.37L267.669 335.363ZM257.518 335.377L257.516 333.377L252.441 333.384L252.443 335.384L257.518 335.377ZM247.368 335.39L247.366 333.39L242.291 333.397L242.293 335.397L247.368 335.39ZM237.218 335.404L237.216 333.404L232.141 333.411L232.143 335.411L237.218 335.404ZM227.068 335.417L227.066 333.417L221.99 333.424L221.993 335.424L227.068 335.417ZM216.918 335.431L216.915 333.431L211.84 333.438L211.843 335.438L216.918 335.431ZM206.768 335.444L206.765 333.444L201.69 333.451L201.693 335.451L206.768 335.444ZM196.618 335.458L196.615 333.458L191.54 333.464L191.543 335.464L196.618 335.458ZM186.468 335.471L186.465 333.471L181.39 333.478L181.393 335.478L186.468 335.471ZM176.318 335.485L176.315 333.485L171.24 333.491L171.243 335.491L176.318 335.485ZM166.168 335.498L166.165 333.498L161.09 333.505L161.092 335.505L166.168 335.498ZM156.017 335.512L156.015 333.512L150.94 333.518L150.942 335.518L156.017 335.512ZM145.867 335.525L145.865 333.525L140.79 333.532L140.792 335.532L145.867 335.525ZM135.717 335.539L135.715 333.539L130.639 333.545L130.642 335.545L135.717 335.539ZM125.567 335.552L125.564 333.552L120.489 333.559L120.492 335.559L125.567 335.552ZM115.417 335.566L115.414 333.566L110.339 333.572L110.342 335.572L115.417 335.566ZM105.267 335.579L105.264 333.579L100.189 333.586L100.192 335.586L105.267 335.579ZM95.1168 335.592L95.1141 333.592L90.0391 333.599L90.0417 335.599L95.1168 335.592ZM84.9667 335.606L84.964 333.606L79.889 333.613L79.8916 335.613L84.9667 335.606ZM74.8166 335.619L74.8139 333.619L69.7388 333.626L69.7415 335.626L74.8166 335.619ZM64.6665 335.633L64.6638 333.633L59.5887 333.64L59.5914 335.64L64.6665 335.633ZM54.5163 335.646L54.5137 333.646L49.4386 333.653L49.4413 335.653L54.5163 335.646ZM44.3662 335.66L44.3636 333.66L39.2885 333.667L39.2912 335.667L44.3662 335.66ZM34.2161 335.673L34.2135 333.673L29.1384 333.68L29.1411 335.68L34.2161 335.673ZM24.066 335.687L24.0634 333.687L18.9883 333.694L18.991 335.694L24.066 335.687ZM13.9159 335.7L13.9133 333.7L8.83821 333.707L8.84087 335.707L13.9159 335.7ZM3.76582 335.714L3.76316 333.714L3.22563 333.715L3.22502 333.257L1.22503 333.259L1.22829 335.717L3.76582 335.714ZM1.2185 328.344L3.2185 328.341L3.21197 323.426L1.21197 323.429L1.2185 328.344ZM1.20545 318.513L3.20544 318.511L3.19892 313.595L1.19892 313.598L1.20545 318.513ZM1.19239 308.683L3.19239 308.68L3.18586 303.765L1.18587 303.767L1.19239 308.683ZM1.17934 298.852L3.17934 298.849L3.17281 293.934L1.17281 293.937L1.17934 298.852ZM1.16629 289.021L3.16628 289.019L3.15976 284.103L1.15976 284.106L1.16629 289.021ZM1.15323 279.19L3.15323 279.188L3.1467 274.272L1.14671 274.275L1.15323 279.19ZM1.14018 269.36L3.14018 269.357L3.13365 264.442L1.13365 264.444L1.14018 269.36ZM1.12713 259.529L3.12712 259.526L3.1206 254.611L1.1206 254.614L1.12713 259.529ZM1.11407 249.698L3.11407 249.696L3.10754 244.78L1.10755 244.783L1.11407 249.698ZM1.10102 239.868L3.10102 239.865L3.09449 234.95L1.09449 234.952L1.10102 239.868ZM1.08796 230.037L3.08796 230.034L3.08144 225.119L1.08144 225.122L1.08796 230.037ZM1.07491 220.206L3.07491 220.204L3.06838 215.288L1.06838 215.291L1.07491 220.206ZM1.06186 210.376L3.06186 210.373L3.05533 205.457L1.05533 205.46L1.06186 210.376ZM1.0488 200.545L3.0488 200.542L3.04228 195.627L1.04228 195.629L1.0488 200.545ZM1.03575 190.714L3.03575 190.711L3.02922 185.796L1.02922 185.799L1.03575 190.714ZM1.0227 180.883L3.0227 180.881L3.01617 175.965L1.01617 175.968L1.0227 180.883ZM1.00964 171.053L3.00964 171.05L3.00312 166.135L1.00312 166.137L1.00964 171.053ZM0.996591 161.222L2.99659 161.219L2.99006 156.304L0.990064 156.307L0.996591 161.222ZM0.983537 151.391L2.98354 151.389L2.97701 146.473L0.977011 146.476L0.983537 151.391ZM0.970484 141.56L2.97048 141.558L2.96396 136.642L0.963957 136.645L0.970484 141.56ZM0.95743 131.73L2.95743 131.727L2.9509 126.812L0.950904 126.814L0.95743 131.73ZM0.944377 121.899L2.94438 121.896L2.93785 116.981L0.93785 116.984L0.944377 121.899ZM0.931324 112.068L2.93132 112.066L2.9248 107.15L0.924797 107.153L0.931324 112.068ZM0.91827 102.238L2.91827 102.235L2.91174 97.3196L0.911743 97.3222L0.91827 102.238ZM0.905217 92.4069L2.90521 92.4042L2.89869 87.4889L0.89869 87.4915L0.905217 92.4069ZM0.892163 82.5761L2.89216 82.5735L2.88563 77.6581L0.885636 77.6608L0.892163 82.5761ZM0.87911 72.7454L2.87911 72.7428L2.87258 67.8274L0.872583 67.8301L0.87911 72.7454Z" fill="white"/>
</g>
<defs>
<clipPath id="clip0">
<rect width="378" height="336" fill="white"/>
</clipPath>
</defs>
</svg>
