<svg width="340" height="270" viewBox="0 0 340 270" fill="none" xmlns="http://www.w3.org/2000/svg">
<path fill-rule="evenodd" clip-rule="evenodd" d="M338.466 255.779C338.942 255.365 339 255.105 339 255C339 254.895 338.942 254.635 338.466 254.221C337.997 253.814 337.24 253.365 336.15 252.895C333.979 251.959 330.717 251.033 326.436 250.14C317.891 248.358 305.489 246.746 290.12 245.39C259.394 242.678 216.924 241 170 241C123.076 241 80.6062 242.678 49.8797 245.39C34.511 246.746 22.1087 248.358 13.5637 250.14C9.28309 251.033 6.02119 251.959 3.84975 252.895C2.7599 253.365 2.00262 253.814 1.53356 254.221C1.05762 254.635 1 254.895 1 255C1 255.105 1.05762 255.365 1.53356 255.779C2.00262 256.186 2.7599 256.635 3.84975 257.105C6.02119 258.041 9.28309 258.967 13.5637 259.86C22.1087 261.642 34.511 263.254 49.8797 264.61C80.6062 267.322 123.076 269 170 269C216.924 269 259.394 267.322 290.12 264.61C305.489 263.254 317.891 261.642 326.436 259.86C330.717 258.967 333.979 258.041 336.15 257.105C337.24 256.635 337.997 256.186 338.466 255.779ZM170 270C263.888 270 340 263.284 340 255C340 246.716 263.888 240 170 240C76.1116 240 0 246.716 0 255C0 263.284 76.1116 270 170 270Z" fill="white"/>
<path fill-rule="evenodd" clip-rule="evenodd" d="M338.466 225.779C338.942 225.365 339 225.105 339 225C339 224.895 338.942 224.635 338.466 224.221C337.997 223.814 337.24 223.365 336.15 222.895C333.979 221.959 330.717 221.033 326.436 220.14C317.891 218.358 305.489 216.746 290.12 215.39C259.394 212.678 216.924 211 170 211C123.076 211 80.6062 212.678 49.8797 215.39C34.511 216.746 22.1087 218.358 13.5637 220.14C9.28309 221.033 6.02119 221.959 3.84975 222.895C2.7599 223.365 2.00262 223.814 1.53356 224.221C1.05762 224.635 1 224.895 1 225C1 225.105 1.05762 225.365 1.53356 225.779C2.00262 226.186 2.7599 226.635 3.84975 227.105C6.02119 228.041 9.28309 228.967 13.5637 229.86C22.1087 231.642 34.511 233.254 49.8797 234.61C80.6062 237.322 123.076 239 170 239C216.924 239 259.394 237.322 290.12 234.61C305.489 233.254 317.891 231.642 326.436 229.86C330.717 228.967 333.979 228.041 336.15 227.105C337.24 226.635 337.997 226.186 338.466 225.779ZM170 240C263.888 240 340 233.284 340 225C340 216.716 263.888 210 170 210C76.1116 210 0 216.716 0 225C0 233.284 76.1116 240 170 240Z" fill="white"/>
<path fill-rule="evenodd" clip-rule="evenodd" d="M338.466 195.779C338.942 195.365 339 195.105 339 195C339 194.895 338.942 194.635 338.466 194.221C337.997 193.814 337.24 193.365 336.15 192.895C333.979 191.959 330.717 191.033 326.436 190.14C317.891 188.358 305.489 186.746 290.12 185.39C259.394 182.678 216.924 181 170 181C123.076 181 80.6062 182.678 49.8797 185.39C34.511 186.746 22.1087 188.358 13.5637 190.14C9.28309 191.033 6.02119 191.959 3.84975 192.895C2.7599 193.365 2.00262 193.814 1.53356 194.221C1.05762 194.635 1 194.895 1 195C1 195.105 1.05762 195.365 1.53356 195.779C2.00262 196.186 2.7599 196.635 3.84975 197.105C6.02119 198.041 9.28309 198.967 13.5637 199.86C22.1087 201.642 34.511 203.254 49.8797 204.61C80.6062 207.322 123.076 209 170 209C216.924 209 259.394 207.322 290.12 204.61C305.489 203.254 317.891 201.642 326.436 199.86C330.717 198.967 333.979 198.041 336.15 197.105C337.24 196.635 337.997 196.186 338.466 195.779ZM170 210C263.888 210 340 203.284 340 195C340 186.716 263.888 180 170 180C76.1116 180 0 186.716 0 195C0 203.284 76.1116 210 170 210Z" fill="white"/>
<path fill-rule="evenodd" clip-rule="evenodd" d="M338.466 165.779C338.942 165.365 339 165.105 339 165C339 164.895 338.942 164.635 338.466 164.221C337.997 163.814 337.24 163.365 336.15 162.895C333.979 161.959 330.717 161.033 326.436 160.14C317.891 158.358 305.489 156.746 290.12 155.39C259.394 152.678 216.924 151 170 151C123.076 151 80.6062 152.678 49.8797 155.39C34.511 156.746 22.1087 158.358 13.5637 160.14C9.28309 161.033 6.02119 161.959 3.84975 162.895C2.7599 163.365 2.00262 163.814 1.53356 164.221C1.05762 164.635 1 164.895 1 165C1 165.105 1.05762 165.365 1.53356 165.779C2.00262 166.186 2.7599 166.635 3.84975 167.105C6.02119 168.041 9.28309 168.967 13.5637 169.86C22.1087 171.642 34.511 173.254 49.8797 174.61C80.6062 177.322 123.076 179 170 179C216.924 179 259.394 177.322 290.12 174.61C305.489 173.254 317.891 171.642 326.436 169.86C330.717 168.967 333.979 168.041 336.15 167.105C337.24 166.635 337.997 166.186 338.466 165.779ZM170 180C263.888 180 340 173.284 340 165C340 156.716 263.888 150 170 150C76.1116 150 0 156.716 0 165C0 173.284 76.1116 180 170 180Z" fill="white"/>
<path fill-rule="evenodd" clip-rule="evenodd" d="M338.466 135.779C338.942 135.365 339 135.105 339 135C339 134.895 338.942 134.635 338.466 134.221C337.997 133.814 337.24 133.365 336.15 132.895C333.979 131.959 330.717 131.033 326.436 130.14C317.891 128.358 305.489 126.746 290.12 125.39C259.394 122.678 216.924 121 170 121C123.076 121 80.6062 122.678 49.8797 125.39C34.511 126.746 22.1087 128.358 13.5637 130.14C9.28309 131.033 6.02119 131.959 3.84975 132.895C2.7599 133.365 2.00262 133.814 1.53356 134.221C1.05762 134.635 1 134.895 1 135C1 135.105 1.05762 135.365 1.53356 135.779C2.00262 136.186 2.7599 136.635 3.84975 137.105C6.02119 138.041 9.28309 138.967 13.5637 139.86C22.1087 141.642 34.511 143.254 49.8797 144.61C80.6062 147.322 123.076 149 170 149C216.924 149 259.394 147.322 290.12 144.61C305.489 143.254 317.891 141.642 326.436 139.86C330.717 138.967 333.979 138.041 336.15 137.105C337.24 136.635 337.997 136.186 338.466 135.779ZM170 150C263.888 150 340 143.284 340 135C340 126.716 263.888 120 170 120C76.1116 120 0 126.716 0 135C0 143.284 76.1116 150 170 150Z" fill="white"/>
<path fill-rule="evenodd" clip-rule="evenodd" d="M338.466 105.779C338.942 105.365 339 105.105 339 105C339 104.895 338.942 104.635 338.466 104.221C337.997 103.814 337.24 103.365 336.15 102.895C333.979 101.959 330.717 101.033 326.436 100.14C317.891 98.3576 305.489 96.7456 290.12 95.3895C259.394 92.6784 216.924 91 170 91C123.076 91 80.6062 92.6784 49.8797 95.3895C34.511 96.7456 22.1087 98.3576 13.5637 100.14C9.28309 101.033 6.02119 101.959 3.84975 102.895C2.7599 103.365 2.00262 103.814 1.53356 104.221C1.05762 104.635 1 104.895 1 105C1 105.105 1.05762 105.365 1.53356 105.779C2.00262 106.186 2.7599 106.635 3.84975 107.105C6.02119 108.041 9.28309 108.967 13.5637 109.86C22.1087 111.642 34.511 113.254 49.8797 114.61C80.6062 117.322 123.076 119 170 119C216.924 119 259.394 117.322 290.12 114.61C305.489 113.254 317.891 111.642 326.436 109.86C330.717 108.967 333.979 108.041 336.15 107.105C337.24 106.635 337.997 106.186 338.466 105.779ZM170 120C263.888 120 340 113.284 340 105C340 96.7157 263.888 90 170 90C76.1116 90 0 96.7157 0 105C0 113.284 76.1116 120 170 120Z" fill="white"/>
<path fill-rule="evenodd" clip-rule="evenodd" d="M338.466 75.7788C338.942 75.3653 339 75.1052 339 75C339 74.8948 338.942 74.6347 338.466 74.2212C337.997 73.8137 337.24 73.3652 336.15 72.8952C333.979 71.9589 330.717 71.0332 326.436 70.1402C317.891 68.3576 305.489 66.7456 290.12 65.3895C259.394 62.6784 216.924 61 170 61C123.076 61 80.6062 62.6784 49.8797 65.3895C34.511 66.7456 22.1087 68.3576 13.5637 70.1402C9.28309 71.0332 6.02119 71.9589 3.84975 72.8952C2.7599 73.3652 2.00262 73.8137 1.53356 74.2212C1.05762 74.6347 1 74.8948 1 75C1 75.1052 1.05762 75.3653 1.53356 75.7788C2.00262 76.1863 2.7599 76.6348 3.84975 77.1048C6.02119 78.0411 9.28309 78.9668 13.5637 79.8598C22.1087 81.6424 34.511 83.2544 49.8797 84.6105C80.6062 87.3216 123.076 89 170 89C216.924 89 259.394 87.3216 290.12 84.6105C305.489 83.2544 317.891 81.6424 326.436 79.8598C330.717 78.9668 333.979 78.0411 336.15 77.1048C337.24 76.6348 337.997 76.1863 338.466 75.7788ZM170 90C263.888 90 340 83.2843 340 75C340 66.7157 263.888 60 170 60C76.1116 60 0 66.7157 0 75C0 83.2843 76.1116 90 170 90Z" fill="white"/>
<path fill-rule="evenodd" clip-rule="evenodd" d="M338.466 45.7788C338.942 45.3653 339 45.1052 339 45C339 44.8948 338.942 44.6347 338.466 44.2212C337.997 43.8137 337.24 43.3652 336.15 42.8952C333.979 41.9589 330.717 41.0332 326.436 40.1402C317.891 38.3576 305.489 36.7456 290.12 35.3895C259.394 32.6784 216.924 31 170 31C123.076 31 80.6062 32.6784 49.8797 35.3895C34.511 36.7456 22.1087 38.3576 13.5637 40.1402C9.28309 41.0332 6.02119 41.9589 3.84975 42.8952C2.7599 43.3652 2.00262 43.8137 1.53356 44.2212C1.05762 44.6347 1 44.8948 1 45C1 45.1052 1.05762 45.3653 1.53356 45.7788C2.00262 46.1863 2.7599 46.6348 3.84975 47.1048C6.02119 48.0411 9.28309 48.9668 13.5637 49.8598C22.1087 51.6424 34.511 53.2544 49.8797 54.6105C80.6062 57.3216 123.076 59 170 59C216.924 59 259.394 57.3216 290.12 54.6105C305.489 53.2544 317.891 51.6424 326.436 49.8598C330.717 48.9668 333.979 48.0411 336.15 47.1048C337.24 46.6348 337.997 46.1863 338.466 45.7788ZM170 60C263.888 60 340 53.2843 340 45C340 36.7157 263.888 30 170 30C76.1116 30 0 36.7157 0 45C0 53.2843 76.1116 60 170 60Z" fill="white"/>
<path fill-rule="evenodd" clip-rule="evenodd" d="M338.466 15.7788C338.942 15.3653 339 15.1052 339 15C339 14.8948 338.942 14.6347 338.466 14.2212C337.997 13.8137 337.24 13.3652 336.15 12.8952C333.979 11.9589 330.717 11.0332 326.436 10.1402C317.891 8.35765 305.489 6.74559 290.12 5.38953C259.394 2.67837 216.924 1 170 1C123.076 1 80.6062 2.67837 49.8797 5.38953C34.511 6.74559 22.1087 8.35765 13.5637 10.1402C9.28309 11.0332 6.02119 11.9589 3.84975 12.8952C2.7599 13.3652 2.00262 13.8137 1.53356 14.2212C1.05762 14.6347 1 14.8948 1 15C1 15.1052 1.05762 15.3653 1.53356 15.7788C2.00262 16.1863 2.7599 16.6348 3.84975 17.1048C6.02119 18.0411 9.28309 18.9668 13.5637 19.8598C22.1087 21.6424 34.511 23.2544 49.8797 24.6105C80.6062 27.3216 123.076 29 170 29C216.924 29 259.394 27.3216 290.12 24.6105C305.489 23.2544 317.891 21.6424 326.436 19.8598C330.717 18.9668 333.979 18.0411 336.15 17.1048C337.24 16.6348 337.997 16.1863 338.466 15.7788ZM170 30C263.888 30 340 23.2843 340 15C340 6.71573 263.888 0 170 0C76.1116 0 0 6.71573 0 15C0 23.2843 76.1116 30 170 30Z" fill="white"/>
</svg>
