<svg width="4500" height="44" viewBox="0 0 4500 44" fill="none" preserveAspectRatio="none" xmlns="http://www.w3.org/2000/svg">
<path d="M1933.5 22C1933.5 22.2948 1933.32 22.6783 1932.74 23.1437C1932.16 23.603 1931.28 24.0781 1930.08 24.5585C1927.67 25.5174 1924.09 26.4522 1919.45 27.3477C1910.16 29.1371 1896.71 30.7515 1880.07 32.1083C1846.79 34.8213 1800.8 36.5 1750 36.5C1699.2 36.5 1653.21 34.8213 1619.93 32.1083C1603.29 30.7515 1589.84 29.1371 1580.55 27.3477C1575.91 26.4522 1572.33 25.5174 1569.92 24.5585C1568.72 24.0781 1567.84 23.603 1567.26 23.1437C1566.68 22.6783 1566.5 22.2948 1566.5 22C1566.5 21.7052 1566.68 21.3217 1567.26 20.8563C1567.84 20.397 1568.72 19.9219 1569.92 19.4415C1572.33 18.4826 1575.91 17.5478 1580.55 16.6523C1589.84 14.8629 1603.29 13.2485 1619.93 11.8917C1653.21 9.17869 1699.2 7.5 1750 7.5C1800.8 7.5 1846.79 9.17869 1880.07 11.8917C1896.71 13.2485 1910.16 14.8629 1919.45 16.6523C1924.09 17.5478 1927.67 18.4826 1930.08 19.4415C1931.28 19.9219 1932.16 20.397 1932.74 20.8563C1933.32 21.3217 1933.5 21.7052 1933.5 22Z" stroke="white"/>
<path d="M2428.08 18.2103C2430.08 18.8391 2431.6 19.4838 2432.6 20.1418L2432.33 20.5592C2433.22 21.1483 2433.5 21.638 2433.5 22C2433.5 22.362 2433.22 22.8517 2432.33 23.4409L2432.6 23.8582C2431.6 24.5162 2430.08 25.161 2428.08 25.7897L2427.93 25.3125C2426.59 25.7316 2425.03 26.1449 2423.25 26.5513L2423.36 27.0388C2421.9 27.3719 2420.31 27.6997 2418.57 28.0215L2418.48 27.5299C2416.98 27.8087 2415.38 28.0832 2413.68 28.3531L2413.76 28.847C2412.22 29.0909 2410.6 29.3309 2408.91 29.5668L2408.84 29.0716C2407.29 29.2879 2405.67 29.5007 2403.99 29.7099L2404.05 30.2061C2402.48 30.4012 2400.86 30.5931 2399.19 30.7818L2399.13 30.2849C2397.56 30.4623 2395.94 30.6368 2394.27 30.8083L2394.32 31.3057C2392.74 31.4688 2391.11 31.6291 2389.45 31.7866L2389.4 31.2888C2387.81 31.4393 2386.18 31.5873 2384.52 31.7326L2384.56 32.2307C2382.96 32.3705 2381.33 32.5079 2379.66 32.6428L2379.62 32.1444C2378.03 32.2735 2376.4 32.4002 2374.75 32.5245L2374.79 33.0231C2373.19 33.1433 2371.57 33.2613 2369.92 33.3769L2369.89 32.8781C2368.28 32.9907 2366.65 33.1011 2365 33.2092L2365.03 33.7081C2363.41 33.8137 2361.78 33.9172 2360.12 34.0184L2360.09 33.5194C2358.49 33.6169 2356.87 33.7124 2355.23 33.8058L2355.26 34.305C2353.64 34.3967 2352.01 34.4865 2350.37 34.5741L2350.34 34.0748C2348.72 34.1609 2347.08 34.2451 2345.42 34.3271L2345.45 34.8265C2343.84 34.9061 2342.22 34.9837 2340.58 35.0593L2340.56 34.5599C2338.94 34.6346 2337.31 34.7073 2335.67 34.7781L2335.69 35.2776C2334.07 35.3473 2332.43 35.4149 2330.79 35.4807L2330.77 34.9811C2329.15 35.0454 2327.53 35.1079 2325.89 35.1685L2325.91 35.6682C2324.28 35.7282 2322.64 35.7864 2320.99 35.8427L2320.98 35.343C2319.36 35.3981 2317.74 35.4514 2316.1 35.5028L2316.12 36.0025C2314.49 36.0535 2312.86 36.1026 2311.22 36.1499L2311.2 35.6501C2309.58 35.6967 2307.95 35.7415 2306.3 35.7845L2306.32 36.2843C2304.7 36.3268 2303.07 36.3674 2301.43 36.4062L2301.42 35.9063C2299.79 35.9449 2298.15 35.9816 2296.51 36.0166L2296.52 36.5165C2294.9 36.5508 2293.27 36.5835 2291.64 36.6143L2291.63 36.1144C2290 36.1451 2288.36 36.1741 2286.72 36.2012L2286.73 36.7012C2285.11 36.7279 2283.48 36.7529 2281.85 36.7762L2281.84 36.2762C2280.21 36.2994 2278.57 36.3208 2276.93 36.3404L2276.94 36.8404C2275.32 36.8598 2273.69 36.8775 2272.05 36.8934L2272.05 36.3934C2270.42 36.4093 2268.78 36.4234 2267.14 36.4357L2267.15 36.9357C2265.52 36.948 2263.89 36.9585 2262.25 36.9673L2262.25 36.4673C2260.62 36.476 2258.99 36.483 2257.35 36.4882L2257.36 36.9882C2255.73 36.9934 2254.1 36.9969 2252.46 36.9987L2252.46 36.4987C2251.64 36.4996 2250.82 36.5 2250 36.5C2249.18 36.5 2248.36 36.4996 2247.54 36.4987L2247.54 36.9987C2245.9 36.9969 2244.27 36.9934 2242.64 36.9882L2242.65 36.4882C2241.01 36.483 2239.38 36.476 2237.75 36.4673L2237.75 36.9673C2236.11 36.9585 2234.48 36.948 2232.85 36.9357L2232.86 36.4357C2231.22 36.4234 2229.58 36.4093 2227.95 36.3934L2227.95 36.8934C2226.31 36.8775 2224.68 36.8598 2223.06 36.8404L2223.07 36.3404C2221.43 36.3208 2219.79 36.2994 2218.16 36.2762L2218.15 36.7762C2216.52 36.7529 2214.89 36.7279 2213.27 36.7012L2213.28 36.2012C2211.64 36.1741 2210 36.1451 2208.37 36.1144L2208.36 36.6143C2206.73 36.5835 2205.1 36.5508 2203.48 36.5165L2203.49 36.0166C2201.85 35.9816 2200.21 35.9449 2198.58 35.9063L2198.57 36.4062C2196.93 36.3674 2195.3 36.3268 2193.68 36.2843L2193.69 35.7845C2192.05 35.7415 2190.42 35.6967 2188.8 35.6501L2188.78 36.1498C2187.14 36.1026 2185.51 36.0535 2183.88 36.0025L2183.9 35.5028C2182.26 35.4514 2180.64 35.3981 2179.02 35.343L2179.01 35.8427C2177.36 35.7864 2175.72 35.7282 2174.09 35.6682L2174.11 35.1685C2172.47 35.1079 2170.85 35.0454 2169.23 34.9811L2169.21 35.4807C2167.57 35.4149 2165.93 35.3473 2164.31 35.2776L2164.33 34.7781C2162.69 34.7073 2161.06 34.6346 2159.44 34.5599L2159.42 35.0593C2157.78 34.9837 2156.16 34.9061 2154.55 34.8265L2154.58 34.3271C2152.92 34.2451 2151.28 34.1609 2149.66 34.0748L2149.63 34.5741C2147.99 34.4865 2146.36 34.3967 2144.74 34.305L2144.77 33.8058C2143.13 33.7124 2141.51 33.6169 2139.91 33.5194L2139.88 34.0184C2138.22 33.9172 2136.59 33.8137 2134.97 33.7081L2135 33.2092C2133.35 33.1011 2131.72 32.9907 2130.11 32.8781L2130.08 33.3769C2128.43 33.2613 2126.81 33.1433 2125.21 33.0231L2125.25 32.5245C2123.6 32.4002 2121.97 32.2735 2120.38 32.1444L2120.34 32.6428C2118.67 32.5079 2117.04 32.3705 2115.44 32.2307L2115.48 31.7325C2113.82 31.5873 2112.19 31.4393 2110.6 31.2888L2110.55 31.7866C2108.89 31.6291 2107.26 31.4688 2105.68 31.3057L2105.73 30.8083C2104.06 30.6368 2102.44 30.4623 2100.87 30.2849L2100.81 30.7817C2099.14 30.5931 2097.52 30.4012 2095.95 30.2061L2096.01 29.7099C2094.33 29.5007 2092.71 29.2879 2091.16 29.0716L2091.09 29.5668C2089.4 29.3309 2087.78 29.0909 2086.24 28.8469L2086.32 28.3531C2084.62 28.0832 2083.02 27.8087 2081.52 27.5299L2081.43 28.0215C2079.69 27.6997 2078.1 27.3719 2076.64 27.0387L2076.75 26.5513C2074.97 26.1449 2073.41 25.7316 2072.07 25.3125L2071.92 25.7897C2069.92 25.1609 2068.4 24.5162 2067.4 23.8582L2067.67 23.4408C2066.78 22.8517 2066.5 22.362 2066.5 22C2066.5 21.638 2066.78 21.1483 2067.67 20.5591L2067.4 20.1418C2068.4 19.4838 2069.92 18.839 2071.92 18.2103L2072.07 18.6875C2073.41 18.2684 2074.97 17.8551 2076.75 17.4487L2076.64 16.9612C2078.1 16.6281 2079.69 16.3003 2081.43 15.9785L2081.52 16.4701C2083.02 16.1913 2084.62 15.9168 2086.32 15.6469L2086.24 15.153C2087.78 14.9091 2089.4 14.6691 2091.09 14.4332L2091.16 14.9284C2092.71 14.7121 2094.33 14.4993 2096.01 14.2901L2095.95 13.7939C2097.52 13.5988 2099.14 13.4069 2100.81 13.2182L2100.87 13.7151C2102.44 13.5377 2104.06 13.3632 2105.73 13.1917L2105.68 12.6943C2107.26 12.5312 2108.89 12.3709 2110.55 12.2134L2110.6 12.7112C2112.19 12.5607 2113.82 12.4127 2115.48 12.2674L2115.44 11.7693C2117.04 11.6295 2118.67 11.4921 2120.34 11.3572L2120.38 11.8556C2121.97 11.7265 2123.6 11.5998 2125.25 11.4755L2125.21 10.9769C2126.81 10.8567 2128.43 10.7387 2130.08 10.6231L2130.11 11.1219C2131.72 11.0093 2133.35 10.8989 2135 10.7908L2134.97 10.2919C2136.59 10.1863 2138.22 10.0828 2139.88 9.98155L2139.91 10.4806C2141.51 10.3831 2143.13 10.2876 2144.77 10.1942L2144.74 9.69503C2146.36 9.60326 2147.99 9.51355 2149.63 9.42593L2149.66 9.92522C2151.28 9.83907 2152.92 9.75494 2154.58 9.67288L2154.55 9.17349C2156.16 9.09392 2157.78 9.0163 2159.42 8.94066L2159.44 9.44012C2161.06 9.36543 2162.69 9.29267 2164.33 9.22189L2164.31 8.72236C2165.93 8.65275 2167.57 8.58505 2169.21 8.5193L2169.23 9.0189C2170.85 8.95456 2172.47 8.89208 2174.11 8.8315L2174.09 8.33184C2175.72 8.27177 2177.36 8.21356 2179.01 8.15726L2179.02 8.65697C2180.64 8.60189 2182.26 8.54863 2183.9 8.49722L2183.88 7.99746C2185.51 7.94653 2187.14 7.89741 2188.78 7.85015L2188.8 8.34994C2190.42 8.30331 2192.05 8.25848 2193.69 8.21548L2193.68 7.71565C2195.3 7.67325 2196.93 7.63262 2198.57 7.5938L2198.58 8.09366C2200.21 8.05511 2201.85 8.01835 2203.49 7.9834L2203.48 7.48351C2205.1 7.44915 2206.73 7.41654 2208.36 7.3857L2208.37 7.88561C2210 7.85488 2211.64 7.82592 2213.28 7.79875L2213.27 7.29882C2214.89 7.27208 2216.52 7.24708 2218.15 7.22383L2218.16 7.72378C2219.79 7.70063 2221.43 7.67921 2223.07 7.65957L2223.06 7.15961C2224.68 7.1402 2226.31 7.12253 2227.95 7.1066L2227.95 7.60657C2229.58 7.59073 2231.22 7.57662 2232.86 7.56426L2232.85 7.06428C2234.48 7.05203 2236.11 7.04151 2237.75 7.03274L2237.75 7.53273C2239.38 7.52401 2241.01 7.51701 2242.65 7.51176L2242.64 7.01177C2244.27 7.00655 2245.9 7.00306 2247.54 7.00131L2247.54 7.50131C2248.36 7.50044 2249.18 7.5 2250 7.5C2250.82 7.5 2251.64 7.50044 2252.46 7.50131L2252.46 7.00131C2254.1 7.00306 2255.73 7.00655 2257.36 7.01177L2257.35 7.51176C2258.99 7.51701 2260.62 7.52401 2262.25 7.53273L2262.25 7.03274C2263.89 7.04152 2265.52 7.05203 2267.15 7.06428L2267.14 7.56426C2268.78 7.57662 2270.42 7.59073 2272.05 7.60658L2272.05 7.1066C2273.69 7.12253 2275.32 7.1402 2276.94 7.15961L2276.93 7.65957C2278.57 7.67921 2280.21 7.70063 2281.84 7.72378L2281.85 7.22383C2283.48 7.24708 2285.11 7.27208 2286.73 7.29882L2286.72 7.79875C2288.36 7.82592 2290 7.85489 2291.63 7.88561L2291.64 7.3857C2293.27 7.41654 2294.9 7.44915 2296.52 7.48352L2296.51 7.9834C2298.15 8.01835 2299.79 8.05511 2301.42 8.09366L2301.43 7.5938C2303.07 7.63262 2304.7 7.67325 2306.32 7.71565L2306.31 8.21548C2307.95 8.25848 2309.58 8.30331 2311.2 8.34994L2311.22 7.85015C2312.86 7.89742 2314.49 7.94653 2316.12 7.99746L2316.1 8.49722C2317.74 8.54863 2319.36 8.60189 2320.98 8.65697L2320.99 8.15726C2322.64 8.21356 2324.28 8.27177 2325.91 8.33184L2325.89 8.8315C2327.53 8.89208 2329.15 8.95456 2330.77 9.0189L2330.79 8.5193C2332.43 8.58505 2334.07 8.65275 2335.69 8.72236L2335.67 9.2219C2337.31 9.29268 2338.94 9.36543 2340.56 9.44013L2340.58 8.94066C2342.22 9.0163 2343.84 9.09392 2345.45 9.17349L2345.42 9.67288C2347.08 9.75494 2348.72 9.83907 2350.34 9.92523L2350.37 9.42593C2352.01 9.51355 2353.64 9.60326 2355.26 9.69503L2355.23 10.1942C2356.87 10.2876 2358.49 10.3831 2360.09 10.4806L2360.12 9.98155C2361.78 10.0828 2363.41 10.1863 2365.03 10.2919L2365 10.7908C2366.65 10.8989 2368.28 11.0093 2369.89 11.1219L2369.92 10.6231C2371.57 10.7387 2373.19 10.8567 2374.79 10.9769L2374.75 11.4755C2376.4 11.5998 2378.03 11.7265 2379.62 11.8556L2379.66 11.3572C2381.33 11.4921 2382.96 11.6295 2384.56 11.7693L2384.52 12.2674C2386.18 12.4127 2387.81 12.5607 2389.4 12.7112L2389.45 12.2134C2391.11 12.3709 2392.74 12.5312 2394.32 12.6943L2394.27 13.1917C2395.94 13.3632 2397.56 13.5377 2399.13 13.7151L2399.19 13.2183C2400.86 13.4069 2402.48 13.5988 2404.05 13.7939L2403.99 14.2901C2405.67 14.4993 2407.29 14.7121 2408.84 14.9284L2408.91 14.4332C2410.6 14.6691 2412.22 14.9091 2413.76 15.1531L2413.68 15.6469C2415.38 15.9168 2416.98 16.1913 2418.48 16.4701L2418.57 15.9785C2420.31 16.3003 2421.9 16.6281 2423.36 16.9613L2423.25 17.4487C2425.03 17.8551 2426.59 18.2684 2427.93 18.6875L2428.08 18.2103Z" stroke="white" stroke-dasharray="5 5"/>
<path d="M2933.5 22C2933.5 22.2948 2933.32 22.6783 2932.74 23.1437C2932.16 23.603 2931.28 24.0781 2930.08 24.5585C2927.67 25.5174 2924.09 26.4522 2919.45 27.3477C2910.16 29.1371 2896.71 30.7515 2880.07 32.1083C2846.79 34.8213 2800.8 36.5 2750 36.5C2699.2 36.5 2653.21 34.8213 2619.93 32.1083C2603.29 30.7515 2589.84 29.1371 2580.55 27.3477C2575.91 26.4522 2572.33 25.5174 2569.92 24.5585C2568.72 24.0781 2567.84 23.603 2567.26 23.1437C2566.68 22.6783 2566.5 22.2948 2566.5 22C2566.5 21.7052 2566.68 21.3217 2567.26 20.8563C2567.84 20.397 2568.72 19.9219 2569.92 19.4415C2572.33 18.4826 2575.91 17.5478 2580.55 16.6523C2589.84 14.8629 2603.29 13.2485 2619.93 11.8917C2653.21 9.17869 2699.2 7.5 2750 7.5C2800.8 7.5 2846.79 9.17869 2880.07 11.8917C2896.71 13.2485 2910.16 14.8629 2919.45 16.6523C2924.09 17.5478 2927.67 18.4826 2930.08 19.4415C2931.28 19.9219 2932.16 20.397 2932.74 20.8563C2933.32 21.3217 2933.5 21.7052 2933.5 22Z" stroke="#42FF00"/>
<path d="M341.5 22C341.5 21.9332 341.462 21.7866 341.2 21.5618C340.941 21.3406 340.527 21.0994 339.935 20.8479C338.756 20.3467 336.987 19.8523 334.669 19.3758C330.042 18.4245 323.328 17.5646 315.011 16.8413C298.38 15.3952 275.395 14.5 250 14.5C224.605 14.5 201.62 15.3952 184.989 16.8413C176.672 17.5646 169.958 18.4245 165.331 19.3758C163.013 19.8523 161.244 20.3467 160.065 20.8479C159.473 21.0994 159.059 21.3406 158.8 21.5618C158.538 21.7866 158.5 21.9332 158.5 22C158.5 22.0668 158.538 22.2134 158.8 22.4382C159.059 22.6594 159.473 22.9006 160.065 23.1521C161.244 23.6533 163.013 24.1477 165.331 24.6242C169.958 25.5755 176.672 26.4354 184.989 27.1587C201.62 28.6048 224.605 29.5 250 29.5C275.395 29.5 298.38 28.6048 315.011 27.1587C323.328 26.4354 330.042 25.5755 334.669 24.6242C336.987 24.1477 338.756 23.6533 339.935 23.1521C340.527 22.9006 340.941 22.6594 341.2 22.4382C341.462 22.2134 341.5 22.0668 341.5 22Z" stroke="white"/>
<path d="M835.167 25.031C837.299 24.5786 838.968 24.1054 840.122 23.616L839.927 23.1556C840.522 22.9035 840.938 22.6616 841.198 22.4397C841.462 22.2142 841.5 22.067 841.5 22C841.5 21.933 841.462 21.7858 841.198 21.5603C840.938 21.3384 840.522 21.0965 839.927 20.8444L840.122 20.384C838.968 19.8946 837.299 19.4214 835.167 18.969L835.064 19.4581C833.596 19.1466 831.903 18.8442 830.002 18.5527L830.077 18.0585C828.505 17.8174 826.792 17.5842 824.95 17.3595L824.889 17.8558C823.276 17.6592 821.562 17.4691 819.754 17.2861L819.804 16.7886C818.159 16.6221 816.436 16.4616 814.641 16.3074L814.598 16.8056C812.943 16.6635 811.226 16.5268 809.451 16.3958L809.487 15.8972C807.815 15.7738 806.092 15.6556 804.321 15.5427L804.289 16.0417C802.612 15.9348 800.892 15.8328 799.131 15.7358L799.158 15.2366C797.468 15.1435 795.74 15.055 793.977 14.9714L793.954 15.4709C792.265 15.3909 790.545 15.3153 788.795 15.2444L788.815 14.7448C787.12 14.6761 785.396 14.6117 783.646 14.5519L783.629 15.0516C781.928 14.9935 780.203 14.9396 778.455 14.8902L778.469 14.3904C776.764 14.3422 775.037 14.2982 773.29 14.2586L773.278 14.7584C771.573 14.7198 769.849 14.6852 768.107 14.655L768.116 14.1551C766.409 14.1254 764.684 14.0999 762.944 14.0786L762.938 14.5785C761.229 14.5576 759.505 14.5408 757.767 14.5281L757.77 14.0281C756.058 14.0157 754.333 14.0073 752.595 14.0031L752.594 14.5031C751.732 14.501 750.867 14.5 750 14.5C749.133 14.5 748.268 14.501 747.406 14.5031L747.405 14.0031C745.667 14.0073 743.942 14.0157 742.23 14.0281L742.233 14.5281C740.495 14.5408 738.771 14.5576 737.062 14.5785L737.056 14.0786C735.316 14.0999 733.591 14.1254 731.884 14.1551L731.893 14.655C730.151 14.6852 728.427 14.7198 726.722 14.7584L726.71 14.2586C724.963 14.2982 723.236 14.3422 721.531 14.3904L721.545 14.8902C719.797 14.9396 718.072 14.9935 716.371 15.0516L716.354 14.5519C714.604 14.6117 712.88 14.6761 711.185 14.7448L711.205 15.2444C709.455 15.3153 707.735 15.3909 706.046 15.4709L706.023 14.9715C704.26 15.055 702.532 15.1435 700.842 15.2366L700.869 15.7358C699.108 15.8328 697.388 15.9348 695.711 16.0417L695.679 15.5427C693.908 15.6556 692.185 15.7738 690.513 15.8972L690.549 16.3958C688.774 16.5268 687.057 16.6635 685.402 16.8056L685.359 16.3074C683.564 16.4616 681.841 16.6221 680.196 16.7886L680.246 17.2861C678.438 17.4691 676.724 17.6592 675.111 17.8558L675.05 17.3595C673.208 17.5842 671.495 17.8174 669.923 18.0585L669.998 18.5527C668.097 18.8442 666.404 19.1466 664.936 19.4581L664.833 18.969C662.701 19.4214 661.032 19.8946 659.878 20.384L660.073 20.8444C659.478 21.0965 659.062 21.3384 658.802 21.5603C658.538 21.7858 658.5 21.933 658.5 22C658.5 22.067 658.538 22.2142 658.802 22.4397C659.062 22.6616 659.478 22.9035 660.073 23.1556L659.878 23.616C661.032 24.1054 662.701 24.5786 664.833 25.031L664.936 24.5419C666.404 24.8534 668.097 25.1558 669.998 25.4473L669.923 25.9415C671.495 26.1826 673.208 26.4158 675.05 26.6405L675.111 26.1442C676.724 26.3408 678.438 26.5309 680.246 26.7139L680.196 27.2114C681.841 27.3779 683.564 27.5384 685.359 27.6926L685.402 27.1944C687.057 27.3365 688.774 27.4732 690.549 27.6042L690.513 28.1028C692.185 28.2262 693.908 28.3444 695.679 28.4573L695.711 27.9583C697.388 28.0652 699.108 28.1672 700.869 28.2642L700.842 28.7634C702.532 28.8565 704.26 28.945 706.023 29.0286L706.046 28.5291C707.735 28.6091 709.455 28.6847 711.205 28.7556L711.185 29.2552C712.88 29.3239 714.604 29.3883 716.354 29.4481L716.371 28.9484C718.072 29.0065 719.797 29.0604 721.545 29.1098L721.531 29.6096C723.236 29.6578 724.963 29.7018 726.71 29.7414L726.722 29.2416C728.427 29.2802 730.151 29.3148 731.893 29.345L731.884 29.8449C733.591 29.8746 735.316 29.9001 737.056 29.9214L737.062 29.4215C738.771 29.4424 740.495 29.4592 742.233 29.4719L742.23 29.9719C743.942 29.9843 745.667 29.9927 747.405 29.9969L747.406 29.4969C748.268 29.499 749.133 29.5 750 29.5C750.867 29.5 751.732 29.499 752.594 29.4969L752.595 29.9969C754.333 29.9927 756.058 29.9843 757.77 29.9719L757.767 29.4719C759.505 29.4592 761.229 29.4424 762.938 29.4215L762.944 29.9214C764.684 29.9001 766.409 29.8746 768.116 29.8449L768.107 29.345C769.849 29.3148 771.573 29.2802 773.278 29.2416L773.29 29.7414C775.037 29.7018 776.764 29.6578 778.469 29.6096L778.455 29.1098C780.203 29.0604 781.928 29.0065 783.629 28.9484L783.646 29.4481C785.396 29.3883 787.12 29.3239 788.815 29.2552L788.795 28.7556C790.545 28.6847 792.265 28.6091 793.954 28.5291L793.977 29.0285C795.74 28.945 797.468 28.8565 799.158 28.7634L799.131 28.2642C800.892 28.1672 802.612 28.0652 804.289 27.9583L804.321 28.4573C806.092 28.3444 807.815 28.2262 809.487 28.1028L809.451 27.6042C811.226 27.4732 812.943 27.3365 814.598 27.1944L814.641 27.6926C816.436 27.5384 818.159 27.3779 819.804 27.2114L819.754 26.7139C821.562 26.5309 823.276 26.3408 824.889 26.1442L824.95 26.6405C826.792 26.4158 828.505 26.1826 830.077 25.9415L830.002 25.4473C831.903 25.1558 833.596 24.8534 835.064 24.5419L835.167 25.031Z" stroke="white" stroke-dasharray="5 5"/>
<path d="M1341.5 22C1341.5 21.9332 1341.46 21.7866 1341.2 21.5618C1340.94 21.3406 1340.53 21.0994 1339.94 20.8479C1338.76 20.3467 1336.99 19.8523 1334.67 19.3758C1330.04 18.4245 1323.33 17.5646 1315.01 16.8413C1298.38 15.3952 1275.4 14.5 1250 14.5C1224.6 14.5 1201.62 15.3952 1184.99 16.8413C1176.67 17.5646 1169.96 18.4245 1165.33 19.3758C1163.01 19.8523 1161.24 20.3467 1160.06 20.8479C1159.47 21.0994 1159.06 21.3406 1158.8 21.5618C1158.54 21.7866 1158.5 21.9332 1158.5 22C1158.5 22.0668 1158.54 22.2134 1158.8 22.4382C1159.06 22.6594 1159.47 22.9006 1160.06 23.1521C1161.24 23.6533 1163.01 24.1477 1165.33 24.6242C1169.96 25.5755 1176.67 26.4354 1184.99 27.1587C1201.62 28.6048 1224.6 29.5 1250 29.5C1275.4 29.5 1298.38 28.6048 1315.01 27.1587C1323.33 26.4354 1330.04 25.5755 1334.67 24.6242C1336.99 24.1477 1338.76 23.6533 1339.94 23.1521C1340.53 22.9006 1340.94 22.6594 1341.2 22.4382C1341.46 22.2134 1341.5 22.0668 1341.5 22Z" stroke="#42FF00"/>
<path d="M3498.5 22C3498.5 22.5534 3498.18 23.1781 3497.39 23.8722C3496.59 24.5633 3495.38 25.2678 3493.74 25.9747C3490.47 27.3868 3485.62 28.7601 3479.33 30.074C3466.76 32.7 3448.55 35.0683 3426.03 37.0583C3380.98 41.0378 3318.75 43.5 3250 43.5C3181.25 43.5 3119.02 41.0378 3073.97 37.0583C3051.45 35.0683 3033.24 32.7 3020.67 30.074C3014.38 28.7601 3009.53 27.3868 3006.26 25.9747C3004.62 25.2678 3003.41 24.5633 3002.61 23.8722C3001.82 23.1781 3001.5 22.5534 3001.5 22C3001.5 21.4466 3001.82 20.8219 3002.61 20.1278C3003.41 19.4367 3004.62 18.7322 3006.26 18.0253C3009.53 16.6132 3014.38 15.2399 3020.67 13.926C3033.24 11.3 3051.45 8.93173 3073.97 6.94171C3119.02 2.96215 3181.25 0.5 3250 0.5C3318.75 0.5 3380.98 2.96215 3426.03 6.94171C3448.55 8.93173 3466.76 11.3 3479.33 13.926C3485.62 15.2399 3490.47 16.6132 3493.74 18.0253C3495.38 18.7322 3496.59 19.4367 3497.39 20.1278C3498.18 20.8219 3498.5 21.4466 3498.5 22Z" stroke="white"/>
<path d="M3993.48 17.3706C3995.44 18.1808 3996.9 19.0076 3997.82 19.8481L3997.49 20.2179C3998.21 20.8771 3998.5 21.4709 3998.5 22C3998.5 22.5291 3998.21 23.1229 3997.49 23.7821L3997.82 24.1519C3996.9 24.9925 3995.44 25.8192 3993.48 26.6294L3993.29 26.1672C3991.96 26.7159 3990.39 27.2595 3988.58 27.7964L3988.72 28.2756C3987.23 28.7182 3985.59 29.1549 3983.8 29.5852L3983.69 29.0991C3982.16 29.4653 3980.53 29.8271 3978.8 30.1842L3978.9 30.6739C3977.33 30.9966 3975.68 31.3152 3973.94 31.6297L3973.85 31.1377C3972.26 31.4262 3970.6 31.7112 3968.87 31.9926L3968.95 32.4861C3967.36 32.7453 3965.7 33.0014 3964 33.2542L3963.92 32.7596C3962.32 32.9976 3960.66 33.2326 3958.96 33.4647L3959.02 33.9601C3957.4 34.1813 3955.73 34.3998 3954.02 34.6155L3953.96 34.1194C3952.32 34.3261 3950.64 34.5303 3948.92 34.7318L3948.98 35.2283C3947.35 35.4193 3945.69 35.6078 3943.99 35.7938L3943.93 35.2967C3942.3 35.4762 3940.63 35.6533 3938.93 35.828L3938.98 36.3254C3937.33 36.4959 3935.64 36.6643 3933.92 36.8303L3933.87 36.3326C3932.24 36.4908 3930.58 36.647 3928.89 36.8009L3928.94 37.2989C3927.28 37.4498 3925.61 37.5987 3923.9 37.7454L3923.86 37.2472C3922.2 37.39 3920.53 37.5308 3918.83 37.6695L3918.87 38.1679C3917.22 38.3024 3915.55 38.435 3913.86 38.5657L3913.82 38.0672C3912.15 38.1961 3910.46 38.3232 3908.75 38.4482L3908.79 38.9469C3907.14 39.0675 3905.48 39.1863 3903.8 39.3031L3903.76 38.8043C3902.09 38.9206 3900.4 39.035 3898.69 39.1475L3898.72 39.6465C3897.07 39.7552 3895.41 39.8621 3893.73 39.9673L3893.69 39.4682C3892.02 39.5729 3890.33 39.6759 3888.63 39.777L3888.66 40.2761C3887 40.3743 3885.34 40.4707 3883.65 40.5655L3883.63 40.0662C3881.95 40.1606 3880.26 40.2533 3878.56 40.3442L3878.58 40.8435C3876.93 40.9319 3875.26 41.0186 3873.58 41.1037L3873.55 40.6044C3871.87 40.6893 3870.18 40.7726 3868.48 40.8542L3868.5 41.3536C3866.85 41.433 3865.18 41.5107 3863.5 41.5868L3863.48 41.0873C3861.8 41.1634 3860.11 41.2379 3858.41 41.3107L3858.43 41.8102C3856.77 41.8813 3855.1 41.9508 3853.42 42.0187L3853.4 41.5191C3851.72 41.5868 3850.03 41.6529 3848.34 41.7174L3848.36 42.217C3846.69 42.2804 3845.02 42.3422 3843.33 42.4024L3843.31 41.9028C3841.64 41.9626 3839.96 42.0208 3838.27 42.0774L3838.28 42.5772C3836.61 42.6332 3834.93 42.6877 3833.24 42.7407L3833.22 42.2409C3831.55 42.2932 3829.88 42.344 3828.19 42.3932L3828.2 42.893C3826.53 42.9421 3824.84 42.9896 3823.14 43.0356L3823.13 42.5358C3821.46 42.5809 3819.79 42.6246 3818.11 42.6667L3818.12 43.1666C3816.44 43.2087 3814.75 43.2494 3813.06 43.2885L3813.04 42.7886C3811.38 42.827 3809.7 42.864 3808.02 42.8995L3808.03 43.3994C3806.35 43.4347 3804.67 43.4686 3802.98 43.5009L3802.97 43.001C3801.3 43.0331 3799.61 43.0637 3797.93 43.0928L3797.93 43.5927C3796.26 43.6215 3794.58 43.6489 3792.9 43.6747L3792.89 43.1748C3791.21 43.2006 3789.52 43.2249 3787.82 43.2477L3787.83 43.7477C3786.16 43.7702 3784.49 43.7912 3782.81 43.8107L3782.8 43.3107C3781.13 43.3303 3779.44 43.3483 3777.75 43.3649L3777.76 43.8648C3776.08 43.8813 3774.4 43.8962 3772.71 43.9097L3772.71 43.4097C3771.04 43.4231 3769.36 43.435 3767.67 43.4454L3767.68 43.9454C3765.99 43.9559 3764.3 43.9648 3762.61 43.9723L3762.61 43.4723C3760.94 43.4796 3759.26 43.4855 3757.58 43.49L3757.59 43.99C3755.91 43.9944 3754.22 43.9974 3752.53 43.9989L3752.53 43.4989C3751.69 43.4996 3750.85 43.5 3750 43.5C3749.15 43.5 3748.31 43.4996 3747.47 43.4989L3747.47 43.9989C3745.78 43.9974 3744.09 43.9944 3742.41 43.99L3742.42 43.49C3740.74 43.4855 3739.06 43.4796 3737.39 43.4723L3737.39 43.9723C3735.7 43.9648 3734.01 43.9559 3732.32 43.9454L3732.33 43.4454C3730.64 43.435 3728.96 43.4231 3727.29 43.4097L3727.29 43.9097C3725.6 43.8962 3723.92 43.8813 3722.24 43.8648L3722.25 43.3649C3720.56 43.3483 3718.87 43.3303 3717.2 43.3107L3717.19 43.8107C3715.51 43.7912 3713.84 43.7702 3712.17 43.7477L3712.17 43.2477C3710.48 43.2249 3708.79 43.2006 3707.11 43.1748L3707.1 43.6747C3705.42 43.6489 3703.74 43.6215 3702.07 43.5927L3702.07 43.0928C3700.39 43.0637 3698.7 43.0331 3697.03 43.001L3697.02 43.5009C3695.33 43.4686 3693.65 43.4347 3691.97 43.3994L3691.98 42.8995C3690.3 42.864 3688.62 42.827 3686.96 42.7886L3686.94 43.2885C3685.25 43.2494 3683.56 43.2087 3681.88 43.1666L3681.89 42.6667C3680.21 42.6246 3678.54 42.5809 3676.87 42.5358L3676.86 43.0356C3675.16 42.9896 3673.47 42.9421 3671.8 42.893L3671.81 42.3932C3670.12 42.344 3668.45 42.2932 3666.78 42.2409L3666.76 42.7407C3665.07 42.6877 3663.39 42.6332 3661.72 42.5772L3661.73 42.0774C3660.04 42.0208 3658.36 41.9626 3656.69 41.9028L3656.67 42.4024C3654.98 42.3422 3653.31 42.2804 3651.64 42.217L3651.66 41.7174C3649.97 41.6529 3648.28 41.5868 3646.6 41.5191L3646.58 42.0187C3644.9 41.9508 3643.23 41.8813 3641.57 41.8102L3641.59 41.3107C3639.89 41.2379 3638.2 41.1634 3636.52 41.0873L3636.5 41.5868C3634.82 41.5107 3633.15 41.433 3631.5 41.3536L3631.52 40.8542C3629.82 40.7726 3628.13 40.6893 3626.45 40.6044L3626.42 41.1037C3624.74 41.0186 3623.07 40.9319 3621.42 40.8435L3621.44 40.3442C3619.74 40.2533 3618.05 40.1606 3616.37 40.0662L3616.35 40.5655C3614.66 40.4707 3613 40.3743 3611.34 40.2761L3611.37 39.777C3609.67 39.6759 3607.98 39.5729 3606.31 39.4682L3606.27 39.9673C3604.59 39.8621 3602.93 39.7552 3601.28 39.6465L3601.31 39.1475C3599.6 39.035 3597.91 38.9206 3596.24 38.8043L3596.2 39.3031C3594.52 39.1862 3592.86 39.0675 3591.21 38.9469L3591.25 38.4482C3589.54 38.3232 3587.85 38.1961 3586.18 38.0672L3586.14 38.5657C3584.45 38.435 3582.78 38.3024 3581.13 38.1679L3581.17 37.6695C3579.47 37.5308 3577.8 37.39 3576.14 37.2472L3576.1 37.7454C3574.39 37.5987 3572.72 37.4498 3571.06 37.2989L3571.11 36.8009C3569.42 36.647 3567.76 36.4908 3566.13 36.3326L3566.08 36.8303C3564.36 36.6643 3562.67 36.4959 3561.02 36.3254L3561.07 35.828C3559.37 35.6533 3557.7 35.4762 3556.07 35.2967L3556.01 35.7938C3554.31 35.6078 3552.65 35.4193 3551.02 35.2283L3551.08 34.7317C3549.36 34.5303 3547.68 34.3261 3546.04 34.1194L3545.98 34.6155C3544.27 34.3998 3542.6 34.1813 3540.98 33.9601L3541.04 33.4647C3539.34 33.2326 3537.68 32.9976 3536.08 32.7596L3536 33.2542C3534.3 33.0014 3532.64 32.7453 3531.05 32.4861L3531.13 31.9926C3529.4 31.7112 3527.74 31.4262 3526.15 31.1377L3526.06 31.6297C3524.32 31.3152 3522.67 30.9966 3521.1 30.6739L3521.2 30.1842C3519.47 29.8271 3517.84 29.4652 3516.31 29.0991L3516.2 29.5852C3514.41 29.1549 3512.77 28.7182 3511.28 28.2756L3511.42 27.7964C3509.61 27.2595 3508.04 26.7159 3506.71 26.1672L3506.52 26.6294C3504.56 25.8192 3503.1 24.9924 3502.18 24.1519L3502.51 23.7821C3501.79 23.1229 3501.5 22.5291 3501.5 22C3501.5 21.4709 3501.79 20.8771 3502.51 20.2179L3502.18 19.8481C3503.1 19.0075 3504.56 18.1808 3506.52 17.3706L3506.71 17.8328C3508.04 17.2841 3509.61 16.7405 3511.42 16.2036L3511.28 15.7244C3512.77 15.2818 3514.41 14.8451 3516.2 14.4148L3516.31 14.9009C3517.84 14.5347 3519.47 14.1729 3521.2 13.8158L3521.1 13.3261C3522.67 13.0034 3524.32 12.6848 3526.06 12.3703L3526.15 12.8623C3527.74 12.5738 3529.4 12.2888 3531.13 12.0074L3531.05 11.5139C3532.64 11.2547 3534.3 10.9986 3536 10.7458L3536.08 11.2404C3537.68 11.0024 3539.34 10.7674 3541.04 10.5353L3540.98 10.0399C3542.6 9.81865 3544.27 9.60018 3545.98 9.38455L3546.04 9.88062C3547.68 9.67387 3549.36 9.46972 3551.08 9.26825L3551.02 8.77165C3552.65 8.58073 3554.31 8.39224 3556.01 8.20623L3556.07 8.70325C3557.7 8.52384 3559.37 8.34674 3561.07 8.17202L3561.02 7.67465C3562.67 7.50406 3564.36 7.33573 3566.08 7.16974L3566.13 7.66742C3567.76 7.50917 3569.42 7.35304 3571.11 7.19908L3571.06 6.70115C3572.72 6.5502 3574.39 6.40134 3576.1 6.25462L3576.14 6.75277C3577.8 6.60997 3579.47 6.46919 3581.17 6.33048L3581.13 5.83214C3582.78 5.69758 3584.45 5.56496 3586.14 5.43433L3586.18 5.93285C3587.85 5.80388 3589.54 5.67685 3591.25 5.55179L3591.21 5.05312C3592.86 4.93252 3594.52 4.81375 3596.2 4.69685L3596.24 5.19565C3597.91 5.07939 3599.6 4.96498 3601.31 4.85246L3601.28 4.35354C3602.93 4.24484 3604.59 4.13789 3606.27 4.03275L3606.31 4.53177C3607.98 4.42705 3609.67 4.32411 3611.37 4.22299L3611.34 3.72387C3613 3.62571 3614.66 3.52926 3616.35 3.43454L3616.37 3.93375C3618.05 3.83938 3619.74 3.74673 3621.44 3.65582L3621.42 3.15654C3623.07 3.06812 3624.74 2.98136 3626.42 2.89628L3626.45 3.39565C3628.13 3.31068 3629.82 3.2274 3631.52 3.14582L3631.5 2.64639C3633.15 2.56703 3634.82 2.48928 3636.5 2.41317L3636.52 2.91266C3638.2 2.83657 3639.89 2.76211 3641.59 2.68932L3641.57 2.18977C3643.23 2.1187 3644.9 2.04921 3646.58 1.98132L3646.6 2.48091C3648.28 2.41321 3649.97 2.34711 3651.66 2.28262L3651.64 1.78298C3653.31 1.71961 3654.98 1.65779 3656.67 1.59756L3656.69 2.09724C3658.36 2.03745 3660.04 1.97921 3661.73 1.92256L3661.72 1.42284C3663.39 1.36677 3665.07 1.31226 3666.76 1.25931L3666.78 1.75906C3668.45 1.70676 3670.12 1.65598 3671.81 1.60675L3671.8 1.10696C3673.47 1.05791 3675.16 1.01039 3676.86 0.964431L3676.87 1.46425C3678.54 1.41908 3680.21 1.37541 3681.89 1.33327L3681.88 0.833426C3683.56 0.791272 3685.25 0.75064 3686.94 0.711547L3686.96 1.21141C3688.62 1.17295 3690.3 1.13598 3691.98 1.10052L3691.97 0.600629C3693.65 0.565269 3695.33 0.531408 3697.02 0.499061L3697.03 0.99897C3698.7 0.966883 3700.39 0.936287 3702.07 0.907199L3702.07 0.407273C3703.74 0.378462 3705.42 0.351129 3707.1 0.325291L3707.11 0.825232C3708.79 0.799406 3710.48 0.775073 3712.18 0.75225L3712.17 0.252296C3713.84 0.229826 3715.51 0.20882 3717.19 0.189292L3717.2 0.689258C3718.87 0.669733 3720.56 0.651687 3722.25 0.635133L3722.24 0.135157C3723.92 0.118732 3725.6 0.103777 3727.29 0.0903065L3727.29 0.590291C3728.96 0.576912 3730.64 0.564998 3732.33 0.554564L3732.32 0.0545731C3734.01 0.0441425 3735.7 0.0351901 3737.39 0.0277307L3737.39 0.527726C3739.06 0.520362 3740.74 0.514453 3742.42 0.510013L3742.41 0.0100147C3744.09 0.00557424 3745.78 0.00260342 3747.47 0.00111625L3747.47 0.501116C3748.31 0.500373 3749.15 0.5 3750 0.5C3750.85 0.5 3751.69 0.500373 3752.53 0.501116L3752.53 0.00111631C3754.22 0.00260351 3755.91 0.00557438 3757.59 0.0100149L3757.58 0.510013C3759.26 0.514453 3760.94 0.520362 3762.61 0.527726L3762.61 0.0277309C3764.3 0.0351905 3765.99 0.0441429 3767.68 0.0545736L3767.67 0.554564C3769.36 0.564998 3771.04 0.576912 3772.71 0.590291L3772.71 0.0903069C3774.4 0.103777 3776.08 0.118733 3777.76 0.135158L3777.75 0.635134C3779.44 0.651687 3781.13 0.669734 3782.8 0.689259L3782.81 0.189292C3784.49 0.208821 3786.16 0.229827 3787.83 0.252297L3787.83 0.752251C3789.52 0.775074 3791.21 0.799407 3792.89 0.825233L3792.9 0.325292C3794.58 0.35113 3796.26 0.378463 3797.93 0.407274L3797.93 0.9072C3799.61 0.936288 3801.3 0.966884 3802.97 0.998971L3802.98 0.499063C3804.67 0.531409 3806.35 0.56527 3808.03 0.60063L3808.02 1.10052C3809.7 1.13598 3811.38 1.17295 3813.04 1.21142L3813.06 0.711549C3814.75 0.750642 3816.44 0.791274 3818.12 0.833427L3818.11 1.33327C3819.79 1.37541 3821.46 1.41908 3823.13 1.46425L3823.14 0.964433C3824.84 1.01039 3826.53 1.05791 3828.2 1.10697L3828.19 1.60675C3829.88 1.65598 3831.55 1.70676 3833.22 1.75906L3833.24 1.25931C3834.93 1.31226 3836.61 1.36677 3838.28 1.42284L3838.27 1.92256C3839.96 1.97921 3841.64 2.03745 3843.31 2.09725L3843.33 1.59757C3845.02 1.6578 3846.69 1.71961 3848.36 1.78298L3848.34 2.28262C3850.03 2.34711 3851.72 2.41322 3853.4 2.48092L3853.42 1.98132C3855.1 2.04921 3856.77 2.1187 3858.43 2.18978L3858.41 2.68932C3860.11 2.76212 3861.8 2.83657 3863.48 2.91266L3863.5 2.41318C3865.18 2.48929 3866.85 2.56703 3868.5 2.64639L3868.48 3.14582C3870.18 3.2274 3871.87 3.31069 3873.55 3.39565L3873.58 2.89629C3875.26 2.98136 3876.93 3.06812 3878.58 3.15654L3878.56 3.65583C3880.26 3.74673 3881.95 3.83938 3883.63 3.93375L3883.65 3.43455C3885.34 3.52926 3887 3.62571 3888.66 3.72387L3888.63 4.22299C3890.33 4.32412 3892.02 4.42705 3893.69 4.53177L3893.73 4.03275C3895.41 4.1379 3897.07 4.24484 3898.72 4.35355L3898.69 4.85246C3900.4 4.96498 3902.09 5.07939 3903.76 5.19565L3903.8 4.69686C3905.48 4.81375 3907.14 4.93252 3908.79 5.05313L3908.75 5.55179C3910.46 5.67685 3912.15 5.80388 3913.82 5.93285L3913.86 5.43434C3915.55 5.56496 3917.22 5.69758 3918.87 5.83214L3918.83 6.33048C3920.53 6.46919 3922.2 6.60997 3923.86 6.75277L3923.9 6.25462C3925.61 6.40134 3927.28 6.5502 3928.94 6.70115L3928.89 7.19908C3930.58 7.35304 3932.24 7.50917 3933.87 7.66742L3933.92 7.16975C3935.64 7.33574 3937.33 7.50406 3938.98 7.67465L3938.93 8.17202C3940.63 8.34674 3942.3 8.52384 3943.93 8.70325L3943.99 8.20623C3945.69 8.39224 3947.35 8.58074 3948.98 8.77165L3948.92 9.26825C3950.64 9.46972 3952.32 9.67387 3953.96 9.88062L3954.02 9.38455C3955.73 9.60018 3957.4 9.81865 3959.02 10.0399L3958.96 10.5353C3960.66 10.7674 3962.32 11.0024 3963.92 11.2404L3964 10.7458C3965.7 10.9986 3967.36 11.2547 3968.95 11.5139L3968.87 12.0074C3970.6 12.2888 3972.26 12.5738 3973.85 12.8623L3973.94 12.3703C3975.68 12.6848 3977.33 13.0034 3978.9 13.3261L3978.8 13.8158C3980.53 14.1729 3982.16 14.5348 3983.69 14.9009L3983.8 14.4148C3985.59 14.8452 3987.23 15.2818 3988.72 15.7244L3988.58 16.2036C3990.39 16.7405 3991.96 17.2841 3993.29 17.8328L3993.48 17.3706Z" stroke="white" stroke-dasharray="5 5"/>
<path d="M4498.5 22C4498.5 22.5534 4498.18 23.1781 4497.39 23.8722C4496.59 24.5633 4495.38 25.2678 4493.74 25.9747C4490.47 27.3868 4485.62 28.7601 4479.33 30.074C4466.76 32.7 4448.55 35.0683 4426.03 37.0583C4380.98 41.0378 4318.75 43.5 4250 43.5C4181.25 43.5 4119.02 41.0378 4073.97 37.0583C4051.45 35.0683 4033.24 32.7 4020.67 30.074C4014.38 28.7601 4009.53 27.3868 4006.26 25.9747C4004.62 25.2678 4003.41 24.5633 4002.61 23.8722C4001.82 23.1781 4001.5 22.5534 4001.5 22C4001.5 21.4466 4001.82 20.8219 4002.61 20.1278C4003.41 19.4367 4004.62 18.7322 4006.26 18.0253C4009.53 16.6132 4014.38 15.2399 4020.67 13.926C4033.24 11.3 4051.45 8.93173 4073.97 6.94171C4119.02 2.96215 4181.25 0.5 4250 0.5C4318.75 0.5 4380.98 2.96215 4426.03 6.94171C4448.55 8.93173 4466.76 11.3 4479.33 13.926C4485.62 15.2399 4490.47 16.6132 4493.74 18.0253C4495.38 18.7322 4496.59 19.4367 4497.39 20.1278C4498.18 20.8219 4498.5 21.4466 4498.5 22Z" stroke="#42FF00"/>
</svg>
