<svg width="22" height="22" viewBox="0 0 22 22" fill="none" xmlns="http://www.w3.org/2000/svg">
<path d="M12.138 8.629V15.069H14.217V16H8.687V15.069H10.962V9.56H8.757V8.629H12.138ZM11.2 5.178C11.4613 5.178 11.669 5.25733 11.823 5.416C11.9817 5.57467 12.061 5.76833 12.061 5.997C12.061 6.235 11.9817 6.43567 11.823 6.599C11.669 6.75767 11.4613 6.837 11.2 6.837C10.9527 6.837 10.7497 6.75767 10.591 6.599C10.4323 6.43567 10.353 6.235 10.353 5.997C10.353 5.76833 10.4323 5.57467 10.591 5.416C10.7497 5.25733 10.9527 5.178 11.2 5.178Z" fill="black"/>
<circle cx="11" cy="11" r="10.25" stroke="black" stroke-width="1.5"/>
</svg>
