<svg width="687" height="39" viewBox="0 0 687 39" fill="none" xmlns="http://www.w3.org/2000/svg">
<line x1="10" y1="24" x2="10" y2="39" stroke="black" stroke-width="2"/>
<line x1="77" y1="24" x2="77" y2="39" stroke="black" stroke-width="2"/>
<line x1="77" y1="24" x2="77" y2="39" stroke="black" stroke-width="2"/>
<line x1="142" y1="24" x2="142" y2="39" stroke="black" stroke-width="2"/>
<line x1="142" y1="24" x2="142" y2="39" stroke="black" stroke-width="2"/>
<line x1="210" y1="24" x2="210" y2="39" stroke="black" stroke-width="2"/>
<line x1="210" y1="24" x2="210" y2="39" stroke="black" stroke-width="2"/>
<line x1="277" y1="24" x2="277" y2="39" stroke="black" stroke-width="2"/>
<line x1="277" y1="24" x2="277" y2="39" stroke="black" stroke-width="2"/>
<line x1="343" y1="24" x2="343" y2="39" stroke="black" stroke-width="2"/>
<line x1="343" y1="24" x2="343" y2="39" stroke="black" stroke-width="2"/>
<line x1="409" y1="24" x2="409" y2="39" stroke="black" stroke-width="2"/>
<line x1="409" y1="24" x2="409" y2="39" stroke="black" stroke-width="2"/>
<line x1="475" y1="24" x2="475" y2="39" stroke="black" stroke-width="2"/>
<line x1="475" y1="24" x2="475" y2="39" stroke="black" stroke-width="2"/>
<line x1="542" y1="24" x2="542" y2="39" stroke="black" stroke-width="2"/>
<line x1="542" y1="24" x2="542" y2="39" stroke="black" stroke-width="2"/>
<line x1="610" y1="24" x2="610" y2="39" stroke="black" stroke-width="2"/>
<line x1="610" y1="24" x2="610" y2="39" stroke="black" stroke-width="2"/>
<line x1="675" y1="24" x2="675" y2="39" stroke="black" stroke-width="2"/>
<line x1="675" y1="24" x2="675" y2="39" stroke="black" stroke-width="2"/>
<path d="M4.90794 4.207C5.28127 4.207 5.62427 4.256 5.93694 4.354C6.2496 4.44733 6.54127 4.585 6.81194 4.767L6.34994 5.565C6.1306 5.42967 5.89727 5.32933 5.64994 5.264C5.40727 5.194 5.15294 5.159 4.88694 5.159C4.3736 5.159 3.93727 5.33167 3.57794 5.677C3.2186 6.01767 2.94794 6.50067 2.76594 7.126C2.58394 7.74667 2.49527 8.477 2.49994 9.317L2.51394 9.772C2.51394 10.9573 2.67027 11.8277 2.98294 12.383C3.2956 12.9337 3.8066 13.209 4.51594 13.209C5.12727 13.209 5.5846 12.992 5.88794 12.558C6.19594 12.124 6.34994 11.5337 6.34994 10.787C6.34994 9.99367 6.1936 9.44533 5.88094 9.142C5.56827 8.83867 5.15527 8.687 4.64194 8.687C4.1426 8.687 3.7016 8.83633 3.31894 9.135C2.93627 9.43367 2.62594 9.81633 2.38794 10.283L2.35994 9.247C2.67727 8.70567 3.03894 8.316 3.44494 8.078C3.85094 7.84 4.3106 7.721 4.82394 7.721C5.32327 7.721 5.77827 7.83067 6.18894 8.05C6.5996 8.26933 6.9286 8.60533 7.17594 9.058C7.42794 9.506 7.55394 10.073 7.55394 10.759C7.55394 11.4683 7.4186 12.0773 7.14794 12.586C6.87727 13.09 6.51094 13.4797 6.04894 13.755C5.58694 14.0257 5.07827 14.161 4.52294 14.161C3.93494 14.161 3.43794 14.0513 3.03194 13.832C2.62594 13.608 2.29694 13.2907 2.04494 12.88C1.79294 12.4647 1.6086 11.9677 1.49194 11.389C1.37994 10.8057 1.32394 10.157 1.32394 9.443C1.32394 8.379 1.46394 7.455 1.74394 6.671C2.0286 5.887 2.43694 5.28033 2.96894 4.851C3.5056 4.42167 4.15194 4.207 4.90794 4.207ZM15.4235 4.361L15.2485 5.299H11.4405V8.337C11.7345 8.17833 12.0121 8.071 12.2735 8.015C12.5395 7.95433 12.8171 7.924 13.1065 7.924C13.6291 7.924 14.0888 8.043 14.4855 8.281C14.8821 8.51433 15.1901 8.85733 15.4095 9.31C15.6288 9.76267 15.7385 10.3087 15.7385 10.948C15.7385 11.5873 15.6031 12.1497 15.3325 12.635C15.0665 13.1203 14.6908 13.496 14.2055 13.762C13.7201 14.028 13.1438 14.161 12.4765 14.161C11.8978 14.161 11.3798 14.0583 10.9225 13.853C10.4698 13.6477 10.0568 13.363 9.68347 12.999L10.4115 12.299C10.7055 12.5977 11.0205 12.8217 11.3565 12.971C11.6971 13.1157 12.0751 13.188 12.4905 13.188C13.1251 13.188 13.6198 12.9967 13.9745 12.614C14.3291 12.2267 14.5065 11.6597 14.5065 10.913C14.5065 10.395 14.4295 9.98667 14.2755 9.688C14.1215 9.38933 13.9115 9.177 13.6455 9.051C13.3841 8.92033 13.0925 8.855 12.7705 8.855C12.4858 8.855 12.2338 8.883 12.0145 8.939C11.7951 8.99033 11.5455 9.06967 11.2655 9.177H10.3205V4.361H15.4235Z" fill="black"/>
<path d="M69.0454 4.361V13.72H67.8694V5.635L65.6574 6.979L65.1464 6.139L68.0164 4.361H69.0454ZM71.0614 13.041V14H65.4964V13.041H71.0614ZM77.4399 4.361V13.72H76.2639V5.635L74.0519 6.979L73.5409 6.139L76.4109 4.361H77.4399ZM79.4559 13.041V14H73.8909V13.041H79.4559ZM87.4235 4.361L87.2485 5.299H83.4405V8.337C83.7345 8.17833 84.0121 8.071 84.2735 8.015C84.5395 7.95433 84.8171 7.924 85.1065 7.924C85.6291 7.924 86.0888 8.043 86.4855 8.281C86.8821 8.51433 87.1901 8.85733 87.4095 9.31C87.6288 9.76267 87.7385 10.3087 87.7385 10.948C87.7385 11.5873 87.6031 12.1497 87.3325 12.635C87.0665 13.1203 86.6908 13.496 86.2055 13.762C85.7201 14.028 85.1438 14.161 84.4765 14.161C83.8978 14.161 83.3798 14.0583 82.9225 13.853C82.4698 13.6477 82.0568 13.363 81.6835 12.999L82.4115 12.299C82.7055 12.5977 83.0205 12.8217 83.3565 12.971C83.6971 13.1157 84.0751 13.188 84.4905 13.188C85.1251 13.188 85.6198 12.9967 85.9745 12.614C86.3291 12.2267 86.5065 11.6597 86.5065 10.913C86.5065 10.395 86.4295 9.98667 86.2755 9.688C86.1215 9.38933 85.9115 9.177 85.6455 9.051C85.3841 8.92033 85.0925 8.855 84.7705 8.855C84.4858 8.855 84.2338 8.883 84.0145 8.939C83.7951 8.99033 83.5455 9.06967 83.2655 9.177H82.3205V4.361H87.4235Z" fill="black"/>
<path d="M134.045 4.361V13.72H132.869V5.635L130.657 6.979L130.146 6.139L133.016 4.361H134.045ZM136.061 13.041V14H130.496V13.041H136.061ZM141.908 4.207C142.281 4.207 142.624 4.256 142.937 4.354C143.25 4.44733 143.541 4.585 143.812 4.767L143.35 5.565C143.131 5.42967 142.897 5.32933 142.65 5.264C142.407 5.194 142.153 5.159 141.887 5.159C141.374 5.159 140.937 5.33167 140.578 5.677C140.219 6.01767 139.948 6.50067 139.766 7.126C139.584 7.74667 139.495 8.477 139.5 9.317L139.514 9.772C139.514 10.9573 139.67 11.8277 139.983 12.383C140.296 12.9337 140.807 13.209 141.516 13.209C142.127 13.209 142.585 12.992 142.888 12.558C143.196 12.124 143.35 11.5337 143.35 10.787C143.35 9.99367 143.194 9.44533 142.881 9.142C142.568 8.83867 142.155 8.687 141.642 8.687C141.143 8.687 140.702 8.83633 140.319 9.135C139.936 9.43367 139.626 9.81633 139.388 10.283L139.36 9.247C139.677 8.70567 140.039 8.316 140.445 8.078C140.851 7.84 141.311 7.721 141.824 7.721C142.323 7.721 142.778 7.83067 143.189 8.05C143.6 8.26933 143.929 8.60533 144.176 9.058C144.428 9.506 144.554 10.073 144.554 10.759C144.554 11.4683 144.419 12.0773 144.148 12.586C143.877 13.09 143.511 13.4797 143.049 13.755C142.587 14.0257 142.078 14.161 141.523 14.161C140.935 14.161 140.438 14.0513 140.032 13.832C139.626 13.608 139.297 13.2907 139.045 12.88C138.793 12.4647 138.609 11.9677 138.492 11.389C138.38 10.8057 138.324 10.157 138.324 9.443C138.324 8.379 138.464 7.455 138.744 6.671C139.029 5.887 139.437 5.28033 139.969 4.851C140.506 4.42167 141.152 4.207 141.908 4.207ZM152.423 4.361L152.248 5.299H148.44V8.337C148.734 8.17833 149.012 8.071 149.273 8.015C149.539 7.95433 149.817 7.924 150.106 7.924C150.629 7.924 151.089 8.043 151.485 8.281C151.882 8.51433 152.19 8.85733 152.409 9.31C152.629 9.76267 152.738 10.3087 152.738 10.948C152.738 11.5873 152.603 12.1497 152.332 12.635C152.066 13.1203 151.691 13.496 151.205 13.762C150.72 14.028 150.144 14.161 149.476 14.161C148.898 14.161 148.38 14.0583 147.922 13.853C147.47 13.6477 147.057 13.363 146.683 12.999L147.411 12.299C147.705 12.5977 148.02 12.8217 148.356 12.971C148.697 13.1157 149.075 13.188 149.49 13.188C150.125 13.188 150.62 12.9967 150.974 12.614C151.329 12.2267 151.506 11.6597 151.506 10.913C151.506 10.395 151.429 9.98667 151.275 9.688C151.121 9.38933 150.911 9.177 150.645 9.051C150.384 8.92033 150.092 8.855 149.77 8.855C149.486 8.855 149.234 8.883 149.014 8.939C148.795 8.99033 148.545 9.06967 148.265 9.177H147.32V4.361H152.423Z" fill="black"/>
<path d="M200.589 4.207C201.196 4.207 201.714 4.32367 202.143 4.557C202.577 4.79033 202.911 5.11 203.144 5.516C203.378 5.922 203.494 6.38167 203.494 6.895C203.494 7.33833 203.417 7.77233 203.263 8.197C203.109 8.617 202.862 9.06033 202.521 9.527C202.185 9.989 201.742 10.5023 201.191 11.067C200.645 11.6317 199.973 12.2757 199.175 12.999H203.718L203.571 14H197.838V13.041C198.566 12.3457 199.185 11.7367 199.693 11.214C200.207 10.6913 200.629 10.234 200.96 9.842C201.296 9.44533 201.558 9.086 201.744 8.764C201.936 8.442 202.069 8.13633 202.143 7.847C202.218 7.553 202.255 7.24967 202.255 6.937C202.255 6.39567 202.101 5.96867 201.793 5.656C201.49 5.34333 201.07 5.187 200.533 5.187C200.057 5.187 199.668 5.26867 199.364 5.432C199.061 5.59533 198.758 5.85667 198.454 6.216L197.642 5.586C198.025 5.11933 198.45 4.774 198.916 4.55C199.383 4.32133 199.941 4.207 200.589 4.207ZM210.44 4.361V13.72H209.264V5.635L207.052 6.979L206.541 6.139L209.411 4.361H210.44ZM212.456 13.041V14H206.891V13.041H212.456ZM220.423 4.361L220.248 5.299H216.44V8.337C216.734 8.17833 217.012 8.071 217.273 8.015C217.539 7.95433 217.817 7.924 218.106 7.924C218.629 7.924 219.089 8.043 219.485 8.281C219.882 8.51433 220.19 8.85733 220.409 9.31C220.629 9.76267 220.738 10.3087 220.738 10.948C220.738 11.5873 220.603 12.1497 220.332 12.635C220.066 13.1203 219.691 13.496 219.205 13.762C218.72 14.028 218.144 14.161 217.476 14.161C216.898 14.161 216.38 14.0583 215.922 13.853C215.47 13.6477 215.057 13.363 214.683 12.999L215.411 12.299C215.705 12.5977 216.02 12.8217 216.356 12.971C216.697 13.1157 217.075 13.188 217.49 13.188C218.125 13.188 218.62 12.9967 218.974 12.614C219.329 12.2267 219.506 11.6597 219.506 10.913C219.506 10.395 219.429 9.98667 219.275 9.688C219.121 9.38933 218.911 9.177 218.645 9.051C218.384 8.92033 218.092 8.855 217.77 8.855C217.486 8.855 217.234 8.883 217.014 8.939C216.795 8.99033 216.545 9.06967 216.265 9.177H215.32V4.361H220.423Z" fill="black"/>
<path d="M267.589 4.207C268.196 4.207 268.714 4.32367 269.143 4.557C269.577 4.79033 269.911 5.11 270.144 5.516C270.378 5.922 270.494 6.38167 270.494 6.895C270.494 7.33833 270.417 7.77233 270.263 8.197C270.109 8.617 269.862 9.06033 269.521 9.527C269.185 9.989 268.742 10.5023 268.191 11.067C267.645 11.6317 266.973 12.2757 266.175 12.999H270.718L270.571 14H264.838V13.041C265.566 12.3457 266.185 11.7367 266.693 11.214C267.207 10.6913 267.629 10.234 267.96 9.842C268.296 9.44533 268.558 9.086 268.744 8.764C268.936 8.442 269.069 8.13633 269.143 7.847C269.218 7.553 269.255 7.24967 269.255 6.937C269.255 6.39567 269.101 5.96867 268.793 5.656C268.49 5.34333 268.07 5.187 267.533 5.187C267.057 5.187 266.668 5.26867 266.364 5.432C266.061 5.59533 265.758 5.85667 265.454 6.216L264.642 5.586C265.025 5.11933 265.45 4.774 265.916 4.55C266.383 4.32133 266.941 4.207 267.589 4.207ZM276.908 4.207C277.281 4.207 277.624 4.256 277.937 4.354C278.25 4.44733 278.541 4.585 278.812 4.767L278.35 5.565C278.131 5.42967 277.897 5.32933 277.65 5.264C277.407 5.194 277.153 5.159 276.887 5.159C276.374 5.159 275.937 5.33167 275.578 5.677C275.219 6.01767 274.948 6.50067 274.766 7.126C274.584 7.74667 274.495 8.477 274.5 9.317L274.514 9.772C274.514 10.9573 274.67 11.8277 274.983 12.383C275.296 12.9337 275.807 13.209 276.516 13.209C277.127 13.209 277.585 12.992 277.888 12.558C278.196 12.124 278.35 11.5337 278.35 10.787C278.35 9.99367 278.194 9.44533 277.881 9.142C277.568 8.83867 277.155 8.687 276.642 8.687C276.143 8.687 275.702 8.83633 275.319 9.135C274.936 9.43367 274.626 9.81633 274.388 10.283L274.36 9.247C274.677 8.70567 275.039 8.316 275.445 8.078C275.851 7.84 276.311 7.721 276.824 7.721C277.323 7.721 277.778 7.83067 278.189 8.05C278.6 8.26933 278.929 8.60533 279.176 9.058C279.428 9.506 279.554 10.073 279.554 10.759C279.554 11.4683 279.419 12.0773 279.148 12.586C278.877 13.09 278.511 13.4797 278.049 13.755C277.587 14.0257 277.078 14.161 276.523 14.161C275.935 14.161 275.438 14.0513 275.032 13.832C274.626 13.608 274.297 13.2907 274.045 12.88C273.793 12.4647 273.609 11.9677 273.492 11.389C273.38 10.8057 273.324 10.157 273.324 9.443C273.324 8.379 273.464 7.455 273.744 6.671C274.029 5.887 274.437 5.28033 274.969 4.851C275.506 4.42167 276.152 4.207 276.908 4.207ZM287.423 4.361L287.248 5.299H283.44V8.337C283.734 8.17833 284.012 8.071 284.273 8.015C284.539 7.95433 284.817 7.924 285.106 7.924C285.629 7.924 286.089 8.043 286.485 8.281C286.882 8.51433 287.19 8.85733 287.409 9.31C287.629 9.76267 287.738 10.3087 287.738 10.948C287.738 11.5873 287.603 12.1497 287.332 12.635C287.066 13.1203 286.691 13.496 286.205 13.762C285.72 14.028 285.144 14.161 284.476 14.161C283.898 14.161 283.38 14.0583 282.922 13.853C282.47 13.6477 282.057 13.363 281.683 12.999L282.411 12.299C282.705 12.5977 283.02 12.8217 283.356 12.971C283.697 13.1157 284.075 13.188 284.49 13.188C285.125 13.188 285.62 12.9967 285.974 12.614C286.329 12.2267 286.506 11.6597 286.506 10.913C286.506 10.395 286.429 9.98667 286.275 9.688C286.121 9.38933 285.911 9.177 285.645 9.051C285.384 8.92033 285.092 8.855 284.77 8.855C284.486 8.855 284.234 8.883 284.014 8.939C283.795 8.99033 283.545 9.06967 283.265 9.177H282.32V4.361H287.423Z" fill="black"/>
<path d="M333.575 4.207C334.182 4.207 334.705 4.31667 335.143 4.536C335.587 4.75067 335.93 5.04233 336.172 5.411C336.415 5.775 336.536 6.17633 336.536 6.615C336.536 7.00233 336.45 7.35467 336.277 7.672C336.105 7.98933 335.876 8.25067 335.591 8.456C335.307 8.66133 334.994 8.79667 334.653 8.862C335.031 8.89 335.386 8.99733 335.717 9.184C336.049 9.366 336.319 9.62733 336.529 9.968C336.739 10.304 336.844 10.7217 336.844 11.221C336.844 11.7763 336.704 12.278 336.424 12.726C336.144 13.1693 335.752 13.5193 335.248 13.776C334.749 14.0327 334.166 14.161 333.498 14.161C332.962 14.161 332.425 14.0583 331.888 13.853C331.356 13.6477 330.906 13.321 330.537 12.873L331.328 12.229C331.604 12.551 331.93 12.7913 332.308 12.95C332.691 13.1087 333.078 13.188 333.47 13.188C334.142 13.188 334.667 13.013 335.045 12.663C335.423 12.3083 335.612 11.8277 335.612 11.221C335.612 10.7637 335.524 10.402 335.346 10.136C335.174 9.87 334.938 9.681 334.639 9.569C334.341 9.45233 334 9.394 333.617 9.394H332.805L332.952 8.463H333.519C333.832 8.463 334.126 8.40467 334.401 8.288C334.681 8.16667 334.91 7.98 335.087 7.728C335.265 7.476 335.353 7.161 335.353 6.783C335.353 6.251 335.176 5.845 334.821 5.565C334.467 5.285 334.037 5.145 333.533 5.145C333.113 5.145 332.747 5.21967 332.434 5.369C332.122 5.51367 331.807 5.73533 331.489 6.034L330.838 5.313C331.249 4.92567 331.685 4.64567 332.147 4.473C332.609 4.29567 333.085 4.207 333.575 4.207ZM343.44 4.361V13.72H342.264V5.635L340.052 6.979L339.541 6.139L342.411 4.361H343.44ZM345.456 13.041V14H339.891V13.041H345.456ZM353.423 4.361L353.248 5.299H349.44V8.337C349.734 8.17833 350.012 8.071 350.273 8.015C350.539 7.95433 350.817 7.924 351.106 7.924C351.629 7.924 352.089 8.043 352.485 8.281C352.882 8.51433 353.19 8.85733 353.409 9.31C353.629 9.76267 353.738 10.3087 353.738 10.948C353.738 11.5873 353.603 12.1497 353.332 12.635C353.066 13.1203 352.691 13.496 352.205 13.762C351.72 14.028 351.144 14.161 350.476 14.161C349.898 14.161 349.38 14.0583 348.922 13.853C348.47 13.6477 348.057 13.363 347.683 12.999L348.411 12.299C348.705 12.5977 349.02 12.8217 349.356 12.971C349.697 13.1157 350.075 13.188 350.49 13.188C351.125 13.188 351.62 12.9967 351.974 12.614C352.329 12.2267 352.506 11.6597 352.506 10.913C352.506 10.395 352.429 9.98667 352.275 9.688C352.121 9.38933 351.911 9.177 351.645 9.051C351.384 8.92033 351.092 8.855 350.77 8.855C350.486 8.855 350.234 8.883 350.014 8.939C349.795 8.99033 349.545 9.06967 349.265 9.177H348.32V4.361H353.423Z" fill="black"/>
<path d="M399.575 5.207C400.182 5.207 400.705 5.31667 401.143 5.536C401.587 5.75067 401.93 6.04233 402.172 6.411C402.415 6.775 402.536 7.17633 402.536 7.615C402.536 8.00233 402.45 8.35467 402.277 8.672C402.105 8.98933 401.876 9.25067 401.591 9.456C401.307 9.66133 400.994 9.79667 400.653 9.862C401.031 9.89 401.386 9.99733 401.717 10.184C402.049 10.366 402.319 10.6273 402.529 10.968C402.739 11.304 402.844 11.7217 402.844 12.221C402.844 12.7763 402.704 13.278 402.424 13.726C402.144 14.1693 401.752 14.5193 401.248 14.776C400.749 15.0327 400.166 15.161 399.498 15.161C398.962 15.161 398.425 15.0583 397.888 14.853C397.356 14.6477 396.906 14.321 396.537 13.873L397.328 13.229C397.604 13.551 397.93 13.7913 398.308 13.95C398.691 14.1087 399.078 14.188 399.47 14.188C400.142 14.188 400.667 14.013 401.045 13.663C401.423 13.3083 401.612 12.8277 401.612 12.221C401.612 11.7637 401.524 11.402 401.346 11.136C401.174 10.87 400.938 10.681 400.639 10.569C400.341 10.4523 400 10.394 399.617 10.394H398.805L398.952 9.463H399.519C399.832 9.463 400.126 9.40467 400.401 9.288C400.681 9.16667 400.91 8.98 401.087 8.728C401.265 8.476 401.353 8.161 401.353 7.783C401.353 7.251 401.176 6.845 400.821 6.565C400.467 6.285 400.037 6.145 399.533 6.145C399.113 6.145 398.747 6.21967 398.434 6.369C398.122 6.51367 397.807 6.73533 397.489 7.034L396.838 6.313C397.249 5.92567 397.685 5.64567 398.147 5.473C398.609 5.29567 399.085 5.207 399.575 5.207ZM408.908 5.207C409.281 5.207 409.624 5.256 409.937 5.354C410.25 5.44733 410.541 5.585 410.812 5.767L410.35 6.565C410.131 6.42967 409.897 6.32933 409.65 6.264C409.407 6.194 409.153 6.159 408.887 6.159C408.374 6.159 407.937 6.33167 407.578 6.677C407.219 7.01767 406.948 7.50067 406.766 8.126C406.584 8.74667 406.495 9.477 406.5 10.317L406.514 10.772C406.514 11.9573 406.67 12.8277 406.983 13.383C407.296 13.9337 407.807 14.209 408.516 14.209C409.127 14.209 409.585 13.992 409.888 13.558C410.196 13.124 410.35 12.5337 410.35 11.787C410.35 10.9937 410.194 10.4453 409.881 10.142C409.568 9.83867 409.155 9.687 408.642 9.687C408.143 9.687 407.702 9.83633 407.319 10.135C406.936 10.4337 406.626 10.8163 406.388 11.283L406.36 10.247C406.677 9.70567 407.039 9.316 407.445 9.078C407.851 8.84 408.311 8.721 408.824 8.721C409.323 8.721 409.778 8.83067 410.189 9.05C410.6 9.26933 410.929 9.60533 411.176 10.058C411.428 10.506 411.554 11.073 411.554 11.759C411.554 12.4683 411.419 13.0773 411.148 13.586C410.877 14.09 410.511 14.4797 410.049 14.755C409.587 15.0257 409.078 15.161 408.523 15.161C407.935 15.161 407.438 15.0513 407.032 14.832C406.626 14.608 406.297 14.2907 406.045 13.88C405.793 13.4647 405.609 12.9677 405.492 12.389C405.38 11.8057 405.324 11.157 405.324 10.443C405.324 9.379 405.464 8.455 405.744 7.671C406.029 6.887 406.437 6.28033 406.969 5.851C407.506 5.42167 408.152 5.207 408.908 5.207ZM419.423 5.361L419.248 6.299H415.44V9.337C415.734 9.17833 416.012 9.071 416.273 9.015C416.539 8.95433 416.817 8.924 417.106 8.924C417.629 8.924 418.089 9.043 418.485 9.281C418.882 9.51433 419.19 9.85733 419.409 10.31C419.629 10.7627 419.738 11.3087 419.738 11.948C419.738 12.5873 419.603 13.1497 419.332 13.635C419.066 14.1203 418.691 14.496 418.205 14.762C417.72 15.028 417.144 15.161 416.476 15.161C415.898 15.161 415.38 15.0583 414.922 14.853C414.47 14.6477 414.057 14.363 413.683 13.999L414.411 13.299C414.705 13.5977 415.02 13.8217 415.356 13.971C415.697 14.1157 416.075 14.188 416.49 14.188C417.125 14.188 417.62 13.9967 417.974 13.614C418.329 13.2267 418.506 12.6597 418.506 11.913C418.506 11.395 418.429 10.9867 418.275 10.688C418.121 10.3893 417.911 10.177 417.645 10.051C417.384 9.92033 417.092 9.855 416.77 9.855C416.486 9.855 416.234 9.883 416.014 9.939C415.795 9.99033 415.545 10.0697 415.265 10.177H414.32V5.361H419.423Z" fill="black"/>
<path d="M465.652 5.207L466.632 5.62L464.07 11.717H469.215V12.655H462.824V11.801L465.652 5.207ZM467.969 8.98V15H466.835L466.828 11.941L466.989 8.98H467.969ZM475.44 5.361V14.72H474.264V6.635L472.052 7.979L471.541 7.139L474.411 5.361H475.44ZM477.456 14.041V15H471.891V14.041H477.456ZM485.423 5.361L485.248 6.299H481.44V9.337C481.734 9.17833 482.012 9.071 482.273 9.015C482.539 8.95433 482.817 8.924 483.106 8.924C483.629 8.924 484.089 9.043 484.485 9.281C484.882 9.51433 485.19 9.85733 485.409 10.31C485.629 10.7627 485.738 11.3087 485.738 11.948C485.738 12.5873 485.603 13.1497 485.332 13.635C485.066 14.1203 484.691 14.496 484.205 14.762C483.72 15.028 483.144 15.161 482.476 15.161C481.898 15.161 481.38 15.0583 480.922 14.853C480.47 14.6477 480.057 14.363 479.683 13.999L480.411 13.299C480.705 13.5977 481.02 13.8217 481.356 13.971C481.697 14.1157 482.075 14.188 482.49 14.188C483.125 14.188 483.62 13.9967 483.974 13.614C484.329 13.2267 484.506 12.6597 484.506 11.913C484.506 11.395 484.429 10.9867 484.275 10.688C484.121 10.3893 483.911 10.177 483.645 10.051C483.384 9.92033 483.092 9.855 482.77 9.855C482.486 9.855 482.234 9.883 482.014 9.939C481.795 9.99033 481.545 10.0697 481.265 10.177H480.32V5.361H485.423Z" fill="black"/>
<path d="M532.652 4.207L533.632 4.62L531.07 10.717H536.215V11.655H529.824V10.801L532.652 4.207ZM534.969 7.98V14H533.835L533.828 10.941L533.989 7.98H534.969ZM541.908 4.207C542.281 4.207 542.624 4.256 542.937 4.354C543.25 4.44733 543.541 4.585 543.812 4.767L543.35 5.565C543.131 5.42967 542.897 5.32933 542.65 5.264C542.407 5.194 542.153 5.159 541.887 5.159C541.374 5.159 540.937 5.33167 540.578 5.677C540.219 6.01767 539.948 6.50067 539.766 7.126C539.584 7.74667 539.495 8.477 539.5 9.317L539.514 9.772C539.514 10.9573 539.67 11.8277 539.983 12.383C540.296 12.9337 540.807 13.209 541.516 13.209C542.127 13.209 542.585 12.992 542.888 12.558C543.196 12.124 543.35 11.5337 543.35 10.787C543.35 9.99367 543.194 9.44533 542.881 9.142C542.568 8.83867 542.155 8.687 541.642 8.687C541.143 8.687 540.702 8.83633 540.319 9.135C539.936 9.43367 539.626 9.81633 539.388 10.283L539.36 9.247C539.677 8.70567 540.039 8.316 540.445 8.078C540.851 7.84 541.311 7.721 541.824 7.721C542.323 7.721 542.778 7.83067 543.189 8.05C543.6 8.26933 543.929 8.60533 544.176 9.058C544.428 9.506 544.554 10.073 544.554 10.759C544.554 11.4683 544.419 12.0773 544.148 12.586C543.877 13.09 543.511 13.4797 543.049 13.755C542.587 14.0257 542.078 14.161 541.523 14.161C540.935 14.161 540.438 14.0513 540.032 13.832C539.626 13.608 539.297 13.2907 539.045 12.88C538.793 12.4647 538.609 11.9677 538.492 11.389C538.38 10.8057 538.324 10.157 538.324 9.443C538.324 8.379 538.464 7.455 538.744 6.671C539.029 5.887 539.437 5.28033 539.969 4.851C540.506 4.42167 541.152 4.207 541.908 4.207ZM552.423 4.361L552.248 5.299H548.44V8.337C548.734 8.17833 549.012 8.071 549.273 8.015C549.539 7.95433 549.817 7.924 550.106 7.924C550.629 7.924 551.089 8.043 551.485 8.281C551.882 8.51433 552.19 8.85733 552.409 9.31C552.629 9.76267 552.738 10.3087 552.738 10.948C552.738 11.5873 552.603 12.1497 552.332 12.635C552.066 13.1203 551.691 13.496 551.205 13.762C550.72 14.028 550.144 14.161 549.476 14.161C548.898 14.161 548.38 14.0583 547.922 13.853C547.47 13.6477 547.057 13.363 546.683 12.999L547.411 12.299C547.705 12.5977 548.02 12.8217 548.356 12.971C548.697 13.1157 549.075 13.188 549.49 13.188C550.125 13.188 550.62 12.9967 550.974 12.614C551.329 12.2267 551.506 11.6597 551.506 10.913C551.506 10.395 551.429 9.98667 551.275 9.688C551.121 9.38933 550.911 9.177 550.645 9.051C550.384 8.92033 550.092 8.855 549.77 8.855C549.486 8.855 549.234 8.883 549.014 8.939C548.795 8.99033 548.545 9.06967 548.265 9.177H547.32V4.361H552.423Z" fill="black"/>
<path d="M603.634 4.361L603.459 5.299H599.651V8.337C599.945 8.17833 600.223 8.071 600.484 8.015C600.75 7.95433 601.028 7.924 601.317 7.924C601.84 7.924 602.3 8.043 602.696 8.281C603.093 8.51433 603.401 8.85733 603.62 9.31C603.84 9.76267 603.949 10.3087 603.949 10.948C603.949 11.5873 603.814 12.1497 603.543 12.635C603.277 13.1203 602.902 13.496 602.416 13.762C601.931 14.028 601.355 14.161 600.687 14.161C600.109 14.161 599.591 14.0583 599.133 13.853C598.681 13.6477 598.268 13.363 597.894 12.999L598.622 12.299C598.916 12.5977 599.231 12.8217 599.567 12.971C599.908 13.1157 600.286 13.188 600.701 13.188C601.336 13.188 601.831 12.9967 602.185 12.614C602.54 12.2267 602.717 11.6597 602.717 10.913C602.717 10.395 602.64 9.98667 602.486 9.688C602.332 9.38933 602.122 9.177 601.856 9.051C601.595 8.92033 601.303 8.855 600.981 8.855C600.697 8.855 600.445 8.883 600.225 8.939C600.006 8.99033 599.756 9.06967 599.476 9.177H598.531V4.361H603.634ZM610.44 4.361V13.72H609.264V5.635L607.052 6.979L606.541 6.139L609.411 4.361H610.44ZM612.456 13.041V14H606.891V13.041H612.456ZM620.423 4.361L620.248 5.299H616.44V8.337C616.734 8.17833 617.012 8.071 617.273 8.015C617.539 7.95433 617.817 7.924 618.106 7.924C618.629 7.924 619.089 8.043 619.485 8.281C619.882 8.51433 620.19 8.85733 620.409 9.31C620.629 9.76267 620.738 10.3087 620.738 10.948C620.738 11.5873 620.603 12.1497 620.332 12.635C620.066 13.1203 619.691 13.496 619.205 13.762C618.72 14.028 618.144 14.161 617.476 14.161C616.898 14.161 616.38 14.0583 615.922 13.853C615.47 13.6477 615.057 13.363 614.683 12.999L615.411 12.299C615.705 12.5977 616.02 12.8217 616.356 12.971C616.697 13.1157 617.075 13.188 617.49 13.188C618.125 13.188 618.62 12.9967 618.974 12.614C619.329 12.2267 619.506 11.6597 619.506 10.913C619.506 10.395 619.429 9.98667 619.275 9.688C619.121 9.38933 618.911 9.177 618.645 9.051C618.384 8.92033 618.092 8.855 617.77 8.855C617.486 8.855 617.234 8.883 617.014 8.939C616.795 8.99033 616.545 9.06967 616.265 9.177H615.32V4.361H620.423Z" fill="black"/>
<path d="M668.634 4.361L668.459 5.299H664.651V8.337C664.945 8.17833 665.223 8.071 665.484 8.015C665.75 7.95433 666.028 7.924 666.317 7.924C666.84 7.924 667.3 8.043 667.696 8.281C668.093 8.51433 668.401 8.85733 668.62 9.31C668.84 9.76267 668.949 10.3087 668.949 10.948C668.949 11.5873 668.814 12.1497 668.543 12.635C668.277 13.1203 667.902 13.496 667.416 13.762C666.931 14.028 666.355 14.161 665.687 14.161C665.109 14.161 664.591 14.0583 664.133 13.853C663.681 13.6477 663.268 13.363 662.894 12.999L663.622 12.299C663.916 12.5977 664.231 12.8217 664.567 12.971C664.908 13.1157 665.286 13.188 665.701 13.188C666.336 13.188 666.831 12.9967 667.185 12.614C667.54 12.2267 667.717 11.6597 667.717 10.913C667.717 10.395 667.64 9.98667 667.486 9.688C667.332 9.38933 667.122 9.177 666.856 9.051C666.595 8.92033 666.303 8.855 665.981 8.855C665.697 8.855 665.445 8.883 665.225 8.939C665.006 8.99033 664.756 9.06967 664.476 9.177H663.531V4.361H668.634ZM674.908 4.207C675.281 4.207 675.624 4.256 675.937 4.354C676.25 4.44733 676.541 4.585 676.812 4.767L676.35 5.565C676.131 5.42967 675.897 5.32933 675.65 5.264C675.407 5.194 675.153 5.159 674.887 5.159C674.374 5.159 673.937 5.33167 673.578 5.677C673.219 6.01767 672.948 6.50067 672.766 7.126C672.584 7.74667 672.495 8.477 672.5 9.317L672.514 9.772C672.514 10.9573 672.67 11.8277 672.983 12.383C673.296 12.9337 673.807 13.209 674.516 13.209C675.127 13.209 675.585 12.992 675.888 12.558C676.196 12.124 676.35 11.5337 676.35 10.787C676.35 9.99367 676.194 9.44533 675.881 9.142C675.568 8.83867 675.155 8.687 674.642 8.687C674.143 8.687 673.702 8.83633 673.319 9.135C672.936 9.43367 672.626 9.81633 672.388 10.283L672.36 9.247C672.677 8.70567 673.039 8.316 673.445 8.078C673.851 7.84 674.311 7.721 674.824 7.721C675.323 7.721 675.778 7.83067 676.189 8.05C676.6 8.26933 676.929 8.60533 677.176 9.058C677.428 9.506 677.554 10.073 677.554 10.759C677.554 11.4683 677.419 12.0773 677.148 12.586C676.877 13.09 676.511 13.4797 676.049 13.755C675.587 14.0257 675.078 14.161 674.523 14.161C673.935 14.161 673.438 14.0513 673.032 13.832C672.626 13.608 672.297 13.2907 672.045 12.88C671.793 12.4647 671.609 11.9677 671.492 11.389C671.38 10.8057 671.324 10.157 671.324 9.443C671.324 8.379 671.464 7.455 671.744 6.671C672.029 5.887 672.437 5.28033 672.969 4.851C673.506 4.42167 674.152 4.207 674.908 4.207ZM685.423 4.361L685.248 5.299H681.44V8.337C681.734 8.17833 682.012 8.071 682.273 8.015C682.539 7.95433 682.817 7.924 683.106 7.924C683.629 7.924 684.089 8.043 684.485 8.281C684.882 8.51433 685.19 8.85733 685.409 9.31C685.629 9.76267 685.738 10.3087 685.738 10.948C685.738 11.5873 685.603 12.1497 685.332 12.635C685.066 13.1203 684.691 13.496 684.205 13.762C683.72 14.028 683.144 14.161 682.476 14.161C681.898 14.161 681.38 14.0583 680.922 13.853C680.47 13.6477 680.057 13.363 679.683 12.999L680.411 12.299C680.705 12.5977 681.02 12.8217 681.356 12.971C681.697 13.1157 682.075 13.188 682.49 13.188C683.125 13.188 683.62 12.9967 683.974 12.614C684.329 12.2267 684.506 11.6597 684.506 10.913C684.506 10.395 684.429 9.98667 684.275 9.688C684.121 9.38933 683.911 9.177 683.645 9.051C683.384 8.92033 683.092 8.855 682.77 8.855C682.486 8.855 682.234 8.883 682.014 8.939C681.795 8.99033 681.545 9.06967 681.265 9.177H680.32V4.361H685.423Z" fill="black"/>
</svg>
