<svg width="687" height="39" viewBox="0 0 687 39" fill="none" xmlns="http://www.w3.org/2000/svg">
<line x1="10" y1="4.37114e-08" x2="10" y2="15" stroke="black" stroke-width="2"/>
<line x1="77" y1="3.34569e-08" x2="77" y2="15" stroke="black" stroke-width="2"/>
<line x1="77" y1="3.34569e-08" x2="77" y2="15" stroke="black" stroke-width="2"/>
<line x1="142" y1="3.34118e-08" x2="142" y2="15" stroke="black" stroke-width="2"/>
<line x1="142" y1="3.34118e-08" x2="142" y2="15" stroke="black" stroke-width="2"/>
<line x1="210" y1="3.29855e-08" x2="210" y2="15" stroke="black" stroke-width="2"/>
<line x1="210" y1="3.29855e-08" x2="210" y2="15" stroke="black" stroke-width="2"/>
<line x1="277" y1="3.28918e-08" x2="277" y2="15" stroke="black" stroke-width="2"/>
<line x1="277" y1="3.28918e-08" x2="277" y2="15" stroke="black" stroke-width="2"/>
<line x1="343" y1="3.28882e-08" x2="343" y2="15" stroke="black" stroke-width="2"/>
<line x1="343" y1="3.28882e-08" x2="343" y2="15" stroke="black" stroke-width="2"/>
<line x1="409" y1="3.29864e-08" x2="409" y2="15" stroke="black" stroke-width="2"/>
<line x1="409" y1="3.29864e-08" x2="409" y2="15" stroke="black" stroke-width="2"/>
<line x1="475" y1="3.29828e-08" x2="475" y2="15" stroke="black" stroke-width="2"/>
<line x1="475" y1="3.29828e-08" x2="475" y2="15" stroke="black" stroke-width="2"/>
<line x1="542" y1="3.29378e-08" x2="542" y2="15" stroke="black" stroke-width="2"/>
<line x1="542" y1="3.29378e-08" x2="542" y2="15" stroke="black" stroke-width="2"/>
<line x1="610" y1="3.28433e-08" x2="610" y2="15" stroke="black" stroke-width="2"/>
<line x1="610" y1="3.28433e-08" x2="610" y2="15" stroke="black" stroke-width="2"/>
<line x1="675" y1="3.28433e-08" x2="675" y2="15" stroke="black" stroke-width="2"/>
<line x1="675" y1="3.28433e-08" x2="675" y2="15" stroke="black" stroke-width="2"/>
<path d="M4.90794 24.207C5.28127 24.207 5.62427 24.256 5.93694 24.354C6.2496 24.4473 6.54127 24.585 6.81194 24.767L6.34994 25.565C6.1306 25.4297 5.89727 25.3293 5.64994 25.264C5.40727 25.194 5.15294 25.159 4.88694 25.159C4.3736 25.159 3.93727 25.3317 3.57794 25.677C3.2186 26.0177 2.94794 26.5007 2.76594 27.126C2.58394 27.7467 2.49527 28.477 2.49994 29.317L2.51394 29.772C2.51394 30.9573 2.67027 31.8277 2.98294 32.383C3.2956 32.9337 3.8066 33.209 4.51594 33.209C5.12727 33.209 5.5846 32.992 5.88794 32.558C6.19594 32.124 6.34994 31.5337 6.34994 30.787C6.34994 29.9937 6.1936 29.4453 5.88094 29.142C5.56827 28.8387 5.15527 28.687 4.64194 28.687C4.1426 28.687 3.7016 28.8363 3.31894 29.135C2.93627 29.4337 2.62594 29.8163 2.38794 30.283L2.35994 29.247C2.67727 28.7057 3.03894 28.316 3.44494 28.078C3.85094 27.84 4.3106 27.721 4.82394 27.721C5.32327 27.721 5.77827 27.8307 6.18894 28.05C6.5996 28.2693 6.9286 28.6053 7.17594 29.058C7.42794 29.506 7.55394 30.073 7.55394 30.759C7.55394 31.4683 7.4186 32.0773 7.14794 32.586C6.87727 33.09 6.51094 33.4797 6.04894 33.755C5.58694 34.0257 5.07827 34.161 4.52294 34.161C3.93494 34.161 3.43794 34.0513 3.03194 33.832C2.62594 33.608 2.29694 33.2907 2.04494 32.88C1.79294 32.4647 1.6086 31.9677 1.49194 31.389C1.37994 30.8057 1.32394 30.157 1.32394 29.443C1.32394 28.379 1.46394 27.455 1.74394 26.671C2.0286 25.887 2.43694 25.2803 2.96894 24.851C3.5056 24.4217 4.15194 24.207 4.90794 24.207ZM15.4235 24.361L15.2485 25.299H11.4405V28.337C11.7345 28.1783 12.0121 28.071 12.2735 28.015C12.5395 27.9543 12.8171 27.924 13.1065 27.924C13.6291 27.924 14.0888 28.043 14.4855 28.281C14.8821 28.5143 15.1901 28.8573 15.4095 29.31C15.6288 29.7627 15.7385 30.3087 15.7385 30.948C15.7385 31.5873 15.6031 32.1497 15.3325 32.635C15.0665 33.1203 14.6908 33.496 14.2055 33.762C13.7201 34.028 13.1438 34.161 12.4765 34.161C11.8978 34.161 11.3798 34.0583 10.9225 33.853C10.4698 33.6477 10.0568 33.363 9.68347 32.999L10.4115 32.299C10.7055 32.5977 11.0205 32.8217 11.3565 32.971C11.6971 33.1157 12.0751 33.188 12.4905 33.188C13.1251 33.188 13.6198 32.9967 13.9745 32.614C14.3291 32.2267 14.5065 31.6597 14.5065 30.913C14.5065 30.395 14.4295 29.9867 14.2755 29.688C14.1215 29.3893 13.9115 29.177 13.6455 29.051C13.3841 28.9203 13.0925 28.855 12.7705 28.855C12.4858 28.855 12.2338 28.883 12.0145 28.939C11.7951 28.9903 11.5455 29.0697 11.2655 29.177H10.3205V24.361H15.4235Z" fill="black"/>
<path d="M69.0454 24.361V33.72H67.8694V25.635L65.6574 26.979L65.1464 26.139L68.0164 24.361H69.0454ZM71.0614 33.041V34H65.4964V33.041H71.0614ZM77.4399 24.361V33.72H76.2639V25.635L74.0519 26.979L73.5409 26.139L76.4109 24.361H77.4399ZM79.4559 33.041V34H73.8909V33.041H79.4559ZM87.4235 24.361L87.2485 25.299H83.4405V28.337C83.7345 28.1783 84.0121 28.071 84.2735 28.015C84.5395 27.9543 84.8171 27.924 85.1065 27.924C85.6291 27.924 86.0888 28.043 86.4855 28.281C86.8821 28.5143 87.1901 28.8573 87.4095 29.31C87.6288 29.7627 87.7385 30.3087 87.7385 30.948C87.7385 31.5873 87.6031 32.1497 87.3325 32.635C87.0665 33.1203 86.6908 33.496 86.2055 33.762C85.7201 34.028 85.1438 34.161 84.4765 34.161C83.8978 34.161 83.3798 34.0583 82.9225 33.853C82.4698 33.6477 82.0568 33.363 81.6835 32.999L82.4115 32.299C82.7055 32.5977 83.0205 32.8217 83.3565 32.971C83.6971 33.1157 84.0751 33.188 84.4905 33.188C85.1251 33.188 85.6198 32.9967 85.9745 32.614C86.3291 32.2267 86.5065 31.6597 86.5065 30.913C86.5065 30.395 86.4295 29.9867 86.2755 29.688C86.1215 29.3893 85.9115 29.177 85.6455 29.051C85.3841 28.9203 85.0925 28.855 84.7705 28.855C84.4858 28.855 84.2338 28.883 84.0145 28.939C83.7951 28.9903 83.5455 29.0697 83.2655 29.177H82.3205V24.361H87.4235Z" fill="black"/>
<path d="M134.045 24.361V33.72H132.869V25.635L130.657 26.979L130.146 26.139L133.016 24.361H134.045ZM136.061 33.041V34H130.496V33.041H136.061ZM141.908 24.207C142.281 24.207 142.624 24.256 142.937 24.354C143.25 24.4473 143.541 24.585 143.812 24.767L143.35 25.565C143.131 25.4297 142.897 25.3293 142.65 25.264C142.407 25.194 142.153 25.159 141.887 25.159C141.374 25.159 140.937 25.3317 140.578 25.677C140.219 26.0177 139.948 26.5007 139.766 27.126C139.584 27.7467 139.495 28.477 139.5 29.317L139.514 29.772C139.514 30.9573 139.67 31.8277 139.983 32.383C140.296 32.9337 140.807 33.209 141.516 33.209C142.127 33.209 142.585 32.992 142.888 32.558C143.196 32.124 143.35 31.5337 143.35 30.787C143.35 29.9937 143.194 29.4453 142.881 29.142C142.568 28.8387 142.155 28.687 141.642 28.687C141.143 28.687 140.702 28.8363 140.319 29.135C139.936 29.4337 139.626 29.8163 139.388 30.283L139.36 29.247C139.677 28.7057 140.039 28.316 140.445 28.078C140.851 27.84 141.311 27.721 141.824 27.721C142.323 27.721 142.778 27.8307 143.189 28.05C143.6 28.2693 143.929 28.6053 144.176 29.058C144.428 29.506 144.554 30.073 144.554 30.759C144.554 31.4683 144.419 32.0773 144.148 32.586C143.877 33.09 143.511 33.4797 143.049 33.755C142.587 34.0257 142.078 34.161 141.523 34.161C140.935 34.161 140.438 34.0513 140.032 33.832C139.626 33.608 139.297 33.2907 139.045 32.88C138.793 32.4647 138.609 31.9677 138.492 31.389C138.38 30.8057 138.324 30.157 138.324 29.443C138.324 28.379 138.464 27.455 138.744 26.671C139.029 25.887 139.437 25.2803 139.969 24.851C140.506 24.4217 141.152 24.207 141.908 24.207ZM152.423 24.361L152.248 25.299H148.44V28.337C148.734 28.1783 149.012 28.071 149.273 28.015C149.539 27.9543 149.817 27.924 150.106 27.924C150.629 27.924 151.089 28.043 151.485 28.281C151.882 28.5143 152.19 28.8573 152.409 29.31C152.629 29.7627 152.738 30.3087 152.738 30.948C152.738 31.5873 152.603 32.1497 152.332 32.635C152.066 33.1203 151.691 33.496 151.205 33.762C150.72 34.028 150.144 34.161 149.476 34.161C148.898 34.161 148.38 34.0583 147.922 33.853C147.47 33.6477 147.057 33.363 146.683 32.999L147.411 32.299C147.705 32.5977 148.02 32.8217 148.356 32.971C148.697 33.1157 149.075 33.188 149.49 33.188C150.125 33.188 150.62 32.9967 150.974 32.614C151.329 32.2267 151.506 31.6597 151.506 30.913C151.506 30.395 151.429 29.9867 151.275 29.688C151.121 29.3893 150.911 29.177 150.645 29.051C150.384 28.9203 150.092 28.855 149.77 28.855C149.486 28.855 149.234 28.883 149.014 28.939C148.795 28.9903 148.545 29.0697 148.265 29.177H147.32V24.361H152.423Z" fill="black"/>
<path d="M200.589 24.207C201.196 24.207 201.714 24.3237 202.143 24.557C202.577 24.7903 202.911 25.11 203.144 25.516C203.378 25.922 203.494 26.3817 203.494 26.895C203.494 27.3383 203.417 27.7723 203.263 28.197C203.109 28.617 202.862 29.0603 202.521 29.527C202.185 29.989 201.742 30.5023 201.191 31.067C200.645 31.6317 199.973 32.2757 199.175 32.999H203.718L203.571 34H197.838V33.041C198.566 32.3457 199.185 31.7367 199.693 31.214C200.207 30.6913 200.629 30.234 200.96 29.842C201.296 29.4453 201.558 29.086 201.744 28.764C201.936 28.442 202.069 28.1363 202.143 27.847C202.218 27.553 202.255 27.2497 202.255 26.937C202.255 26.3957 202.101 25.9687 201.793 25.656C201.49 25.3433 201.07 25.187 200.533 25.187C200.057 25.187 199.668 25.2687 199.364 25.432C199.061 25.5953 198.758 25.8567 198.454 26.216L197.642 25.586C198.025 25.1193 198.45 24.774 198.916 24.55C199.383 24.3213 199.941 24.207 200.589 24.207ZM210.44 24.361V33.72H209.264V25.635L207.052 26.979L206.541 26.139L209.411 24.361H210.44ZM212.456 33.041V34H206.891V33.041H212.456ZM220.423 24.361L220.248 25.299H216.44V28.337C216.734 28.1783 217.012 28.071 217.273 28.015C217.539 27.9543 217.817 27.924 218.106 27.924C218.629 27.924 219.089 28.043 219.485 28.281C219.882 28.5143 220.19 28.8573 220.409 29.31C220.629 29.7627 220.738 30.3087 220.738 30.948C220.738 31.5873 220.603 32.1497 220.332 32.635C220.066 33.1203 219.691 33.496 219.205 33.762C218.72 34.028 218.144 34.161 217.476 34.161C216.898 34.161 216.38 34.0583 215.922 33.853C215.47 33.6477 215.057 33.363 214.683 32.999L215.411 32.299C215.705 32.5977 216.02 32.8217 216.356 32.971C216.697 33.1157 217.075 33.188 217.49 33.188C218.125 33.188 218.62 32.9967 218.974 32.614C219.329 32.2267 219.506 31.6597 219.506 30.913C219.506 30.395 219.429 29.9867 219.275 29.688C219.121 29.3893 218.911 29.177 218.645 29.051C218.384 28.9203 218.092 28.855 217.77 28.855C217.486 28.855 217.234 28.883 217.014 28.939C216.795 28.9903 216.545 29.0697 216.265 29.177H215.32V24.361H220.423Z" fill="black"/>
<path d="M267.589 24.207C268.196 24.207 268.714 24.3237 269.143 24.557C269.577 24.7903 269.911 25.11 270.144 25.516C270.378 25.922 270.494 26.3817 270.494 26.895C270.494 27.3383 270.417 27.7723 270.263 28.197C270.109 28.617 269.862 29.0603 269.521 29.527C269.185 29.989 268.742 30.5023 268.191 31.067C267.645 31.6317 266.973 32.2757 266.175 32.999H270.718L270.571 34H264.838V33.041C265.566 32.3457 266.185 31.7367 266.693 31.214C267.207 30.6913 267.629 30.234 267.96 29.842C268.296 29.4453 268.558 29.086 268.744 28.764C268.936 28.442 269.069 28.1363 269.143 27.847C269.218 27.553 269.255 27.2497 269.255 26.937C269.255 26.3957 269.101 25.9687 268.793 25.656C268.49 25.3433 268.07 25.187 267.533 25.187C267.057 25.187 266.668 25.2687 266.364 25.432C266.061 25.5953 265.758 25.8567 265.454 26.216L264.642 25.586C265.025 25.1193 265.45 24.774 265.916 24.55C266.383 24.3213 266.941 24.207 267.589 24.207ZM276.908 24.207C277.281 24.207 277.624 24.256 277.937 24.354C278.25 24.4473 278.541 24.585 278.812 24.767L278.35 25.565C278.131 25.4297 277.897 25.3293 277.65 25.264C277.407 25.194 277.153 25.159 276.887 25.159C276.374 25.159 275.937 25.3317 275.578 25.677C275.219 26.0177 274.948 26.5007 274.766 27.126C274.584 27.7467 274.495 28.477 274.5 29.317L274.514 29.772C274.514 30.9573 274.67 31.8277 274.983 32.383C275.296 32.9337 275.807 33.209 276.516 33.209C277.127 33.209 277.585 32.992 277.888 32.558C278.196 32.124 278.35 31.5337 278.35 30.787C278.35 29.9937 278.194 29.4453 277.881 29.142C277.568 28.8387 277.155 28.687 276.642 28.687C276.143 28.687 275.702 28.8363 275.319 29.135C274.936 29.4337 274.626 29.8163 274.388 30.283L274.36 29.247C274.677 28.7057 275.039 28.316 275.445 28.078C275.851 27.84 276.311 27.721 276.824 27.721C277.323 27.721 277.778 27.8307 278.189 28.05C278.6 28.2693 278.929 28.6053 279.176 29.058C279.428 29.506 279.554 30.073 279.554 30.759C279.554 31.4683 279.419 32.0773 279.148 32.586C278.877 33.09 278.511 33.4797 278.049 33.755C277.587 34.0257 277.078 34.161 276.523 34.161C275.935 34.161 275.438 34.0513 275.032 33.832C274.626 33.608 274.297 33.2907 274.045 32.88C273.793 32.4647 273.609 31.9677 273.492 31.389C273.38 30.8057 273.324 30.157 273.324 29.443C273.324 28.379 273.464 27.455 273.744 26.671C274.029 25.887 274.437 25.2803 274.969 24.851C275.506 24.4217 276.152 24.207 276.908 24.207ZM287.423 24.361L287.248 25.299H283.44V28.337C283.734 28.1783 284.012 28.071 284.273 28.015C284.539 27.9543 284.817 27.924 285.106 27.924C285.629 27.924 286.089 28.043 286.485 28.281C286.882 28.5143 287.19 28.8573 287.409 29.31C287.629 29.7627 287.738 30.3087 287.738 30.948C287.738 31.5873 287.603 32.1497 287.332 32.635C287.066 33.1203 286.691 33.496 286.205 33.762C285.72 34.028 285.144 34.161 284.476 34.161C283.898 34.161 283.38 34.0583 282.922 33.853C282.47 33.6477 282.057 33.363 281.683 32.999L282.411 32.299C282.705 32.5977 283.02 32.8217 283.356 32.971C283.697 33.1157 284.075 33.188 284.49 33.188C285.125 33.188 285.62 32.9967 285.974 32.614C286.329 32.2267 286.506 31.6597 286.506 30.913C286.506 30.395 286.429 29.9867 286.275 29.688C286.121 29.3893 285.911 29.177 285.645 29.051C285.384 28.9203 285.092 28.855 284.77 28.855C284.486 28.855 284.234 28.883 284.014 28.939C283.795 28.9903 283.545 29.0697 283.265 29.177H282.32V24.361H287.423Z" fill="black"/>
<path d="M333.575 24.207C334.182 24.207 334.705 24.3167 335.143 24.536C335.587 24.7507 335.93 25.0423 336.172 25.411C336.415 25.775 336.536 26.1763 336.536 26.615C336.536 27.0023 336.45 27.3547 336.277 27.672C336.105 27.9893 335.876 28.2507 335.591 28.456C335.307 28.6613 334.994 28.7967 334.653 28.862C335.031 28.89 335.386 28.9973 335.717 29.184C336.049 29.366 336.319 29.6273 336.529 29.968C336.739 30.304 336.844 30.7217 336.844 31.221C336.844 31.7763 336.704 32.278 336.424 32.726C336.144 33.1693 335.752 33.5193 335.248 33.776C334.749 34.0327 334.166 34.161 333.498 34.161C332.962 34.161 332.425 34.0583 331.888 33.853C331.356 33.6477 330.906 33.321 330.537 32.873L331.328 32.229C331.604 32.551 331.93 32.7913 332.308 32.95C332.691 33.1087 333.078 33.188 333.47 33.188C334.142 33.188 334.667 33.013 335.045 32.663C335.423 32.3083 335.612 31.8277 335.612 31.221C335.612 30.7637 335.524 30.402 335.346 30.136C335.174 29.87 334.938 29.681 334.639 29.569C334.341 29.4523 334 29.394 333.617 29.394H332.805L332.952 28.463H333.519C333.832 28.463 334.126 28.4047 334.401 28.288C334.681 28.1667 334.91 27.98 335.087 27.728C335.265 27.476 335.353 27.161 335.353 26.783C335.353 26.251 335.176 25.845 334.821 25.565C334.467 25.285 334.037 25.145 333.533 25.145C333.113 25.145 332.747 25.2197 332.434 25.369C332.122 25.5137 331.807 25.7353 331.489 26.034L330.838 25.313C331.249 24.9257 331.685 24.6457 332.147 24.473C332.609 24.2957 333.085 24.207 333.575 24.207ZM343.44 24.361V33.72H342.264V25.635L340.052 26.979L339.541 26.139L342.411 24.361H343.44ZM345.456 33.041V34H339.891V33.041H345.456ZM353.423 24.361L353.248 25.299H349.44V28.337C349.734 28.1783 350.012 28.071 350.273 28.015C350.539 27.9543 350.817 27.924 351.106 27.924C351.629 27.924 352.089 28.043 352.485 28.281C352.882 28.5143 353.19 28.8573 353.409 29.31C353.629 29.7627 353.738 30.3087 353.738 30.948C353.738 31.5873 353.603 32.1497 353.332 32.635C353.066 33.1203 352.691 33.496 352.205 33.762C351.72 34.028 351.144 34.161 350.476 34.161C349.898 34.161 349.38 34.0583 348.922 33.853C348.47 33.6477 348.057 33.363 347.683 32.999L348.411 32.299C348.705 32.5977 349.02 32.8217 349.356 32.971C349.697 33.1157 350.075 33.188 350.49 33.188C351.125 33.188 351.62 32.9967 351.974 32.614C352.329 32.2267 352.506 31.6597 352.506 30.913C352.506 30.395 352.429 29.9867 352.275 29.688C352.121 29.3893 351.911 29.177 351.645 29.051C351.384 28.9203 351.092 28.855 350.77 28.855C350.486 28.855 350.234 28.883 350.014 28.939C349.795 28.9903 349.545 29.0697 349.265 29.177H348.32V24.361H353.423Z" fill="black"/>
<path d="M399.575 25.207C400.182 25.207 400.705 25.3167 401.143 25.536C401.587 25.7507 401.93 26.0423 402.172 26.411C402.415 26.775 402.536 27.1763 402.536 27.615C402.536 28.0023 402.45 28.3547 402.277 28.672C402.105 28.9893 401.876 29.2507 401.591 29.456C401.307 29.6613 400.994 29.7967 400.653 29.862C401.031 29.89 401.386 29.9973 401.717 30.184C402.049 30.366 402.319 30.6273 402.529 30.968C402.739 31.304 402.844 31.7217 402.844 32.221C402.844 32.7763 402.704 33.278 402.424 33.726C402.144 34.1693 401.752 34.5193 401.248 34.776C400.749 35.0327 400.166 35.161 399.498 35.161C398.962 35.161 398.425 35.0583 397.888 34.853C397.356 34.6477 396.906 34.321 396.537 33.873L397.328 33.229C397.604 33.551 397.93 33.7913 398.308 33.95C398.691 34.1087 399.078 34.188 399.47 34.188C400.142 34.188 400.667 34.013 401.045 33.663C401.423 33.3083 401.612 32.8277 401.612 32.221C401.612 31.7637 401.524 31.402 401.346 31.136C401.174 30.87 400.938 30.681 400.639 30.569C400.341 30.4523 400 30.394 399.617 30.394H398.805L398.952 29.463H399.519C399.832 29.463 400.126 29.4047 400.401 29.288C400.681 29.1667 400.91 28.98 401.087 28.728C401.265 28.476 401.353 28.161 401.353 27.783C401.353 27.251 401.176 26.845 400.821 26.565C400.467 26.285 400.037 26.145 399.533 26.145C399.113 26.145 398.747 26.2197 398.434 26.369C398.122 26.5137 397.807 26.7353 397.489 27.034L396.838 26.313C397.249 25.9257 397.685 25.6457 398.147 25.473C398.609 25.2957 399.085 25.207 399.575 25.207ZM408.908 25.207C409.281 25.207 409.624 25.256 409.937 25.354C410.25 25.4473 410.541 25.585 410.812 25.767L410.35 26.565C410.131 26.4297 409.897 26.3293 409.65 26.264C409.407 26.194 409.153 26.159 408.887 26.159C408.374 26.159 407.937 26.3317 407.578 26.677C407.219 27.0177 406.948 27.5007 406.766 28.126C406.584 28.7467 406.495 29.477 406.5 30.317L406.514 30.772C406.514 31.9573 406.67 32.8277 406.983 33.383C407.296 33.9337 407.807 34.209 408.516 34.209C409.127 34.209 409.585 33.992 409.888 33.558C410.196 33.124 410.35 32.5337 410.35 31.787C410.35 30.9937 410.194 30.4453 409.881 30.142C409.568 29.8387 409.155 29.687 408.642 29.687C408.143 29.687 407.702 29.8363 407.319 30.135C406.936 30.4337 406.626 30.8163 406.388 31.283L406.36 30.247C406.677 29.7057 407.039 29.316 407.445 29.078C407.851 28.84 408.311 28.721 408.824 28.721C409.323 28.721 409.778 28.8307 410.189 29.05C410.6 29.2693 410.929 29.6053 411.176 30.058C411.428 30.506 411.554 31.073 411.554 31.759C411.554 32.4683 411.419 33.0773 411.148 33.586C410.877 34.09 410.511 34.4797 410.049 34.755C409.587 35.0257 409.078 35.161 408.523 35.161C407.935 35.161 407.438 35.0513 407.032 34.832C406.626 34.608 406.297 34.2907 406.045 33.88C405.793 33.4647 405.609 32.9677 405.492 32.389C405.38 31.8057 405.324 31.157 405.324 30.443C405.324 29.379 405.464 28.455 405.744 27.671C406.029 26.887 406.437 26.2803 406.969 25.851C407.506 25.4217 408.152 25.207 408.908 25.207ZM419.423 25.361L419.248 26.299H415.44V29.337C415.734 29.1783 416.012 29.071 416.273 29.015C416.539 28.9543 416.817 28.924 417.106 28.924C417.629 28.924 418.089 29.043 418.485 29.281C418.882 29.5143 419.19 29.8573 419.409 30.31C419.629 30.7627 419.738 31.3087 419.738 31.948C419.738 32.5873 419.603 33.1497 419.332 33.635C419.066 34.1203 418.691 34.496 418.205 34.762C417.72 35.028 417.144 35.161 416.476 35.161C415.898 35.161 415.38 35.0583 414.922 34.853C414.47 34.6477 414.057 34.363 413.683 33.999L414.411 33.299C414.705 33.5977 415.02 33.8217 415.356 33.971C415.697 34.1157 416.075 34.188 416.49 34.188C417.125 34.188 417.62 33.9967 417.974 33.614C418.329 33.2267 418.506 32.6597 418.506 31.913C418.506 31.395 418.429 30.9867 418.275 30.688C418.121 30.3893 417.911 30.177 417.645 30.051C417.384 29.9203 417.092 29.855 416.77 29.855C416.486 29.855 416.234 29.883 416.014 29.939C415.795 29.9903 415.545 30.0697 415.265 30.177H414.32V25.361H419.423Z" fill="black"/>
<path d="M465.652 25.207L466.632 25.62L464.07 31.717H469.215V32.655H462.824V31.801L465.652 25.207ZM467.969 28.98V35H466.835L466.828 31.941L466.989 28.98H467.969ZM475.44 25.361V34.72H474.264V26.635L472.052 27.979L471.541 27.139L474.411 25.361H475.44ZM477.456 34.041V35H471.891V34.041H477.456ZM485.423 25.361L485.248 26.299H481.44V29.337C481.734 29.1783 482.012 29.071 482.273 29.015C482.539 28.9543 482.817 28.924 483.106 28.924C483.629 28.924 484.089 29.043 484.485 29.281C484.882 29.5143 485.19 29.8573 485.409 30.31C485.629 30.7627 485.738 31.3087 485.738 31.948C485.738 32.5873 485.603 33.1497 485.332 33.635C485.066 34.1203 484.691 34.496 484.205 34.762C483.72 35.028 483.144 35.161 482.476 35.161C481.898 35.161 481.38 35.0583 480.922 34.853C480.47 34.6477 480.057 34.363 479.683 33.999L480.411 33.299C480.705 33.5977 481.02 33.8217 481.356 33.971C481.697 34.1157 482.075 34.188 482.49 34.188C483.125 34.188 483.62 33.9967 483.974 33.614C484.329 33.2267 484.506 32.6597 484.506 31.913C484.506 31.395 484.429 30.9867 484.275 30.688C484.121 30.3893 483.911 30.177 483.645 30.051C483.384 29.9203 483.092 29.855 482.77 29.855C482.486 29.855 482.234 29.883 482.014 29.939C481.795 29.9903 481.545 30.0697 481.265 30.177H480.32V25.361H485.423Z" fill="black"/>
<path d="M532.652 24.207L533.632 24.62L531.07 30.717H536.215V31.655H529.824V30.801L532.652 24.207ZM534.969 27.98V34H533.835L533.828 30.941L533.989 27.98H534.969ZM541.908 24.207C542.281 24.207 542.624 24.256 542.937 24.354C543.25 24.4473 543.541 24.585 543.812 24.767L543.35 25.565C543.131 25.4297 542.897 25.3293 542.65 25.264C542.407 25.194 542.153 25.159 541.887 25.159C541.374 25.159 540.937 25.3317 540.578 25.677C540.219 26.0177 539.948 26.5007 539.766 27.126C539.584 27.7467 539.495 28.477 539.5 29.317L539.514 29.772C539.514 30.9573 539.67 31.8277 539.983 32.383C540.296 32.9337 540.807 33.209 541.516 33.209C542.127 33.209 542.585 32.992 542.888 32.558C543.196 32.124 543.35 31.5337 543.35 30.787C543.35 29.9937 543.194 29.4453 542.881 29.142C542.568 28.8387 542.155 28.687 541.642 28.687C541.143 28.687 540.702 28.8363 540.319 29.135C539.936 29.4337 539.626 29.8163 539.388 30.283L539.36 29.247C539.677 28.7057 540.039 28.316 540.445 28.078C540.851 27.84 541.311 27.721 541.824 27.721C542.323 27.721 542.778 27.8307 543.189 28.05C543.6 28.2693 543.929 28.6053 544.176 29.058C544.428 29.506 544.554 30.073 544.554 30.759C544.554 31.4683 544.419 32.0773 544.148 32.586C543.877 33.09 543.511 33.4797 543.049 33.755C542.587 34.0257 542.078 34.161 541.523 34.161C540.935 34.161 540.438 34.0513 540.032 33.832C539.626 33.608 539.297 33.2907 539.045 32.88C538.793 32.4647 538.609 31.9677 538.492 31.389C538.38 30.8057 538.324 30.157 538.324 29.443C538.324 28.379 538.464 27.455 538.744 26.671C539.029 25.887 539.437 25.2803 539.969 24.851C540.506 24.4217 541.152 24.207 541.908 24.207ZM552.423 24.361L552.248 25.299H548.44V28.337C548.734 28.1783 549.012 28.071 549.273 28.015C549.539 27.9543 549.817 27.924 550.106 27.924C550.629 27.924 551.089 28.043 551.485 28.281C551.882 28.5143 552.19 28.8573 552.409 29.31C552.629 29.7627 552.738 30.3087 552.738 30.948C552.738 31.5873 552.603 32.1497 552.332 32.635C552.066 33.1203 551.691 33.496 551.205 33.762C550.72 34.028 550.144 34.161 549.476 34.161C548.898 34.161 548.38 34.0583 547.922 33.853C547.47 33.6477 547.057 33.363 546.683 32.999L547.411 32.299C547.705 32.5977 548.02 32.8217 548.356 32.971C548.697 33.1157 549.075 33.188 549.49 33.188C550.125 33.188 550.62 32.9967 550.974 32.614C551.329 32.2267 551.506 31.6597 551.506 30.913C551.506 30.395 551.429 29.9867 551.275 29.688C551.121 29.3893 550.911 29.177 550.645 29.051C550.384 28.9203 550.092 28.855 549.77 28.855C549.486 28.855 549.234 28.883 549.014 28.939C548.795 28.9903 548.545 29.0697 548.265 29.177H547.32V24.361H552.423Z" fill="black"/>
<path d="M603.634 24.361L603.459 25.299H599.651V28.337C599.945 28.1783 600.223 28.071 600.484 28.015C600.75 27.9543 601.028 27.924 601.317 27.924C601.84 27.924 602.3 28.043 602.696 28.281C603.093 28.5143 603.401 28.8573 603.62 29.31C603.84 29.7627 603.949 30.3087 603.949 30.948C603.949 31.5873 603.814 32.1497 603.543 32.635C603.277 33.1203 602.902 33.496 602.416 33.762C601.931 34.028 601.355 34.161 600.687 34.161C600.109 34.161 599.591 34.0583 599.133 33.853C598.681 33.6477 598.268 33.363 597.894 32.999L598.622 32.299C598.916 32.5977 599.231 32.8217 599.567 32.971C599.908 33.1157 600.286 33.188 600.701 33.188C601.336 33.188 601.831 32.9967 602.185 32.614C602.54 32.2267 602.717 31.6597 602.717 30.913C602.717 30.395 602.64 29.9867 602.486 29.688C602.332 29.3893 602.122 29.177 601.856 29.051C601.595 28.9203 601.303 28.855 600.981 28.855C600.697 28.855 600.445 28.883 600.225 28.939C600.006 28.9903 599.756 29.0697 599.476 29.177H598.531V24.361H603.634ZM610.44 24.361V33.72H609.264V25.635L607.052 26.979L606.541 26.139L609.411 24.361H610.44ZM612.456 33.041V34H606.891V33.041H612.456ZM620.423 24.361L620.248 25.299H616.44V28.337C616.734 28.1783 617.012 28.071 617.273 28.015C617.539 27.9543 617.817 27.924 618.106 27.924C618.629 27.924 619.089 28.043 619.485 28.281C619.882 28.5143 620.19 28.8573 620.409 29.31C620.629 29.7627 620.738 30.3087 620.738 30.948C620.738 31.5873 620.603 32.1497 620.332 32.635C620.066 33.1203 619.691 33.496 619.205 33.762C618.72 34.028 618.144 34.161 617.476 34.161C616.898 34.161 616.38 34.0583 615.922 33.853C615.47 33.6477 615.057 33.363 614.683 32.999L615.411 32.299C615.705 32.5977 616.02 32.8217 616.356 32.971C616.697 33.1157 617.075 33.188 617.49 33.188C618.125 33.188 618.62 32.9967 618.974 32.614C619.329 32.2267 619.506 31.6597 619.506 30.913C619.506 30.395 619.429 29.9867 619.275 29.688C619.121 29.3893 618.911 29.177 618.645 29.051C618.384 28.9203 618.092 28.855 617.77 28.855C617.486 28.855 617.234 28.883 617.014 28.939C616.795 28.9903 616.545 29.0697 616.265 29.177H615.32V24.361H620.423Z" fill="black"/>
<path d="M668.634 24.361L668.459 25.299H664.651V28.337C664.945 28.1783 665.223 28.071 665.484 28.015C665.75 27.9543 666.028 27.924 666.317 27.924C666.84 27.924 667.3 28.043 667.696 28.281C668.093 28.5143 668.401 28.8573 668.62 29.31C668.84 29.7627 668.949 30.3087 668.949 30.948C668.949 31.5873 668.814 32.1497 668.543 32.635C668.277 33.1203 667.902 33.496 667.416 33.762C666.931 34.028 666.355 34.161 665.687 34.161C665.109 34.161 664.591 34.0583 664.133 33.853C663.681 33.6477 663.268 33.363 662.894 32.999L663.622 32.299C663.916 32.5977 664.231 32.8217 664.567 32.971C664.908 33.1157 665.286 33.188 665.701 33.188C666.336 33.188 666.831 32.9967 667.185 32.614C667.54 32.2267 667.717 31.6597 667.717 30.913C667.717 30.395 667.64 29.9867 667.486 29.688C667.332 29.3893 667.122 29.177 666.856 29.051C666.595 28.9203 666.303 28.855 665.981 28.855C665.697 28.855 665.445 28.883 665.225 28.939C665.006 28.9903 664.756 29.0697 664.476 29.177H663.531V24.361H668.634ZM674.908 24.207C675.281 24.207 675.624 24.256 675.937 24.354C676.25 24.4473 676.541 24.585 676.812 24.767L676.35 25.565C676.131 25.4297 675.897 25.3293 675.65 25.264C675.407 25.194 675.153 25.159 674.887 25.159C674.374 25.159 673.937 25.3317 673.578 25.677C673.219 26.0177 672.948 26.5007 672.766 27.126C672.584 27.7467 672.495 28.477 672.5 29.317L672.514 29.772C672.514 30.9573 672.67 31.8277 672.983 32.383C673.296 32.9337 673.807 33.209 674.516 33.209C675.127 33.209 675.585 32.992 675.888 32.558C676.196 32.124 676.35 31.5337 676.35 30.787C676.35 29.9937 676.194 29.4453 675.881 29.142C675.568 28.8387 675.155 28.687 674.642 28.687C674.143 28.687 673.702 28.8363 673.319 29.135C672.936 29.4337 672.626 29.8163 672.388 30.283L672.36 29.247C672.677 28.7057 673.039 28.316 673.445 28.078C673.851 27.84 674.311 27.721 674.824 27.721C675.323 27.721 675.778 27.8307 676.189 28.05C676.6 28.2693 676.929 28.6053 677.176 29.058C677.428 29.506 677.554 30.073 677.554 30.759C677.554 31.4683 677.419 32.0773 677.148 32.586C676.877 33.09 676.511 33.4797 676.049 33.755C675.587 34.0257 675.078 34.161 674.523 34.161C673.935 34.161 673.438 34.0513 673.032 33.832C672.626 33.608 672.297 33.2907 672.045 32.88C671.793 32.4647 671.609 31.9677 671.492 31.389C671.38 30.8057 671.324 30.157 671.324 29.443C671.324 28.379 671.464 27.455 671.744 26.671C672.029 25.887 672.437 25.2803 672.969 24.851C673.506 24.4217 674.152 24.207 674.908 24.207ZM685.423 24.361L685.248 25.299H681.44V28.337C681.734 28.1783 682.012 28.071 682.273 28.015C682.539 27.9543 682.817 27.924 683.106 27.924C683.629 27.924 684.089 28.043 684.485 28.281C684.882 28.5143 685.19 28.8573 685.409 29.31C685.629 29.7627 685.738 30.3087 685.738 30.948C685.738 31.5873 685.603 32.1497 685.332 32.635C685.066 33.1203 684.691 33.496 684.205 33.762C683.72 34.028 683.144 34.161 682.476 34.161C681.898 34.161 681.38 34.0583 680.922 33.853C680.47 33.6477 680.057 33.363 679.683 32.999L680.411 32.299C680.705 32.5977 681.02 32.8217 681.356 32.971C681.697 33.1157 682.075 33.188 682.49 33.188C683.125 33.188 683.62 32.9967 683.974 32.614C684.329 32.2267 684.506 31.6597 684.506 30.913C684.506 30.395 684.429 29.9867 684.275 29.688C684.121 29.3893 683.911 29.177 683.645 29.051C683.384 28.9203 683.092 28.855 682.77 28.855C682.486 28.855 682.234 28.883 682.014 28.939C681.795 28.9903 681.545 29.0697 681.265 29.177H680.32V24.361H685.423Z" fill="black"/>
</svg>
