<svg width="696" height="38" viewBox="0 0 696 38" fill="none" xmlns="http://www.w3.org/2000/svg">
<line x1="15" y1="3.2971e-08" x2="15" y2="15" stroke="black" stroke-width="2"/>
<line x1="15" y1="3.2971e-08" x2="15" y2="15" stroke="black" stroke-width="2"/>
<line x1="83" y1="3.24997e-08" x2="83" y2="15" stroke="black" stroke-width="2"/>
<line x1="83" y1="3.24997e-08" x2="83" y2="15" stroke="black" stroke-width="2"/>
<line x1="150" y1="3.26099e-08" x2="150" y2="15" stroke="black" stroke-width="2"/>
<line x1="150" y1="3.26099e-08" x2="150" y2="15" stroke="black" stroke-width="2"/>
<line x1="216" y1="3.26099e-08" x2="216" y2="15" stroke="black" stroke-width="2"/>
<line x1="216" y1="3.26099e-08" x2="216" y2="15" stroke="black" stroke-width="2"/>
<line x1="284" y1="3.25547e-08" x2="284" y2="15" stroke="black" stroke-width="2"/>
<line x1="284" y1="3.25547e-08" x2="284" y2="15" stroke="black" stroke-width="2"/>
<line x1="352" y1="3.24997e-08" x2="352" y2="15" stroke="black" stroke-width="2"/>
<line x1="352" y1="3.24997e-08" x2="352" y2="15" stroke="black" stroke-width="2"/>
<line x1="419" y1="3.24997e-08" x2="419" y2="15" stroke="black" stroke-width="2"/>
<line x1="419" y1="3.24997e-08" x2="419" y2="15" stroke="black" stroke-width="2"/>
<line x1="486" y1="3.24997e-08" x2="486" y2="15" stroke="black" stroke-width="2"/>
<line x1="486" y1="3.24997e-08" x2="486" y2="15" stroke="black" stroke-width="2"/>
<line x1="552" y1="3.25547e-08" x2="552" y2="15" stroke="black" stroke-width="2"/>
<line x1="552" y1="3.25547e-08" x2="552" y2="15" stroke="black" stroke-width="2"/>
<line x1="621" y1="3.25935e-08" x2="621" y2="15" stroke="black" stroke-width="2"/>
<line x1="621" y1="3.25935e-08" x2="621" y2="15" stroke="black" stroke-width="2"/>
<line x1="688" y1="3.80995e-08" x2="688" y2="15" stroke="black" stroke-width="2"/>
<line x1="688" y1="3.80995e-08" x2="688" y2="15" stroke="black" stroke-width="2"/>
<path d="M683.908 24.207C684.281 24.207 684.624 24.256 684.937 24.354C685.25 24.4473 685.541 24.585 685.812 24.767L685.35 25.565C685.131 25.4297 684.897 25.3293 684.65 25.264C684.407 25.194 684.153 25.159 683.887 25.159C683.374 25.159 682.937 25.3317 682.578 25.677C682.219 26.0177 681.948 26.5007 681.766 27.126C681.584 27.7467 681.495 28.477 681.5 29.317L681.514 29.772C681.514 30.9573 681.67 31.8277 681.983 32.383C682.296 32.9337 682.807 33.209 683.516 33.209C684.127 33.209 684.585 32.992 684.888 32.558C685.196 32.124 685.35 31.5337 685.35 30.787C685.35 29.9937 685.194 29.4453 684.881 29.142C684.568 28.8387 684.155 28.687 683.642 28.687C683.143 28.687 682.702 28.8363 682.319 29.135C681.936 29.4337 681.626 29.8163 681.388 30.283L681.36 29.247C681.677 28.7057 682.039 28.316 682.445 28.078C682.851 27.84 683.311 27.721 683.824 27.721C684.323 27.721 684.778 27.8307 685.189 28.05C685.6 28.2693 685.929 28.6053 686.176 29.058C686.428 29.506 686.554 30.073 686.554 30.759C686.554 31.4683 686.419 32.0773 686.148 32.586C685.877 33.09 685.511 33.4797 685.049 33.755C684.587 34.0257 684.078 34.161 683.523 34.161C682.935 34.161 682.438 34.0513 682.032 33.832C681.626 33.608 681.297 33.2907 681.045 32.88C680.793 32.4647 680.609 31.9677 680.492 31.389C680.38 30.8057 680.324 30.157 680.324 29.443C680.324 28.379 680.464 27.455 680.744 26.671C681.029 25.887 681.437 25.2803 681.969 24.851C682.506 24.4217 683.152 24.207 683.908 24.207ZM694.423 24.361L694.248 25.299H690.44V28.337C690.734 28.1783 691.012 28.071 691.273 28.015C691.539 27.9543 691.817 27.924 692.106 27.924C692.629 27.924 693.089 28.043 693.485 28.281C693.882 28.5143 694.19 28.8573 694.409 29.31C694.629 29.7627 694.738 30.3087 694.738 30.948C694.738 31.5873 694.603 32.1497 694.332 32.635C694.066 33.1203 693.691 33.496 693.205 33.762C692.72 34.028 692.144 34.161 691.476 34.161C690.898 34.161 690.38 34.0583 689.922 33.853C689.47 33.6477 689.057 33.363 688.683 32.999L689.411 32.299C689.705 32.5977 690.02 32.8217 690.356 32.971C690.697 33.1157 691.075 33.188 691.49 33.188C692.125 33.188 692.62 32.9967 692.974 32.614C693.329 32.2267 693.506 31.6597 693.506 30.913C693.506 30.395 693.429 29.9867 693.275 29.688C693.121 29.3893 692.911 29.177 692.645 29.051C692.384 28.9203 692.092 28.855 691.77 28.855C691.486 28.855 691.234 28.883 691.014 28.939C690.795 28.9903 690.545 29.0697 690.265 29.177H689.32V24.361H694.423Z" fill="black"/>
<path d="M615.045 24.361V33.72H613.869V25.635L611.657 26.979L611.146 26.139L614.016 24.361H615.045ZM617.061 33.041V34H611.496V33.041H617.061ZM623.44 24.361V33.72H622.264V25.635L620.052 26.979L619.541 26.139L622.411 24.361H623.44ZM625.456 33.041V34H619.891V33.041H625.456ZM633.423 24.361L633.248 25.299H629.44V28.337C629.734 28.1783 630.012 28.071 630.273 28.015C630.539 27.9543 630.817 27.924 631.106 27.924C631.629 27.924 632.089 28.043 632.485 28.281C632.882 28.5143 633.19 28.8573 633.409 29.31C633.629 29.7627 633.738 30.3087 633.738 30.948C633.738 31.5873 633.603 32.1497 633.332 32.635C633.066 33.1203 632.691 33.496 632.205 33.762C631.72 34.028 631.144 34.161 630.476 34.161C629.898 34.161 629.38 34.0583 628.922 33.853C628.47 33.6477 628.057 33.363 627.683 32.999L628.411 32.299C628.705 32.5977 629.02 32.8217 629.356 32.971C629.697 33.1157 630.075 33.188 630.49 33.188C631.125 33.188 631.62 32.9967 631.974 32.614C632.329 32.2267 632.506 31.6597 632.506 30.913C632.506 30.395 632.429 29.9867 632.275 29.688C632.121 29.3893 631.911 29.177 631.645 29.051C631.384 28.9203 631.092 28.855 630.77 28.855C630.486 28.855 630.234 28.883 630.014 28.939C629.795 28.9903 629.545 29.0697 629.265 29.177H628.32V24.361H633.423Z" fill="black"/>
<path d="M546.045 24.361V33.72H544.869V25.635L542.657 26.979L542.146 26.139L545.016 24.361H546.045ZM548.061 33.041V34H542.496V33.041H548.061ZM553.908 24.207C554.281 24.207 554.624 24.256 554.937 24.354C555.25 24.4473 555.541 24.585 555.812 24.767L555.35 25.565C555.131 25.4297 554.897 25.3293 554.65 25.264C554.407 25.194 554.153 25.159 553.887 25.159C553.374 25.159 552.937 25.3317 552.578 25.677C552.219 26.0177 551.948 26.5007 551.766 27.126C551.584 27.7467 551.495 28.477 551.5 29.317L551.514 29.772C551.514 30.9573 551.67 31.8277 551.983 32.383C552.296 32.9337 552.807 33.209 553.516 33.209C554.127 33.209 554.585 32.992 554.888 32.558C555.196 32.124 555.35 31.5337 555.35 30.787C555.35 29.9937 555.194 29.4453 554.881 29.142C554.568 28.8387 554.155 28.687 553.642 28.687C553.143 28.687 552.702 28.8363 552.319 29.135C551.936 29.4337 551.626 29.8163 551.388 30.283L551.36 29.247C551.677 28.7057 552.039 28.316 552.445 28.078C552.851 27.84 553.311 27.721 553.824 27.721C554.323 27.721 554.778 27.8307 555.189 28.05C555.6 28.2693 555.929 28.6053 556.176 29.058C556.428 29.506 556.554 30.073 556.554 30.759C556.554 31.4683 556.419 32.0773 556.148 32.586C555.877 33.09 555.511 33.4797 555.049 33.755C554.587 34.0257 554.078 34.161 553.523 34.161C552.935 34.161 552.438 34.0513 552.032 33.832C551.626 33.608 551.297 33.2907 551.045 32.88C550.793 32.4647 550.609 31.9677 550.492 31.389C550.38 30.8057 550.324 30.157 550.324 29.443C550.324 28.379 550.464 27.455 550.744 26.671C551.029 25.887 551.437 25.2803 551.969 24.851C552.506 24.4217 553.152 24.207 553.908 24.207ZM564.423 24.361L564.248 25.299H560.44V28.337C560.734 28.1783 561.012 28.071 561.273 28.015C561.539 27.9543 561.817 27.924 562.106 27.924C562.629 27.924 563.089 28.043 563.485 28.281C563.882 28.5143 564.19 28.8573 564.409 29.31C564.629 29.7627 564.738 30.3087 564.738 30.948C564.738 31.5873 564.603 32.1497 564.332 32.635C564.066 33.1203 563.691 33.496 563.205 33.762C562.72 34.028 562.144 34.161 561.476 34.161C560.898 34.161 560.38 34.0583 559.922 33.853C559.47 33.6477 559.057 33.363 558.683 32.999L559.411 32.299C559.705 32.5977 560.02 32.8217 560.356 32.971C560.697 33.1157 561.075 33.188 561.49 33.188C562.125 33.188 562.62 32.9967 562.974 32.614C563.329 32.2267 563.506 31.6597 563.506 30.913C563.506 30.395 563.429 29.9867 563.275 29.688C563.121 29.3893 562.911 29.177 562.645 29.051C562.384 28.9203 562.092 28.855 561.77 28.855C561.486 28.855 561.234 28.883 561.014 28.939C560.795 28.9903 560.545 29.0697 560.265 29.177H559.32V24.361H564.423Z" fill="black"/>
<path d="M477.589 24.207C478.196 24.207 478.714 24.3237 479.143 24.557C479.577 24.7903 479.911 25.11 480.144 25.516C480.378 25.922 480.494 26.3817 480.494 26.895C480.494 27.3383 480.417 27.7723 480.263 28.197C480.109 28.617 479.862 29.0603 479.521 29.527C479.185 29.989 478.742 30.5023 478.191 31.067C477.645 31.6317 476.973 32.2757 476.175 32.999H480.718L480.571 34H474.838V33.041C475.566 32.3457 476.185 31.7367 476.693 31.214C477.207 30.6913 477.629 30.234 477.96 29.842C478.296 29.4453 478.558 29.086 478.744 28.764C478.936 28.442 479.069 28.1363 479.143 27.847C479.218 27.553 479.255 27.2497 479.255 26.937C479.255 26.3957 479.101 25.9687 478.793 25.656C478.49 25.3433 478.07 25.187 477.533 25.187C477.057 25.187 476.668 25.2687 476.364 25.432C476.061 25.5953 475.758 25.8567 475.454 26.216L474.642 25.586C475.025 25.1193 475.45 24.774 475.916 24.55C476.383 24.3213 476.941 24.207 477.589 24.207ZM487.44 24.361V33.72H486.264V25.635L484.052 26.979L483.541 26.139L486.411 24.361H487.44ZM489.456 33.041V34H483.891V33.041H489.456ZM497.423 24.361L497.248 25.299H493.44V28.337C493.734 28.1783 494.012 28.071 494.273 28.015C494.539 27.9543 494.817 27.924 495.106 27.924C495.629 27.924 496.089 28.043 496.485 28.281C496.882 28.5143 497.19 28.8573 497.409 29.31C497.629 29.7627 497.738 30.3087 497.738 30.948C497.738 31.5873 497.603 32.1497 497.332 32.635C497.066 33.1203 496.691 33.496 496.205 33.762C495.72 34.028 495.144 34.161 494.476 34.161C493.898 34.161 493.38 34.0583 492.922 33.853C492.47 33.6477 492.057 33.363 491.683 32.999L492.411 32.299C492.705 32.5977 493.02 32.8217 493.356 32.971C493.697 33.1157 494.075 33.188 494.49 33.188C495.125 33.188 495.62 32.9967 495.974 32.614C496.329 32.2267 496.506 31.6597 496.506 30.913C496.506 30.395 496.429 29.9867 496.275 29.688C496.121 29.3893 495.911 29.177 495.645 29.051C495.384 28.9203 495.092 28.855 494.77 28.855C494.486 28.855 494.234 28.883 494.014 28.939C493.795 28.9903 493.545 29.0697 493.265 29.177H492.32V24.361H497.423Z" fill="black"/>
<path d="M411.589 24.207C412.196 24.207 412.714 24.3237 413.143 24.557C413.577 24.7903 413.911 25.11 414.144 25.516C414.378 25.922 414.494 26.3817 414.494 26.895C414.494 27.3383 414.417 27.7723 414.263 28.197C414.109 28.617 413.862 29.0603 413.521 29.527C413.185 29.989 412.742 30.5023 412.191 31.067C411.645 31.6317 410.973 32.2757 410.175 32.999H414.718L414.571 34H408.838V33.041C409.566 32.3457 410.185 31.7367 410.693 31.214C411.207 30.6913 411.629 30.234 411.96 29.842C412.296 29.4453 412.558 29.086 412.744 28.764C412.936 28.442 413.069 28.1363 413.143 27.847C413.218 27.553 413.255 27.2497 413.255 26.937C413.255 26.3957 413.101 25.9687 412.793 25.656C412.49 25.3433 412.07 25.187 411.533 25.187C411.057 25.187 410.668 25.2687 410.364 25.432C410.061 25.5953 409.758 25.8567 409.454 26.216L408.642 25.586C409.025 25.1193 409.45 24.774 409.916 24.55C410.383 24.3213 410.941 24.207 411.589 24.207ZM420.908 24.207C421.281 24.207 421.624 24.256 421.937 24.354C422.25 24.4473 422.541 24.585 422.812 24.767L422.35 25.565C422.131 25.4297 421.897 25.3293 421.65 25.264C421.407 25.194 421.153 25.159 420.887 25.159C420.374 25.159 419.937 25.3317 419.578 25.677C419.219 26.0177 418.948 26.5007 418.766 27.126C418.584 27.7467 418.495 28.477 418.5 29.317L418.514 29.772C418.514 30.9573 418.67 31.8277 418.983 32.383C419.296 32.9337 419.807 33.209 420.516 33.209C421.127 33.209 421.585 32.992 421.888 32.558C422.196 32.124 422.35 31.5337 422.35 30.787C422.35 29.9937 422.194 29.4453 421.881 29.142C421.568 28.8387 421.155 28.687 420.642 28.687C420.143 28.687 419.702 28.8363 419.319 29.135C418.936 29.4337 418.626 29.8163 418.388 30.283L418.36 29.247C418.677 28.7057 419.039 28.316 419.445 28.078C419.851 27.84 420.311 27.721 420.824 27.721C421.323 27.721 421.778 27.8307 422.189 28.05C422.6 28.2693 422.929 28.6053 423.176 29.058C423.428 29.506 423.554 30.073 423.554 30.759C423.554 31.4683 423.419 32.0773 423.148 32.586C422.877 33.09 422.511 33.4797 422.049 33.755C421.587 34.0257 421.078 34.161 420.523 34.161C419.935 34.161 419.438 34.0513 419.032 33.832C418.626 33.608 418.297 33.2907 418.045 32.88C417.793 32.4647 417.609 31.9677 417.492 31.389C417.38 30.8057 417.324 30.157 417.324 29.443C417.324 28.379 417.464 27.455 417.744 26.671C418.029 25.887 418.437 25.2803 418.969 24.851C419.506 24.4217 420.152 24.207 420.908 24.207ZM431.423 24.361L431.248 25.299H427.44V28.337C427.734 28.1783 428.012 28.071 428.273 28.015C428.539 27.9543 428.817 27.924 429.106 27.924C429.629 27.924 430.089 28.043 430.485 28.281C430.882 28.5143 431.19 28.8573 431.409 29.31C431.629 29.7627 431.738 30.3087 431.738 30.948C431.738 31.5873 431.603 32.1497 431.332 32.635C431.066 33.1203 430.691 33.496 430.205 33.762C429.72 34.028 429.144 34.161 428.476 34.161C427.898 34.161 427.38 34.0583 426.922 33.853C426.47 33.6477 426.057 33.363 425.683 32.999L426.411 32.299C426.705 32.5977 427.02 32.8217 427.356 32.971C427.697 33.1157 428.075 33.188 428.49 33.188C429.125 33.188 429.62 32.9967 429.974 32.614C430.329 32.2267 430.506 31.6597 430.506 30.913C430.506 30.395 430.429 29.9867 430.275 29.688C430.121 29.3893 429.911 29.177 429.645 29.051C429.384 28.9203 429.092 28.855 428.77 28.855C428.486 28.855 428.234 28.883 428.014 28.939C427.795 28.9903 427.545 29.0697 427.265 29.177H426.32V24.361H431.423Z" fill="black"/>
<path d="M342.575 24.207C343.182 24.207 343.705 24.3167 344.143 24.536C344.587 24.7507 344.93 25.0423 345.172 25.411C345.415 25.775 345.536 26.1763 345.536 26.615C345.536 27.0023 345.45 27.3547 345.277 27.672C345.105 27.9893 344.876 28.2507 344.591 28.456C344.307 28.6613 343.994 28.7967 343.653 28.862C344.031 28.89 344.386 28.9973 344.717 29.184C345.049 29.366 345.319 29.6273 345.529 29.968C345.739 30.304 345.844 30.7217 345.844 31.221C345.844 31.7763 345.704 32.278 345.424 32.726C345.144 33.1693 344.752 33.5193 344.248 33.776C343.749 34.0327 343.166 34.161 342.498 34.161C341.962 34.161 341.425 34.0583 340.888 33.853C340.356 33.6477 339.906 33.321 339.537 32.873L340.328 32.229C340.604 32.551 340.93 32.7913 341.308 32.95C341.691 33.1087 342.078 33.188 342.47 33.188C343.142 33.188 343.667 33.013 344.045 32.663C344.423 32.3083 344.612 31.8277 344.612 31.221C344.612 30.7637 344.524 30.402 344.346 30.136C344.174 29.87 343.938 29.681 343.639 29.569C343.341 29.4523 343 29.394 342.617 29.394H341.805L341.952 28.463H342.519C342.832 28.463 343.126 28.4047 343.401 28.288C343.681 28.1667 343.91 27.98 344.087 27.728C344.265 27.476 344.353 27.161 344.353 26.783C344.353 26.251 344.176 25.845 343.821 25.565C343.467 25.285 343.037 25.145 342.533 25.145C342.113 25.145 341.747 25.2197 341.434 25.369C341.122 25.5137 340.807 25.7353 340.489 26.034L339.838 25.313C340.249 24.9257 340.685 24.6457 341.147 24.473C341.609 24.2957 342.085 24.207 342.575 24.207ZM352.44 24.361V33.72H351.264V25.635L349.052 26.979L348.541 26.139L351.411 24.361H352.44ZM354.456 33.041V34H348.891V33.041H354.456ZM362.423 24.361L362.248 25.299H358.44V28.337C358.734 28.1783 359.012 28.071 359.273 28.015C359.539 27.9543 359.817 27.924 360.106 27.924C360.629 27.924 361.089 28.043 361.485 28.281C361.882 28.5143 362.19 28.8573 362.409 29.31C362.629 29.7627 362.738 30.3087 362.738 30.948C362.738 31.5873 362.603 32.1497 362.332 32.635C362.066 33.1203 361.691 33.496 361.205 33.762C360.72 34.028 360.144 34.161 359.476 34.161C358.898 34.161 358.38 34.0583 357.922 33.853C357.47 33.6477 357.057 33.363 356.683 32.999L357.411 32.299C357.705 32.5977 358.02 32.8217 358.356 32.971C358.697 33.1157 359.075 33.188 359.49 33.188C360.125 33.188 360.62 32.9967 360.974 32.614C361.329 32.2267 361.506 31.6597 361.506 30.913C361.506 30.395 361.429 29.9867 361.275 29.688C361.121 29.3893 360.911 29.177 360.645 29.051C360.384 28.9203 360.092 28.855 359.77 28.855C359.486 28.855 359.234 28.883 359.014 28.939C358.795 28.9903 358.545 29.0697 358.265 29.177H357.32V24.361H362.423Z" fill="black"/>
<path d="M275.575 24.207C276.182 24.207 276.705 24.3167 277.143 24.536C277.587 24.7507 277.93 25.0423 278.172 25.411C278.415 25.775 278.536 26.1763 278.536 26.615C278.536 27.0023 278.45 27.3547 278.277 27.672C278.105 27.9893 277.876 28.2507 277.591 28.456C277.307 28.6613 276.994 28.7967 276.653 28.862C277.031 28.89 277.386 28.9973 277.717 29.184C278.049 29.366 278.319 29.6273 278.529 29.968C278.739 30.304 278.844 30.7217 278.844 31.221C278.844 31.7763 278.704 32.278 278.424 32.726C278.144 33.1693 277.752 33.5193 277.248 33.776C276.749 34.0327 276.166 34.161 275.498 34.161C274.962 34.161 274.425 34.0583 273.888 33.853C273.356 33.6477 272.906 33.321 272.537 32.873L273.328 32.229C273.604 32.551 273.93 32.7913 274.308 32.95C274.691 33.1087 275.078 33.188 275.47 33.188C276.142 33.188 276.667 33.013 277.045 32.663C277.423 32.3083 277.612 31.8277 277.612 31.221C277.612 30.7637 277.524 30.402 277.346 30.136C277.174 29.87 276.938 29.681 276.639 29.569C276.341 29.4523 276 29.394 275.617 29.394H274.805L274.952 28.463H275.519C275.832 28.463 276.126 28.4047 276.401 28.288C276.681 28.1667 276.91 27.98 277.087 27.728C277.265 27.476 277.353 27.161 277.353 26.783C277.353 26.251 277.176 25.845 276.821 25.565C276.467 25.285 276.037 25.145 275.533 25.145C275.113 25.145 274.747 25.2197 274.434 25.369C274.122 25.5137 273.807 25.7353 273.489 26.034L272.838 25.313C273.249 24.9257 273.685 24.6457 274.147 24.473C274.609 24.2957 275.085 24.207 275.575 24.207ZM284.908 24.207C285.281 24.207 285.624 24.256 285.937 24.354C286.25 24.4473 286.541 24.585 286.812 24.767L286.35 25.565C286.131 25.4297 285.897 25.3293 285.65 25.264C285.407 25.194 285.153 25.159 284.887 25.159C284.374 25.159 283.937 25.3317 283.578 25.677C283.219 26.0177 282.948 26.5007 282.766 27.126C282.584 27.7467 282.495 28.477 282.5 29.317L282.514 29.772C282.514 30.9573 282.67 31.8277 282.983 32.383C283.296 32.9337 283.807 33.209 284.516 33.209C285.127 33.209 285.585 32.992 285.888 32.558C286.196 32.124 286.35 31.5337 286.35 30.787C286.35 29.9937 286.194 29.4453 285.881 29.142C285.568 28.8387 285.155 28.687 284.642 28.687C284.143 28.687 283.702 28.8363 283.319 29.135C282.936 29.4337 282.626 29.8163 282.388 30.283L282.36 29.247C282.677 28.7057 283.039 28.316 283.445 28.078C283.851 27.84 284.311 27.721 284.824 27.721C285.323 27.721 285.778 27.8307 286.189 28.05C286.6 28.2693 286.929 28.6053 287.176 29.058C287.428 29.506 287.554 30.073 287.554 30.759C287.554 31.4683 287.419 32.0773 287.148 32.586C286.877 33.09 286.511 33.4797 286.049 33.755C285.587 34.0257 285.078 34.161 284.523 34.161C283.935 34.161 283.438 34.0513 283.032 33.832C282.626 33.608 282.297 33.2907 282.045 32.88C281.793 32.4647 281.609 31.9677 281.492 31.389C281.38 30.8057 281.324 30.157 281.324 29.443C281.324 28.379 281.464 27.455 281.744 26.671C282.029 25.887 282.437 25.2803 282.969 24.851C283.506 24.4217 284.152 24.207 284.908 24.207ZM295.423 24.361L295.248 25.299H291.44V28.337C291.734 28.1783 292.012 28.071 292.273 28.015C292.539 27.9543 292.817 27.924 293.106 27.924C293.629 27.924 294.089 28.043 294.485 28.281C294.882 28.5143 295.19 28.8573 295.409 29.31C295.629 29.7627 295.738 30.3087 295.738 30.948C295.738 31.5873 295.603 32.1497 295.332 32.635C295.066 33.1203 294.691 33.496 294.205 33.762C293.72 34.028 293.144 34.161 292.476 34.161C291.898 34.161 291.38 34.0583 290.922 33.853C290.47 33.6477 290.057 33.363 289.683 32.999L290.411 32.299C290.705 32.5977 291.02 32.8217 291.356 32.971C291.697 33.1157 292.075 33.188 292.49 33.188C293.125 33.188 293.62 32.9967 293.974 32.614C294.329 32.2267 294.506 31.6597 294.506 30.913C294.506 30.395 294.429 29.9867 294.275 29.688C294.121 29.3893 293.911 29.177 293.645 29.051C293.384 28.9203 293.092 28.855 292.77 28.855C292.486 28.855 292.234 28.883 292.014 28.939C291.795 28.9903 291.545 29.0697 291.265 29.177H290.32V24.361H295.423Z" fill="black"/>
<path d="M207.652 24.207L208.632 24.62L206.07 30.717H211.215V31.655H204.824V30.801L207.652 24.207ZM209.969 27.98V34H208.835L208.828 30.941L208.989 27.98H209.969ZM217.44 24.361V33.72H216.264V25.635L214.052 26.979L213.541 26.139L216.411 24.361H217.44ZM219.456 33.041V34H213.891V33.041H219.456ZM227.423 24.361L227.248 25.299H223.44V28.337C223.734 28.1783 224.012 28.071 224.273 28.015C224.539 27.9543 224.817 27.924 225.106 27.924C225.629 27.924 226.089 28.043 226.485 28.281C226.882 28.5143 227.19 28.8573 227.409 29.31C227.629 29.7627 227.738 30.3087 227.738 30.948C227.738 31.5873 227.603 32.1497 227.332 32.635C227.066 33.1203 226.691 33.496 226.205 33.762C225.72 34.028 225.144 34.161 224.476 34.161C223.898 34.161 223.38 34.0583 222.922 33.853C222.47 33.6477 222.057 33.363 221.683 32.999L222.411 32.299C222.705 32.5977 223.02 32.8217 223.356 32.971C223.697 33.1157 224.075 33.188 224.49 33.188C225.125 33.188 225.62 32.9967 225.974 32.614C226.329 32.2267 226.506 31.6597 226.506 30.913C226.506 30.395 226.429 29.9867 226.275 29.688C226.121 29.3893 225.911 29.177 225.645 29.051C225.384 28.9203 225.092 28.855 224.77 28.855C224.486 28.855 224.234 28.883 224.014 28.939C223.795 28.9903 223.545 29.0697 223.265 29.177H222.32V24.361H227.423Z" fill="black"/>
<path d="M140.652 24.207L141.632 24.62L139.07 30.717H144.215V31.655H137.824V30.801L140.652 24.207ZM142.969 27.98V34H141.835L141.828 30.941L141.989 27.98H142.969ZM149.908 24.207C150.281 24.207 150.624 24.256 150.937 24.354C151.25 24.4473 151.541 24.585 151.812 24.767L151.35 25.565C151.131 25.4297 150.897 25.3293 150.65 25.264C150.407 25.194 150.153 25.159 149.887 25.159C149.374 25.159 148.937 25.3317 148.578 25.677C148.219 26.0177 147.948 26.5007 147.766 27.126C147.584 27.7467 147.495 28.477 147.5 29.317L147.514 29.772C147.514 30.9573 147.67 31.8277 147.983 32.383C148.296 32.9337 148.807 33.209 149.516 33.209C150.127 33.209 150.585 32.992 150.888 32.558C151.196 32.124 151.35 31.5337 151.35 30.787C151.35 29.9937 151.194 29.4453 150.881 29.142C150.568 28.8387 150.155 28.687 149.642 28.687C149.143 28.687 148.702 28.8363 148.319 29.135C147.936 29.4337 147.626 29.8163 147.388 30.283L147.36 29.247C147.677 28.7057 148.039 28.316 148.445 28.078C148.851 27.84 149.311 27.721 149.824 27.721C150.323 27.721 150.778 27.8307 151.189 28.05C151.6 28.2693 151.929 28.6053 152.176 29.058C152.428 29.506 152.554 30.073 152.554 30.759C152.554 31.4683 152.419 32.0773 152.148 32.586C151.877 33.09 151.511 33.4797 151.049 33.755C150.587 34.0257 150.078 34.161 149.523 34.161C148.935 34.161 148.438 34.0513 148.032 33.832C147.626 33.608 147.297 33.2907 147.045 32.88C146.793 32.4647 146.609 31.9677 146.492 31.389C146.38 30.8057 146.324 30.157 146.324 29.443C146.324 28.379 146.464 27.455 146.744 26.671C147.029 25.887 147.437 25.2803 147.969 24.851C148.506 24.4217 149.152 24.207 149.908 24.207ZM160.423 24.361L160.248 25.299H156.44V28.337C156.734 28.1783 157.012 28.071 157.273 28.015C157.539 27.9543 157.817 27.924 158.106 27.924C158.629 27.924 159.089 28.043 159.485 28.281C159.882 28.5143 160.19 28.8573 160.409 29.31C160.629 29.7627 160.738 30.3087 160.738 30.948C160.738 31.5873 160.603 32.1497 160.332 32.635C160.066 33.1203 159.691 33.496 159.205 33.762C158.72 34.028 158.144 34.161 157.476 34.161C156.898 34.161 156.38 34.0583 155.922 33.853C155.47 33.6477 155.057 33.363 154.683 32.999L155.411 32.299C155.705 32.5977 156.02 32.8217 156.356 32.971C156.697 33.1157 157.075 33.188 157.49 33.188C158.125 33.188 158.62 32.9967 158.974 32.614C159.329 32.2267 159.506 31.6597 159.506 30.913C159.506 30.395 159.429 29.9867 159.275 29.688C159.121 29.3893 158.911 29.177 158.645 29.051C158.384 28.9203 158.092 28.855 157.77 28.855C157.486 28.855 157.234 28.883 157.014 28.939C156.795 28.9903 156.545 29.0697 156.265 29.177H155.32V24.361H160.423Z" fill="black"/>
<path d="M77.6344 24.361L77.4594 25.299H73.6514V28.337C73.9454 28.1783 74.2231 28.071 74.4844 28.015C74.7504 27.9543 75.0281 27.924 75.3174 27.924C75.8401 27.924 76.2997 28.043 76.6964 28.281C77.0931 28.5143 77.4011 28.8573 77.6204 29.31C77.8397 29.7627 77.9494 30.3087 77.9494 30.948C77.9494 31.5873 77.8141 32.1497 77.5434 32.635C77.2774 33.1203 76.9017 33.496 76.4164 33.762C75.9311 34.028 75.3547 34.161 74.6874 34.161C74.1087 34.161 73.5907 34.0583 73.1334 33.853C72.6807 33.6477 72.2677 33.363 71.8944 32.999L72.6224 32.299C72.9164 32.5977 73.2314 32.8217 73.5674 32.971C73.9081 33.1157 74.2861 33.188 74.7014 33.188C75.3361 33.188 75.8307 32.9967 76.1854 32.614C76.5401 32.2267 76.7174 31.6597 76.7174 30.913C76.7174 30.395 76.6404 29.9867 76.4864 29.688C76.3324 29.3893 76.1224 29.177 75.8564 29.051C75.5951 28.9203 75.3034 28.855 74.9814 28.855C74.6967 28.855 74.4447 28.883 74.2254 28.939C74.0061 28.9903 73.7564 29.0697 73.4764 29.177H72.5314V24.361H77.6344ZM84.4399 24.361V33.72H83.2639V25.635L81.0519 26.979L80.5409 26.139L83.4109 24.361H84.4399ZM86.4559 33.041V34H80.8909V33.041H86.4559ZM94.4235 24.361L94.2485 25.299H90.4405V28.337C90.7345 28.1783 91.0121 28.071 91.2735 28.015C91.5395 27.9543 91.8171 27.924 92.1065 27.924C92.6291 27.924 93.0888 28.043 93.4855 28.281C93.8821 28.5143 94.1901 28.8573 94.4095 29.31C94.6288 29.7627 94.7385 30.3087 94.7385 30.948C94.7385 31.5873 94.6031 32.1497 94.3325 32.635C94.0665 33.1203 93.6908 33.496 93.2055 33.762C92.7201 34.028 92.1438 34.161 91.4765 34.161C90.8978 34.161 90.3798 34.0583 89.9225 33.853C89.4698 33.6477 89.0568 33.363 88.6835 32.999L89.4115 32.299C89.7055 32.5977 90.0205 32.8217 90.3565 32.971C90.6971 33.1157 91.0751 33.188 91.4905 33.188C92.1251 33.188 92.6198 32.9967 92.9745 32.614C93.3291 32.2267 93.5065 31.6597 93.5065 30.913C93.5065 30.395 93.4295 29.9867 93.2755 29.688C93.1215 29.3893 92.9115 29.177 92.6455 29.051C92.3841 28.9203 92.0925 28.855 91.7705 28.855C91.4858 28.855 91.2338 28.883 91.0145 28.939C90.7951 28.9903 90.5455 29.0697 90.2655 29.177H89.3205V24.361H94.4235Z" fill="black"/>
<path d="M8.63441 24.361L8.45941 25.299H4.65141V28.337C4.94541 28.1783 5.22307 28.071 5.48441 28.015C5.75041 27.9543 6.02807 27.924 6.31741 27.924C6.84007 27.924 7.29974 28.043 7.69641 28.281C8.09307 28.5143 8.40107 28.8573 8.62041 29.31C8.83974 29.7627 8.94941 30.3087 8.94941 30.948C8.94941 31.5873 8.81407 32.1497 8.54341 32.635C8.27741 33.1203 7.90174 33.496 7.41641 33.762C6.93107 34.028 6.35474 34.161 5.68741 34.161C5.10874 34.161 4.59074 34.0583 4.13341 33.853C3.68074 33.6477 3.26774 33.363 2.89441 32.999L3.62241 32.299C3.91641 32.5977 4.23141 32.8217 4.56741 32.971C4.90807 33.1157 5.28607 33.188 5.70141 33.188C6.33607 33.188 6.83074 32.9967 7.18541 32.614C7.54007 32.2267 7.71741 31.6597 7.71741 30.913C7.71741 30.395 7.64041 29.9867 7.48641 29.688C7.33241 29.3893 7.12241 29.177 6.85641 29.051C6.59507 28.9203 6.30341 28.855 5.98141 28.855C5.69674 28.855 5.44474 28.883 5.22541 28.939C5.00607 28.9903 4.75641 29.0697 4.47641 29.177H3.53141V24.361H8.63441ZM14.9079 24.207C15.2813 24.207 15.6243 24.256 15.9369 24.354C16.2496 24.4473 16.5413 24.585 16.8119 24.767L16.3499 25.565C16.1306 25.4297 15.8973 25.3293 15.6499 25.264C15.4073 25.194 15.1529 25.159 14.8869 25.159C14.3736 25.159 13.9373 25.3317 13.5779 25.677C13.2186 26.0177 12.9479 26.5007 12.7659 27.126C12.5839 27.7467 12.4953 28.477 12.4999 29.317L12.5139 29.772C12.5139 30.9573 12.6703 31.8277 12.9829 32.383C13.2956 32.9337 13.8066 33.209 14.5159 33.209C15.1273 33.209 15.5846 32.992 15.8879 32.558C16.1959 32.124 16.3499 31.5337 16.3499 30.787C16.3499 29.9937 16.1936 29.4453 15.8809 29.142C15.5683 28.8387 15.1553 28.687 14.6419 28.687C14.1426 28.687 13.7016 28.8363 13.3189 29.135C12.9363 29.4337 12.6259 29.8163 12.3879 30.283L12.3599 29.247C12.6773 28.7057 13.0389 28.316 13.4449 28.078C13.8509 27.84 14.3106 27.721 14.8239 27.721C15.3233 27.721 15.7783 27.8307 16.1889 28.05C16.5996 28.2693 16.9286 28.6053 17.1759 29.058C17.4279 29.506 17.5539 30.073 17.5539 30.759C17.5539 31.4683 17.4186 32.0773 17.1479 32.586C16.8773 33.09 16.5109 33.4797 16.0489 33.755C15.5869 34.0257 15.0783 34.161 14.5229 34.161C13.9349 34.161 13.4379 34.0513 13.0319 33.832C12.6259 33.608 12.2969 33.2907 12.0449 32.88C11.7929 32.4647 11.6086 31.9677 11.4919 31.389C11.3799 30.8057 11.3239 30.157 11.3239 29.443C11.3239 28.379 11.4639 27.455 11.7439 26.671C12.0286 25.887 12.4369 25.2803 12.9689 24.851C13.5056 24.4217 14.1519 24.207 14.9079 24.207ZM25.4235 24.361L25.2485 25.299H21.4405V28.337C21.7345 28.1783 22.0121 28.071 22.2735 28.015C22.5395 27.9543 22.8171 27.924 23.1065 27.924C23.6291 27.924 24.0888 28.043 24.4855 28.281C24.8821 28.5143 25.1901 28.8573 25.4095 29.31C25.6288 29.7627 25.7385 30.3087 25.7385 30.948C25.7385 31.5873 25.6031 32.1497 25.3325 32.635C25.0665 33.1203 24.6908 33.496 24.2055 33.762C23.7201 34.028 23.1438 34.161 22.4765 34.161C21.8978 34.161 21.3798 34.0583 20.9225 33.853C20.4698 33.6477 20.0568 33.363 19.6835 32.999L20.4115 32.299C20.7055 32.5977 21.0205 32.8217 21.3565 32.971C21.6971 33.1157 22.0751 33.188 22.4905 33.188C23.1251 33.188 23.6198 32.9967 23.9745 32.614C24.3291 32.2267 24.5065 31.6597 24.5065 30.913C24.5065 30.395 24.4295 29.9867 24.2755 29.688C24.1215 29.3893 23.9115 29.177 23.6455 29.051C23.3841 28.9203 23.0925 28.855 22.7705 28.855C22.4858 28.855 22.2338 28.883 22.0145 28.939C21.7951 28.9903 21.5455 29.0697 21.2655 29.177H20.3205V24.361H25.4235Z" fill="black"/>
</svg>
