<svg width="696" height="38" viewBox="0 0 696 38" fill="none" xmlns="http://www.w3.org/2000/svg">
<line x1="15" y1="23" x2="15" y2="38" stroke="black" stroke-width="2"/>
<line x1="15" y1="23" x2="15" y2="38" stroke="black" stroke-width="2"/>
<line x1="83" y1="23" x2="83" y2="38" stroke="black" stroke-width="2"/>
<line x1="83" y1="23" x2="83" y2="38" stroke="black" stroke-width="2"/>
<line x1="150" y1="23" x2="150" y2="38" stroke="black" stroke-width="2"/>
<line x1="150" y1="23" x2="150" y2="38" stroke="black" stroke-width="2"/>
<line x1="216" y1="23" x2="216" y2="38" stroke="black" stroke-width="2"/>
<line x1="216" y1="23" x2="216" y2="38" stroke="black" stroke-width="2"/>
<line x1="284" y1="23" x2="284" y2="38" stroke="black" stroke-width="2"/>
<line x1="284" y1="23" x2="284" y2="38" stroke="black" stroke-width="2"/>
<line x1="352" y1="23" x2="352" y2="38" stroke="black" stroke-width="2"/>
<line x1="352" y1="23" x2="352" y2="38" stroke="black" stroke-width="2"/>
<line x1="419" y1="23" x2="419" y2="38" stroke="black" stroke-width="2"/>
<line x1="419" y1="23" x2="419" y2="38" stroke="black" stroke-width="2"/>
<line x1="486" y1="23" x2="486" y2="38" stroke="black" stroke-width="2"/>
<line x1="486" y1="23" x2="486" y2="38" stroke="black" stroke-width="2"/>
<line x1="552" y1="23" x2="552" y2="38" stroke="black" stroke-width="2"/>
<line x1="552" y1="23" x2="552" y2="38" stroke="black" stroke-width="2"/>
<line x1="621" y1="23" x2="621" y2="38" stroke="black" stroke-width="2"/>
<line x1="621" y1="23" x2="621" y2="38" stroke="black" stroke-width="2"/>
<line x1="688" y1="23" x2="688" y2="38" stroke="black" stroke-width="2"/>
<line x1="688" y1="23" x2="688" y2="38" stroke="black" stroke-width="2"/>
<path d="M683.908 4.207C684.281 4.207 684.624 4.256 684.937 4.354C685.25 4.44733 685.541 4.585 685.812 4.767L685.35 5.565C685.131 5.42967 684.897 5.32933 684.65 5.264C684.407 5.194 684.153 5.159 683.887 5.159C683.374 5.159 682.937 5.33167 682.578 5.677C682.219 6.01767 681.948 6.50067 681.766 7.126C681.584 7.74667 681.495 8.477 681.5 9.317L681.514 9.772C681.514 10.9573 681.67 11.8277 681.983 12.383C682.296 12.9337 682.807 13.209 683.516 13.209C684.127 13.209 684.585 12.992 684.888 12.558C685.196 12.124 685.35 11.5337 685.35 10.787C685.35 9.99367 685.194 9.44533 684.881 9.142C684.568 8.83867 684.155 8.687 683.642 8.687C683.143 8.687 682.702 8.83633 682.319 9.135C681.936 9.43367 681.626 9.81633 681.388 10.283L681.36 9.247C681.677 8.70567 682.039 8.316 682.445 8.078C682.851 7.84 683.311 7.721 683.824 7.721C684.323 7.721 684.778 7.83067 685.189 8.05C685.6 8.26933 685.929 8.60533 686.176 9.058C686.428 9.506 686.554 10.073 686.554 10.759C686.554 11.4683 686.419 12.0773 686.148 12.586C685.877 13.09 685.511 13.4797 685.049 13.755C684.587 14.0257 684.078 14.161 683.523 14.161C682.935 14.161 682.438 14.0513 682.032 13.832C681.626 13.608 681.297 13.2907 681.045 12.88C680.793 12.4647 680.609 11.9677 680.492 11.389C680.38 10.8057 680.324 10.157 680.324 9.443C680.324 8.379 680.464 7.455 680.744 6.671C681.029 5.887 681.437 5.28033 681.969 4.851C682.506 4.42167 683.152 4.207 683.908 4.207ZM694.423 4.361L694.248 5.299H690.44V8.337C690.734 8.17833 691.012 8.071 691.273 8.015C691.539 7.95433 691.817 7.924 692.106 7.924C692.629 7.924 693.089 8.043 693.485 8.281C693.882 8.51433 694.19 8.85733 694.409 9.31C694.629 9.76267 694.738 10.3087 694.738 10.948C694.738 11.5873 694.603 12.1497 694.332 12.635C694.066 13.1203 693.691 13.496 693.205 13.762C692.72 14.028 692.144 14.161 691.476 14.161C690.898 14.161 690.38 14.0583 689.922 13.853C689.47 13.6477 689.057 13.363 688.683 12.999L689.411 12.299C689.705 12.5977 690.02 12.8217 690.356 12.971C690.697 13.1157 691.075 13.188 691.49 13.188C692.125 13.188 692.62 12.9967 692.974 12.614C693.329 12.2267 693.506 11.6597 693.506 10.913C693.506 10.395 693.429 9.98667 693.275 9.688C693.121 9.38933 692.911 9.177 692.645 9.051C692.384 8.92033 692.092 8.855 691.77 8.855C691.486 8.855 691.234 8.883 691.014 8.939C690.795 8.99033 690.545 9.06967 690.265 9.177H689.32V4.361H694.423Z" fill="black"/>
<path d="M615.045 4.361V13.72H613.869V5.635L611.657 6.979L611.146 6.139L614.016 4.361H615.045ZM617.061 13.041V14H611.496V13.041H617.061ZM623.44 4.361V13.72H622.264V5.635L620.052 6.979L619.541 6.139L622.411 4.361H623.44ZM625.456 13.041V14H619.891V13.041H625.456ZM633.423 4.361L633.248 5.299H629.44V8.337C629.734 8.17833 630.012 8.071 630.273 8.015C630.539 7.95433 630.817 7.924 631.106 7.924C631.629 7.924 632.089 8.043 632.485 8.281C632.882 8.51433 633.19 8.85733 633.409 9.31C633.629 9.76267 633.738 10.3087 633.738 10.948C633.738 11.5873 633.603 12.1497 633.332 12.635C633.066 13.1203 632.691 13.496 632.205 13.762C631.72 14.028 631.144 14.161 630.476 14.161C629.898 14.161 629.38 14.0583 628.922 13.853C628.47 13.6477 628.057 13.363 627.683 12.999L628.411 12.299C628.705 12.5977 629.02 12.8217 629.356 12.971C629.697 13.1157 630.075 13.188 630.49 13.188C631.125 13.188 631.62 12.9967 631.974 12.614C632.329 12.2267 632.506 11.6597 632.506 10.913C632.506 10.395 632.429 9.98667 632.275 9.688C632.121 9.38933 631.911 9.177 631.645 9.051C631.384 8.92033 631.092 8.855 630.77 8.855C630.486 8.855 630.234 8.883 630.014 8.939C629.795 8.99033 629.545 9.06967 629.265 9.177H628.32V4.361H633.423Z" fill="black"/>
<path d="M546.045 4.361V13.72H544.869V5.635L542.657 6.979L542.146 6.139L545.016 4.361H546.045ZM548.061 13.041V14H542.496V13.041H548.061ZM553.908 4.207C554.281 4.207 554.624 4.256 554.937 4.354C555.25 4.44733 555.541 4.585 555.812 4.767L555.35 5.565C555.131 5.42967 554.897 5.32933 554.65 5.264C554.407 5.194 554.153 5.159 553.887 5.159C553.374 5.159 552.937 5.33167 552.578 5.677C552.219 6.01767 551.948 6.50067 551.766 7.126C551.584 7.74667 551.495 8.477 551.5 9.317L551.514 9.772C551.514 10.9573 551.67 11.8277 551.983 12.383C552.296 12.9337 552.807 13.209 553.516 13.209C554.127 13.209 554.585 12.992 554.888 12.558C555.196 12.124 555.35 11.5337 555.35 10.787C555.35 9.99367 555.194 9.44533 554.881 9.142C554.568 8.83867 554.155 8.687 553.642 8.687C553.143 8.687 552.702 8.83633 552.319 9.135C551.936 9.43367 551.626 9.81633 551.388 10.283L551.36 9.247C551.677 8.70567 552.039 8.316 552.445 8.078C552.851 7.84 553.311 7.721 553.824 7.721C554.323 7.721 554.778 7.83067 555.189 8.05C555.6 8.26933 555.929 8.60533 556.176 9.058C556.428 9.506 556.554 10.073 556.554 10.759C556.554 11.4683 556.419 12.0773 556.148 12.586C555.877 13.09 555.511 13.4797 555.049 13.755C554.587 14.0257 554.078 14.161 553.523 14.161C552.935 14.161 552.438 14.0513 552.032 13.832C551.626 13.608 551.297 13.2907 551.045 12.88C550.793 12.4647 550.609 11.9677 550.492 11.389C550.38 10.8057 550.324 10.157 550.324 9.443C550.324 8.379 550.464 7.455 550.744 6.671C551.029 5.887 551.437 5.28033 551.969 4.851C552.506 4.42167 553.152 4.207 553.908 4.207ZM564.423 4.361L564.248 5.299H560.44V8.337C560.734 8.17833 561.012 8.071 561.273 8.015C561.539 7.95433 561.817 7.924 562.106 7.924C562.629 7.924 563.089 8.043 563.485 8.281C563.882 8.51433 564.19 8.85733 564.409 9.31C564.629 9.76267 564.738 10.3087 564.738 10.948C564.738 11.5873 564.603 12.1497 564.332 12.635C564.066 13.1203 563.691 13.496 563.205 13.762C562.72 14.028 562.144 14.161 561.476 14.161C560.898 14.161 560.38 14.0583 559.922 13.853C559.47 13.6477 559.057 13.363 558.683 12.999L559.411 12.299C559.705 12.5977 560.02 12.8217 560.356 12.971C560.697 13.1157 561.075 13.188 561.49 13.188C562.125 13.188 562.62 12.9967 562.974 12.614C563.329 12.2267 563.506 11.6597 563.506 10.913C563.506 10.395 563.429 9.98667 563.275 9.688C563.121 9.38933 562.911 9.177 562.645 9.051C562.384 8.92033 562.092 8.855 561.77 8.855C561.486 8.855 561.234 8.883 561.014 8.939C560.795 8.99033 560.545 9.06967 560.265 9.177H559.32V4.361H564.423Z" fill="black"/>
<path d="M477.589 4.207C478.196 4.207 478.714 4.32367 479.143 4.557C479.577 4.79033 479.911 5.11 480.144 5.516C480.378 5.922 480.494 6.38167 480.494 6.895C480.494 7.33833 480.417 7.77233 480.263 8.197C480.109 8.617 479.862 9.06033 479.521 9.527C479.185 9.989 478.742 10.5023 478.191 11.067C477.645 11.6317 476.973 12.2757 476.175 12.999H480.718L480.571 14H474.838V13.041C475.566 12.3457 476.185 11.7367 476.693 11.214C477.207 10.6913 477.629 10.234 477.96 9.842C478.296 9.44533 478.558 9.086 478.744 8.764C478.936 8.442 479.069 8.13633 479.143 7.847C479.218 7.553 479.255 7.24967 479.255 6.937C479.255 6.39567 479.101 5.96867 478.793 5.656C478.49 5.34333 478.07 5.187 477.533 5.187C477.057 5.187 476.668 5.26867 476.364 5.432C476.061 5.59533 475.758 5.85667 475.454 6.216L474.642 5.586C475.025 5.11933 475.45 4.774 475.916 4.55C476.383 4.32133 476.941 4.207 477.589 4.207ZM487.44 4.361V13.72H486.264V5.635L484.052 6.979L483.541 6.139L486.411 4.361H487.44ZM489.456 13.041V14H483.891V13.041H489.456ZM497.423 4.361L497.248 5.299H493.44V8.337C493.734 8.17833 494.012 8.071 494.273 8.015C494.539 7.95433 494.817 7.924 495.106 7.924C495.629 7.924 496.089 8.043 496.485 8.281C496.882 8.51433 497.19 8.85733 497.409 9.31C497.629 9.76267 497.738 10.3087 497.738 10.948C497.738 11.5873 497.603 12.1497 497.332 12.635C497.066 13.1203 496.691 13.496 496.205 13.762C495.72 14.028 495.144 14.161 494.476 14.161C493.898 14.161 493.38 14.0583 492.922 13.853C492.47 13.6477 492.057 13.363 491.683 12.999L492.411 12.299C492.705 12.5977 493.02 12.8217 493.356 12.971C493.697 13.1157 494.075 13.188 494.49 13.188C495.125 13.188 495.62 12.9967 495.974 12.614C496.329 12.2267 496.506 11.6597 496.506 10.913C496.506 10.395 496.429 9.98667 496.275 9.688C496.121 9.38933 495.911 9.177 495.645 9.051C495.384 8.92033 495.092 8.855 494.77 8.855C494.486 8.855 494.234 8.883 494.014 8.939C493.795 8.99033 493.545 9.06967 493.265 9.177H492.32V4.361H497.423Z" fill="black"/>
<path d="M411.589 4.207C412.196 4.207 412.714 4.32367 413.143 4.557C413.577 4.79033 413.911 5.11 414.144 5.516C414.378 5.922 414.494 6.38167 414.494 6.895C414.494 7.33833 414.417 7.77233 414.263 8.197C414.109 8.617 413.862 9.06033 413.521 9.527C413.185 9.989 412.742 10.5023 412.191 11.067C411.645 11.6317 410.973 12.2757 410.175 12.999H414.718L414.571 14H408.838V13.041C409.566 12.3457 410.185 11.7367 410.693 11.214C411.207 10.6913 411.629 10.234 411.96 9.842C412.296 9.44533 412.558 9.086 412.744 8.764C412.936 8.442 413.069 8.13633 413.143 7.847C413.218 7.553 413.255 7.24967 413.255 6.937C413.255 6.39567 413.101 5.96867 412.793 5.656C412.49 5.34333 412.07 5.187 411.533 5.187C411.057 5.187 410.668 5.26867 410.364 5.432C410.061 5.59533 409.758 5.85667 409.454 6.216L408.642 5.586C409.025 5.11933 409.45 4.774 409.916 4.55C410.383 4.32133 410.941 4.207 411.589 4.207ZM420.908 4.207C421.281 4.207 421.624 4.256 421.937 4.354C422.25 4.44733 422.541 4.585 422.812 4.767L422.35 5.565C422.131 5.42967 421.897 5.32933 421.65 5.264C421.407 5.194 421.153 5.159 420.887 5.159C420.374 5.159 419.937 5.33167 419.578 5.677C419.219 6.01767 418.948 6.50067 418.766 7.126C418.584 7.74667 418.495 8.477 418.5 9.317L418.514 9.772C418.514 10.9573 418.67 11.8277 418.983 12.383C419.296 12.9337 419.807 13.209 420.516 13.209C421.127 13.209 421.585 12.992 421.888 12.558C422.196 12.124 422.35 11.5337 422.35 10.787C422.35 9.99367 422.194 9.44533 421.881 9.142C421.568 8.83867 421.155 8.687 420.642 8.687C420.143 8.687 419.702 8.83633 419.319 9.135C418.936 9.43367 418.626 9.81633 418.388 10.283L418.36 9.247C418.677 8.70567 419.039 8.316 419.445 8.078C419.851 7.84 420.311 7.721 420.824 7.721C421.323 7.721 421.778 7.83067 422.189 8.05C422.6 8.26933 422.929 8.60533 423.176 9.058C423.428 9.506 423.554 10.073 423.554 10.759C423.554 11.4683 423.419 12.0773 423.148 12.586C422.877 13.09 422.511 13.4797 422.049 13.755C421.587 14.0257 421.078 14.161 420.523 14.161C419.935 14.161 419.438 14.0513 419.032 13.832C418.626 13.608 418.297 13.2907 418.045 12.88C417.793 12.4647 417.609 11.9677 417.492 11.389C417.38 10.8057 417.324 10.157 417.324 9.443C417.324 8.379 417.464 7.455 417.744 6.671C418.029 5.887 418.437 5.28033 418.969 4.851C419.506 4.42167 420.152 4.207 420.908 4.207ZM431.423 4.361L431.248 5.299H427.44V8.337C427.734 8.17833 428.012 8.071 428.273 8.015C428.539 7.95433 428.817 7.924 429.106 7.924C429.629 7.924 430.089 8.043 430.485 8.281C430.882 8.51433 431.19 8.85733 431.409 9.31C431.629 9.76267 431.738 10.3087 431.738 10.948C431.738 11.5873 431.603 12.1497 431.332 12.635C431.066 13.1203 430.691 13.496 430.205 13.762C429.72 14.028 429.144 14.161 428.476 14.161C427.898 14.161 427.38 14.0583 426.922 13.853C426.47 13.6477 426.057 13.363 425.683 12.999L426.411 12.299C426.705 12.5977 427.02 12.8217 427.356 12.971C427.697 13.1157 428.075 13.188 428.49 13.188C429.125 13.188 429.62 12.9967 429.974 12.614C430.329 12.2267 430.506 11.6597 430.506 10.913C430.506 10.395 430.429 9.98667 430.275 9.688C430.121 9.38933 429.911 9.177 429.645 9.051C429.384 8.92033 429.092 8.855 428.77 8.855C428.486 8.855 428.234 8.883 428.014 8.939C427.795 8.99033 427.545 9.06967 427.265 9.177H426.32V4.361H431.423Z" fill="black"/>
<path d="M342.575 4.207C343.182 4.207 343.705 4.31667 344.143 4.536C344.587 4.75067 344.93 5.04233 345.172 5.411C345.415 5.775 345.536 6.17633 345.536 6.615C345.536 7.00233 345.45 7.35467 345.277 7.672C345.105 7.98933 344.876 8.25067 344.591 8.456C344.307 8.66133 343.994 8.79667 343.653 8.862C344.031 8.89 344.386 8.99733 344.717 9.184C345.049 9.366 345.319 9.62733 345.529 9.968C345.739 10.304 345.844 10.7217 345.844 11.221C345.844 11.7763 345.704 12.278 345.424 12.726C345.144 13.1693 344.752 13.5193 344.248 13.776C343.749 14.0327 343.166 14.161 342.498 14.161C341.962 14.161 341.425 14.0583 340.888 13.853C340.356 13.6477 339.906 13.321 339.537 12.873L340.328 12.229C340.604 12.551 340.93 12.7913 341.308 12.95C341.691 13.1087 342.078 13.188 342.47 13.188C343.142 13.188 343.667 13.013 344.045 12.663C344.423 12.3083 344.612 11.8277 344.612 11.221C344.612 10.7637 344.524 10.402 344.346 10.136C344.174 9.87 343.938 9.681 343.639 9.569C343.341 9.45233 343 9.394 342.617 9.394H341.805L341.952 8.463H342.519C342.832 8.463 343.126 8.40467 343.401 8.288C343.681 8.16667 343.91 7.98 344.087 7.728C344.265 7.476 344.353 7.161 344.353 6.783C344.353 6.251 344.176 5.845 343.821 5.565C343.467 5.285 343.037 5.145 342.533 5.145C342.113 5.145 341.747 5.21967 341.434 5.369C341.122 5.51367 340.807 5.73533 340.489 6.034L339.838 5.313C340.249 4.92567 340.685 4.64567 341.147 4.473C341.609 4.29567 342.085 4.207 342.575 4.207ZM352.44 4.361V13.72H351.264V5.635L349.052 6.979L348.541 6.139L351.411 4.361H352.44ZM354.456 13.041V14H348.891V13.041H354.456ZM362.423 4.361L362.248 5.299H358.44V8.337C358.734 8.17833 359.012 8.071 359.273 8.015C359.539 7.95433 359.817 7.924 360.106 7.924C360.629 7.924 361.089 8.043 361.485 8.281C361.882 8.51433 362.19 8.85733 362.409 9.31C362.629 9.76267 362.738 10.3087 362.738 10.948C362.738 11.5873 362.603 12.1497 362.332 12.635C362.066 13.1203 361.691 13.496 361.205 13.762C360.72 14.028 360.144 14.161 359.476 14.161C358.898 14.161 358.38 14.0583 357.922 13.853C357.47 13.6477 357.057 13.363 356.683 12.999L357.411 12.299C357.705 12.5977 358.02 12.8217 358.356 12.971C358.697 13.1157 359.075 13.188 359.49 13.188C360.125 13.188 360.62 12.9967 360.974 12.614C361.329 12.2267 361.506 11.6597 361.506 10.913C361.506 10.395 361.429 9.98667 361.275 9.688C361.121 9.38933 360.911 9.177 360.645 9.051C360.384 8.92033 360.092 8.855 359.77 8.855C359.486 8.855 359.234 8.883 359.014 8.939C358.795 8.99033 358.545 9.06967 358.265 9.177H357.32V4.361H362.423Z" fill="black"/>
<path d="M275.575 4.207C276.182 4.207 276.705 4.31667 277.143 4.536C277.587 4.75067 277.93 5.04233 278.172 5.411C278.415 5.775 278.536 6.17633 278.536 6.615C278.536 7.00233 278.45 7.35467 278.277 7.672C278.105 7.98933 277.876 8.25067 277.591 8.456C277.307 8.66133 276.994 8.79667 276.653 8.862C277.031 8.89 277.386 8.99733 277.717 9.184C278.049 9.366 278.319 9.62733 278.529 9.968C278.739 10.304 278.844 10.7217 278.844 11.221C278.844 11.7763 278.704 12.278 278.424 12.726C278.144 13.1693 277.752 13.5193 277.248 13.776C276.749 14.0327 276.166 14.161 275.498 14.161C274.962 14.161 274.425 14.0583 273.888 13.853C273.356 13.6477 272.906 13.321 272.537 12.873L273.328 12.229C273.604 12.551 273.93 12.7913 274.308 12.95C274.691 13.1087 275.078 13.188 275.47 13.188C276.142 13.188 276.667 13.013 277.045 12.663C277.423 12.3083 277.612 11.8277 277.612 11.221C277.612 10.7637 277.524 10.402 277.346 10.136C277.174 9.87 276.938 9.681 276.639 9.569C276.341 9.45233 276 9.394 275.617 9.394H274.805L274.952 8.463H275.519C275.832 8.463 276.126 8.40467 276.401 8.288C276.681 8.16667 276.91 7.98 277.087 7.728C277.265 7.476 277.353 7.161 277.353 6.783C277.353 6.251 277.176 5.845 276.821 5.565C276.467 5.285 276.037 5.145 275.533 5.145C275.113 5.145 274.747 5.21967 274.434 5.369C274.122 5.51367 273.807 5.73533 273.489 6.034L272.838 5.313C273.249 4.92567 273.685 4.64567 274.147 4.473C274.609 4.29567 275.085 4.207 275.575 4.207ZM284.908 4.207C285.281 4.207 285.624 4.256 285.937 4.354C286.25 4.44733 286.541 4.585 286.812 4.767L286.35 5.565C286.131 5.42967 285.897 5.32933 285.65 5.264C285.407 5.194 285.153 5.159 284.887 5.159C284.374 5.159 283.937 5.33167 283.578 5.677C283.219 6.01767 282.948 6.50067 282.766 7.126C282.584 7.74667 282.495 8.477 282.5 9.317L282.514 9.772C282.514 10.9573 282.67 11.8277 282.983 12.383C283.296 12.9337 283.807 13.209 284.516 13.209C285.127 13.209 285.585 12.992 285.888 12.558C286.196 12.124 286.35 11.5337 286.35 10.787C286.35 9.99367 286.194 9.44533 285.881 9.142C285.568 8.83867 285.155 8.687 284.642 8.687C284.143 8.687 283.702 8.83633 283.319 9.135C282.936 9.43367 282.626 9.81633 282.388 10.283L282.36 9.247C282.677 8.70567 283.039 8.316 283.445 8.078C283.851 7.84 284.311 7.721 284.824 7.721C285.323 7.721 285.778 7.83067 286.189 8.05C286.6 8.26933 286.929 8.60533 287.176 9.058C287.428 9.506 287.554 10.073 287.554 10.759C287.554 11.4683 287.419 12.0773 287.148 12.586C286.877 13.09 286.511 13.4797 286.049 13.755C285.587 14.0257 285.078 14.161 284.523 14.161C283.935 14.161 283.438 14.0513 283.032 13.832C282.626 13.608 282.297 13.2907 282.045 12.88C281.793 12.4647 281.609 11.9677 281.492 11.389C281.38 10.8057 281.324 10.157 281.324 9.443C281.324 8.379 281.464 7.455 281.744 6.671C282.029 5.887 282.437 5.28033 282.969 4.851C283.506 4.42167 284.152 4.207 284.908 4.207ZM295.423 4.361L295.248 5.299H291.44V8.337C291.734 8.17833 292.012 8.071 292.273 8.015C292.539 7.95433 292.817 7.924 293.106 7.924C293.629 7.924 294.089 8.043 294.485 8.281C294.882 8.51433 295.19 8.85733 295.409 9.31C295.629 9.76267 295.738 10.3087 295.738 10.948C295.738 11.5873 295.603 12.1497 295.332 12.635C295.066 13.1203 294.691 13.496 294.205 13.762C293.72 14.028 293.144 14.161 292.476 14.161C291.898 14.161 291.38 14.0583 290.922 13.853C290.47 13.6477 290.057 13.363 289.683 12.999L290.411 12.299C290.705 12.5977 291.02 12.8217 291.356 12.971C291.697 13.1157 292.075 13.188 292.49 13.188C293.125 13.188 293.62 12.9967 293.974 12.614C294.329 12.2267 294.506 11.6597 294.506 10.913C294.506 10.395 294.429 9.98667 294.275 9.688C294.121 9.38933 293.911 9.177 293.645 9.051C293.384 8.92033 293.092 8.855 292.77 8.855C292.486 8.855 292.234 8.883 292.014 8.939C291.795 8.99033 291.545 9.06967 291.265 9.177H290.32V4.361H295.423Z" fill="black"/>
<path d="M207.652 4.207L208.632 4.62L206.07 10.717H211.215V11.655H204.824V10.801L207.652 4.207ZM209.969 7.98V14H208.835L208.828 10.941L208.989 7.98H209.969ZM217.44 4.361V13.72H216.264V5.635L214.052 6.979L213.541 6.139L216.411 4.361H217.44ZM219.456 13.041V14H213.891V13.041H219.456ZM227.423 4.361L227.248 5.299H223.44V8.337C223.734 8.17833 224.012 8.071 224.273 8.015C224.539 7.95433 224.817 7.924 225.106 7.924C225.629 7.924 226.089 8.043 226.485 8.281C226.882 8.51433 227.19 8.85733 227.409 9.31C227.629 9.76267 227.738 10.3087 227.738 10.948C227.738 11.5873 227.603 12.1497 227.332 12.635C227.066 13.1203 226.691 13.496 226.205 13.762C225.72 14.028 225.144 14.161 224.476 14.161C223.898 14.161 223.38 14.0583 222.922 13.853C222.47 13.6477 222.057 13.363 221.683 12.999L222.411 12.299C222.705 12.5977 223.02 12.8217 223.356 12.971C223.697 13.1157 224.075 13.188 224.49 13.188C225.125 13.188 225.62 12.9967 225.974 12.614C226.329 12.2267 226.506 11.6597 226.506 10.913C226.506 10.395 226.429 9.98667 226.275 9.688C226.121 9.38933 225.911 9.177 225.645 9.051C225.384 8.92033 225.092 8.855 224.77 8.855C224.486 8.855 224.234 8.883 224.014 8.939C223.795 8.99033 223.545 9.06967 223.265 9.177H222.32V4.361H227.423Z" fill="black"/>
<path d="M140.652 4.207L141.632 4.62L139.07 10.717H144.215V11.655H137.824V10.801L140.652 4.207ZM142.969 7.98V14H141.835L141.828 10.941L141.989 7.98H142.969ZM149.908 4.207C150.281 4.207 150.624 4.256 150.937 4.354C151.25 4.44733 151.541 4.585 151.812 4.767L151.35 5.565C151.131 5.42967 150.897 5.32933 150.65 5.264C150.407 5.194 150.153 5.159 149.887 5.159C149.374 5.159 148.937 5.33167 148.578 5.677C148.219 6.01767 147.948 6.50067 147.766 7.126C147.584 7.74667 147.495 8.477 147.5 9.317L147.514 9.772C147.514 10.9573 147.67 11.8277 147.983 12.383C148.296 12.9337 148.807 13.209 149.516 13.209C150.127 13.209 150.585 12.992 150.888 12.558C151.196 12.124 151.35 11.5337 151.35 10.787C151.35 9.99367 151.194 9.44533 150.881 9.142C150.568 8.83867 150.155 8.687 149.642 8.687C149.143 8.687 148.702 8.83633 148.319 9.135C147.936 9.43367 147.626 9.81633 147.388 10.283L147.36 9.247C147.677 8.70567 148.039 8.316 148.445 8.078C148.851 7.84 149.311 7.721 149.824 7.721C150.323 7.721 150.778 7.83067 151.189 8.05C151.6 8.26933 151.929 8.60533 152.176 9.058C152.428 9.506 152.554 10.073 152.554 10.759C152.554 11.4683 152.419 12.0773 152.148 12.586C151.877 13.09 151.511 13.4797 151.049 13.755C150.587 14.0257 150.078 14.161 149.523 14.161C148.935 14.161 148.438 14.0513 148.032 13.832C147.626 13.608 147.297 13.2907 147.045 12.88C146.793 12.4647 146.609 11.9677 146.492 11.389C146.38 10.8057 146.324 10.157 146.324 9.443C146.324 8.379 146.464 7.455 146.744 6.671C147.029 5.887 147.437 5.28033 147.969 4.851C148.506 4.42167 149.152 4.207 149.908 4.207ZM160.423 4.361L160.248 5.299H156.44V8.337C156.734 8.17833 157.012 8.071 157.273 8.015C157.539 7.95433 157.817 7.924 158.106 7.924C158.629 7.924 159.089 8.043 159.485 8.281C159.882 8.51433 160.19 8.85733 160.409 9.31C160.629 9.76267 160.738 10.3087 160.738 10.948C160.738 11.5873 160.603 12.1497 160.332 12.635C160.066 13.1203 159.691 13.496 159.205 13.762C158.72 14.028 158.144 14.161 157.476 14.161C156.898 14.161 156.38 14.0583 155.922 13.853C155.47 13.6477 155.057 13.363 154.683 12.999L155.411 12.299C155.705 12.5977 156.02 12.8217 156.356 12.971C156.697 13.1157 157.075 13.188 157.49 13.188C158.125 13.188 158.62 12.9967 158.974 12.614C159.329 12.2267 159.506 11.6597 159.506 10.913C159.506 10.395 159.429 9.98667 159.275 9.688C159.121 9.38933 158.911 9.177 158.645 9.051C158.384 8.92033 158.092 8.855 157.77 8.855C157.486 8.855 157.234 8.883 157.014 8.939C156.795 8.99033 156.545 9.06967 156.265 9.177H155.32V4.361H160.423Z" fill="black"/>
<path d="M77.6344 4.361L77.4594 5.299H73.6514V8.337C73.9454 8.17833 74.2231 8.071 74.4844 8.015C74.7504 7.95433 75.0281 7.924 75.3174 7.924C75.8401 7.924 76.2997 8.043 76.6964 8.281C77.0931 8.51433 77.4011 8.85733 77.6204 9.31C77.8397 9.76267 77.9494 10.3087 77.9494 10.948C77.9494 11.5873 77.8141 12.1497 77.5434 12.635C77.2774 13.1203 76.9017 13.496 76.4164 13.762C75.9311 14.028 75.3547 14.161 74.6874 14.161C74.1087 14.161 73.5907 14.0583 73.1334 13.853C72.6807 13.6477 72.2677 13.363 71.8944 12.999L72.6224 12.299C72.9164 12.5977 73.2314 12.8217 73.5674 12.971C73.9081 13.1157 74.2861 13.188 74.7014 13.188C75.3361 13.188 75.8307 12.9967 76.1854 12.614C76.5401 12.2267 76.7174 11.6597 76.7174 10.913C76.7174 10.395 76.6404 9.98667 76.4864 9.688C76.3324 9.38933 76.1224 9.177 75.8564 9.051C75.5951 8.92033 75.3034 8.855 74.9814 8.855C74.6967 8.855 74.4447 8.883 74.2254 8.939C74.0061 8.99033 73.7564 9.06967 73.4764 9.177H72.5314V4.361H77.6344ZM84.4399 4.361V13.72H83.2639V5.635L81.0519 6.979L80.5409 6.139L83.4109 4.361H84.4399ZM86.4559 13.041V14H80.8909V13.041H86.4559ZM94.4235 4.361L94.2485 5.299H90.4405V8.337C90.7345 8.17833 91.0121 8.071 91.2735 8.015C91.5395 7.95433 91.8171 7.924 92.1065 7.924C92.6291 7.924 93.0888 8.043 93.4855 8.281C93.8821 8.51433 94.1901 8.85733 94.4095 9.31C94.6288 9.76267 94.7385 10.3087 94.7385 10.948C94.7385 11.5873 94.6031 12.1497 94.3325 12.635C94.0665 13.1203 93.6908 13.496 93.2055 13.762C92.7201 14.028 92.1438 14.161 91.4765 14.161C90.8978 14.161 90.3798 14.0583 89.9225 13.853C89.4698 13.6477 89.0568 13.363 88.6835 12.999L89.4115 12.299C89.7055 12.5977 90.0205 12.8217 90.3565 12.971C90.6971 13.1157 91.0751 13.188 91.4905 13.188C92.1251 13.188 92.6198 12.9967 92.9745 12.614C93.3291 12.2267 93.5065 11.6597 93.5065 10.913C93.5065 10.395 93.4295 9.98667 93.2755 9.688C93.1215 9.38933 92.9115 9.177 92.6455 9.051C92.3841 8.92033 92.0925 8.855 91.7705 8.855C91.4858 8.855 91.2338 8.883 91.0145 8.939C90.7951 8.99033 90.5455 9.06967 90.2655 9.177H89.3205V4.361H94.4235Z" fill="black"/>
<path d="M8.63441 4.361L8.45941 5.299H4.65141V8.337C4.94541 8.17833 5.22307 8.071 5.48441 8.015C5.75041 7.95433 6.02807 7.924 6.31741 7.924C6.84007 7.924 7.29974 8.043 7.69641 8.281C8.09307 8.51433 8.40107 8.85733 8.62041 9.31C8.83974 9.76267 8.94941 10.3087 8.94941 10.948C8.94941 11.5873 8.81407 12.1497 8.54341 12.635C8.27741 13.1203 7.90174 13.496 7.41641 13.762C6.93107 14.028 6.35474 14.161 5.68741 14.161C5.10874 14.161 4.59074 14.0583 4.13341 13.853C3.68074 13.6477 3.26774 13.363 2.89441 12.999L3.62241 12.299C3.91641 12.5977 4.23141 12.8217 4.56741 12.971C4.90807 13.1157 5.28607 13.188 5.70141 13.188C6.33607 13.188 6.83074 12.9967 7.18541 12.614C7.54007 12.2267 7.71741 11.6597 7.71741 10.913C7.71741 10.395 7.64041 9.98667 7.48641 9.688C7.33241 9.38933 7.12241 9.177 6.85641 9.051C6.59507 8.92033 6.30341 8.855 5.98141 8.855C5.69674 8.855 5.44474 8.883 5.22541 8.939C5.00607 8.99033 4.75641 9.06967 4.47641 9.177H3.53141V4.361H8.63441ZM14.9079 4.207C15.2813 4.207 15.6243 4.256 15.9369 4.354C16.2496 4.44733 16.5413 4.585 16.8119 4.767L16.3499 5.565C16.1306 5.42967 15.8973 5.32933 15.6499 5.264C15.4073 5.194 15.1529 5.159 14.8869 5.159C14.3736 5.159 13.9373 5.33167 13.5779 5.677C13.2186 6.01767 12.9479 6.50067 12.7659 7.126C12.5839 7.74667 12.4953 8.477 12.4999 9.317L12.5139 9.772C12.5139 10.9573 12.6703 11.8277 12.9829 12.383C13.2956 12.9337 13.8066 13.209 14.5159 13.209C15.1273 13.209 15.5846 12.992 15.8879 12.558C16.1959 12.124 16.3499 11.5337 16.3499 10.787C16.3499 9.99367 16.1936 9.44533 15.8809 9.142C15.5683 8.83867 15.1553 8.687 14.6419 8.687C14.1426 8.687 13.7016 8.83633 13.3189 9.135C12.9363 9.43367 12.6259 9.81633 12.3879 10.283L12.3599 9.247C12.6773 8.70567 13.0389 8.316 13.4449 8.078C13.8509 7.84 14.3106 7.721 14.8239 7.721C15.3233 7.721 15.7783 7.83067 16.1889 8.05C16.5996 8.26933 16.9286 8.60533 17.1759 9.058C17.4279 9.506 17.5539 10.073 17.5539 10.759C17.5539 11.4683 17.4186 12.0773 17.1479 12.586C16.8773 13.09 16.5109 13.4797 16.0489 13.755C15.5869 14.0257 15.0783 14.161 14.5229 14.161C13.9349 14.161 13.4379 14.0513 13.0319 13.832C12.6259 13.608 12.2969 13.2907 12.0449 12.88C11.7929 12.4647 11.6086 11.9677 11.4919 11.389C11.3799 10.8057 11.3239 10.157 11.3239 9.443C11.3239 8.379 11.4639 7.455 11.7439 6.671C12.0286 5.887 12.4369 5.28033 12.9689 4.851C13.5056 4.42167 14.1519 4.207 14.9079 4.207ZM25.4235 4.361L25.2485 5.299H21.4405V8.337C21.7345 8.17833 22.0121 8.071 22.2735 8.015C22.5395 7.95433 22.8171 7.924 23.1065 7.924C23.6291 7.924 24.0888 8.043 24.4855 8.281C24.8821 8.51433 25.1901 8.85733 25.4095 9.31C25.6288 9.76267 25.7385 10.3087 25.7385 10.948C25.7385 11.5873 25.6031 12.1497 25.3325 12.635C25.0665 13.1203 24.6908 13.496 24.2055 13.762C23.7201 14.028 23.1438 14.161 22.4765 14.161C21.8978 14.161 21.3798 14.0583 20.9225 13.853C20.4698 13.6477 20.0568 13.363 19.6835 12.999L20.4115 12.299C20.7055 12.5977 21.0205 12.8217 21.3565 12.971C21.6971 13.1157 22.0751 13.188 22.4905 13.188C23.1251 13.188 23.6198 12.9967 23.9745 12.614C24.3291 12.2267 24.5065 11.6597 24.5065 10.913C24.5065 10.395 24.4295 9.98667 24.2755 9.688C24.1215 9.38933 23.9115 9.177 23.6455 9.051C23.3841 8.92033 23.0925 8.855 22.7705 8.855C22.4858 8.855 22.2338 8.883 22.0145 8.939C21.7951 8.99033 21.5455 9.06967 21.2655 9.177H20.3205V4.361H25.4235Z" fill="black"/>
</svg>
