<svg width="46" height="382" viewBox="0 0 46 382" fill="none" xmlns="http://www.w3.org/2000/svg">
<line x1="31" y1="369" x2="46" y2="369" stroke="black" stroke-width="2"/>
<line x1="31" y1="309" x2="46" y2="309" stroke="black" stroke-width="2"/>
<line x1="31" y1="249" x2="46" y2="249" stroke="black" stroke-width="2"/>
<line x1="31" y1="189" x2="46" y2="189" stroke="black" stroke-width="2"/>
<line x1="31" y1="129" x2="46" y2="129" stroke="black" stroke-width="2"/>
<line x1="31" y1="69" x2="46" y2="69" stroke="black" stroke-width="2"/>
<line x1="31" y1="9" x2="46" y2="9" stroke="black" stroke-width="2"/>
<path d="M16.0289 364.361L15.8539 365.299H12.0459V368.337C12.3399 368.178 12.6176 368.071 12.8789 368.015C13.1449 367.954 13.4226 367.924 13.7119 367.924C14.2346 367.924 14.6943 368.043 15.0909 368.281C15.4876 368.514 15.7956 368.857 16.0149 369.31C16.2343 369.763 16.3439 370.309 16.3439 370.948C16.3439 371.587 16.2086 372.15 15.9379 372.635C15.6719 373.12 15.2963 373.496 14.8109 373.762C14.3256 374.028 13.7493 374.161 13.0819 374.161C12.5033 374.161 11.9853 374.058 11.5279 373.853C11.0753 373.648 10.6623 373.363 10.2889 372.999L11.0169 372.299C11.3109 372.598 11.6259 372.822 11.9619 372.971C12.3026 373.116 12.6806 373.188 13.0959 373.188C13.7306 373.188 14.2253 372.997 14.5799 372.614C14.9346 372.227 15.1119 371.66 15.1119 370.913C15.1119 370.395 15.0349 369.987 14.8809 369.688C14.7269 369.389 14.5169 369.177 14.2509 369.051C13.9896 368.92 13.6979 368.855 13.3759 368.855C13.0913 368.855 12.8393 368.883 12.6199 368.939C12.4006 368.99 12.1509 369.07 11.8709 369.177H10.9259V364.361H16.0289ZM21.8055 364.207C22.8461 364.207 23.6325 364.636 24.1645 365.495C24.6965 366.354 24.9625 367.581 24.9625 369.177C24.9625 370.778 24.6965 372.01 24.1645 372.873C23.6325 373.732 22.8461 374.161 21.8055 374.161C20.7695 374.161 19.9831 373.732 19.4465 372.873C18.9145 372.01 18.6485 370.778 18.6485 369.177C18.6485 367.581 18.9145 366.354 19.4465 365.495C19.9831 364.636 20.7695 364.207 21.8055 364.207ZM21.8055 365.152C21.2128 365.152 20.7461 365.467 20.4055 366.097C20.0648 366.722 19.8945 367.749 19.8945 369.177C19.8945 370.138 19.9621 370.915 20.0975 371.508C20.2328 372.101 20.4405 372.532 20.7205 372.803C21.0051 373.074 21.3668 373.209 21.8055 373.209C22.2068 373.209 22.5498 373.071 22.8345 372.796C23.1238 372.521 23.3431 372.087 23.4925 371.494C23.6465 370.897 23.7235 370.124 23.7235 369.177C23.7235 368.216 23.6558 367.439 23.5205 366.846C23.3898 366.253 23.1821 365.824 22.8975 365.558C22.6175 365.287 22.2535 365.152 21.8055 365.152ZM23.2265 365.495L23.5345 366.524L20.4685 372.733L20.0345 371.914L23.2265 365.495Z" fill="black"/>
<path d="M6.04541 303.361V312.72H4.86941V304.635L2.65741 305.979L2.14641 305.139L5.01641 303.361H6.04541ZM8.06141 312.041V313H2.49641V312.041H8.06141ZM13.4109 303.207C14.4516 303.207 15.2379 303.636 15.7699 304.495C16.3019 305.354 16.5679 306.581 16.5679 308.177C16.5679 309.778 16.3019 311.01 15.7699 311.873C15.2379 312.732 14.4516 313.161 13.4109 313.161C12.3749 313.161 11.5886 312.732 11.0519 311.873C10.5199 311.01 10.2539 309.778 10.2539 308.177C10.2539 306.581 10.5199 305.354 11.0519 304.495C11.5886 303.636 12.3749 303.207 13.4109 303.207ZM13.4109 304.152C12.8183 304.152 12.3516 304.467 12.0109 305.097C11.6703 305.722 11.4999 306.749 11.4999 308.177C11.4999 309.138 11.5676 309.915 11.7029 310.508C11.8383 311.101 12.0459 311.532 12.3259 311.803C12.6106 312.074 12.9723 312.209 13.4109 312.209C13.8123 312.209 14.1553 312.071 14.4399 311.796C14.7293 311.521 14.9486 311.087 15.0979 310.494C15.2519 309.897 15.3289 309.124 15.3289 308.177C15.3289 307.216 15.2613 306.439 15.1259 305.846C14.9953 305.253 14.7876 304.824 14.5029 304.558C14.2229 304.287 13.8589 304.152 13.4109 304.152ZM14.8319 304.495L15.1399 305.524L12.0739 311.733L11.6399 310.914L14.8319 304.495ZM21.8055 303.207C22.8461 303.207 23.6325 303.636 24.1645 304.495C24.6965 305.354 24.9625 306.581 24.9625 308.177C24.9625 309.778 24.6965 311.01 24.1645 311.873C23.6325 312.732 22.8461 313.161 21.8055 313.161C20.7695 313.161 19.9831 312.732 19.4465 311.873C18.9145 311.01 18.6485 309.778 18.6485 308.177C18.6485 306.581 18.9145 305.354 19.4465 304.495C19.9831 303.636 20.7695 303.207 21.8055 303.207ZM21.8055 304.152C21.2128 304.152 20.7461 304.467 20.4055 305.097C20.0648 305.722 19.8945 306.749 19.8945 308.177C19.8945 309.138 19.9621 309.915 20.0975 310.508C20.2328 311.101 20.4405 311.532 20.7205 311.803C21.0051 312.074 21.3668 312.209 21.8055 312.209C22.2068 312.209 22.5498 312.071 22.8345 311.796C23.1238 311.521 23.3431 311.087 23.4925 310.494C23.6465 309.897 23.7235 309.124 23.7235 308.177C23.7235 307.216 23.6558 306.439 23.5205 305.846C23.3898 305.253 23.1821 304.824 22.8975 304.558C22.6175 304.287 22.2535 304.152 21.8055 304.152ZM23.2265 304.495L23.5345 305.524L20.4685 311.733L20.0345 310.914L23.2265 304.495Z" fill="black"/>
<path d="M6.04541 244.361V253.72H4.86941V245.635L2.65741 246.979L2.14641 246.139L5.01641 244.361H6.04541ZM8.06141 253.041V254H2.49641V253.041H8.06141ZM16.0289 244.361L15.8539 245.299H12.0459V248.337C12.3399 248.178 12.6176 248.071 12.8789 248.015C13.1449 247.954 13.4226 247.924 13.7119 247.924C14.2346 247.924 14.6943 248.043 15.0909 248.281C15.4876 248.514 15.7956 248.857 16.0149 249.31C16.2343 249.763 16.3439 250.309 16.3439 250.948C16.3439 251.587 16.2086 252.15 15.9379 252.635C15.6719 253.12 15.2963 253.496 14.8109 253.762C14.3256 254.028 13.7493 254.161 13.0819 254.161C12.5033 254.161 11.9853 254.058 11.5279 253.853C11.0753 253.648 10.6623 253.363 10.2889 252.999L11.0169 252.299C11.3109 252.598 11.6259 252.822 11.9619 252.971C12.3026 253.116 12.6806 253.188 13.0959 253.188C13.7306 253.188 14.2253 252.997 14.5799 252.614C14.9346 252.227 15.1119 251.66 15.1119 250.913C15.1119 250.395 15.0349 249.987 14.8809 249.688C14.7269 249.389 14.5169 249.177 14.2509 249.051C13.9896 248.92 13.6979 248.855 13.3759 248.855C13.0913 248.855 12.8393 248.883 12.6199 248.939C12.4006 248.99 12.1509 249.07 11.8709 249.177H10.9259V244.361H16.0289ZM21.8055 244.207C22.8461 244.207 23.6325 244.636 24.1645 245.495C24.6965 246.354 24.9625 247.581 24.9625 249.177C24.9625 250.778 24.6965 252.01 24.1645 252.873C23.6325 253.732 22.8461 254.161 21.8055 254.161C20.7695 254.161 19.9831 253.732 19.4465 252.873C18.9145 252.01 18.6485 250.778 18.6485 249.177C18.6485 247.581 18.9145 246.354 19.4465 245.495C19.9831 244.636 20.7695 244.207 21.8055 244.207ZM21.8055 245.152C21.2128 245.152 20.7461 245.467 20.4055 246.097C20.0648 246.722 19.8945 247.749 19.8945 249.177C19.8945 250.138 19.9621 250.915 20.0975 251.508C20.2328 252.101 20.4405 252.532 20.7205 252.803C21.0051 253.074 21.3668 253.209 21.8055 253.209C22.2068 253.209 22.5498 253.071 22.8345 252.796C23.1238 252.521 23.3431 252.087 23.4925 251.494C23.6465 250.897 23.7235 250.124 23.7235 249.177C23.7235 248.216 23.6558 247.439 23.5205 246.846C23.3898 246.253 23.1821 245.824 22.8975 245.558C22.6175 245.287 22.2535 245.152 21.8055 245.152ZM23.2265 245.495L23.5345 246.524L20.4685 252.733L20.0345 251.914L23.2265 245.495Z" fill="black"/>
<path d="M4.58941 183.207C5.19607 183.207 5.71407 183.324 6.14341 183.557C6.57741 183.79 6.91107 184.11 7.14441 184.516C7.37774 184.922 7.49441 185.382 7.49441 185.895C7.49441 186.338 7.41741 186.772 7.26341 187.197C7.10941 187.617 6.86207 188.06 6.52141 188.527C6.18541 188.989 5.74207 189.502 5.19141 190.067C4.64541 190.632 3.97341 191.276 3.17541 191.999H7.71841L7.57141 193H1.83841V192.041C2.56641 191.346 3.18474 190.737 3.69341 190.214C4.20674 189.691 4.62907 189.234 4.96041 188.842C5.29641 188.445 5.55774 188.086 5.74441 187.764C5.93574 187.442 6.06874 187.136 6.14341 186.847C6.21807 186.553 6.25541 186.25 6.25541 185.937C6.25541 185.396 6.10141 184.969 5.79341 184.656C5.49007 184.343 5.07007 184.187 4.53341 184.187C4.05741 184.187 3.66774 184.269 3.36441 184.432C3.06107 184.595 2.75774 184.857 2.45441 185.216L1.64241 184.586C2.02507 184.119 2.44974 183.774 2.91641 183.55C3.38307 183.321 3.94074 183.207 4.58941 183.207ZM13.4109 183.207C14.4516 183.207 15.2379 183.636 15.7699 184.495C16.3019 185.354 16.5679 186.581 16.5679 188.177C16.5679 189.778 16.3019 191.01 15.7699 191.873C15.2379 192.732 14.4516 193.161 13.4109 193.161C12.3749 193.161 11.5886 192.732 11.0519 191.873C10.5199 191.01 10.2539 189.778 10.2539 188.177C10.2539 186.581 10.5199 185.354 11.0519 184.495C11.5886 183.636 12.3749 183.207 13.4109 183.207ZM13.4109 184.152C12.8183 184.152 12.3516 184.467 12.0109 185.097C11.6703 185.722 11.4999 186.749 11.4999 188.177C11.4999 189.138 11.5676 189.915 11.7029 190.508C11.8383 191.101 12.0459 191.532 12.3259 191.803C12.6106 192.074 12.9723 192.209 13.4109 192.209C13.8123 192.209 14.1553 192.071 14.4399 191.796C14.7293 191.521 14.9486 191.087 15.0979 190.494C15.2519 189.897 15.3289 189.124 15.3289 188.177C15.3289 187.216 15.2613 186.439 15.1259 185.846C14.9953 185.253 14.7876 184.824 14.5029 184.558C14.2229 184.287 13.8589 184.152 13.4109 184.152ZM14.8319 184.495L15.1399 185.524L12.0739 191.733L11.6399 190.914L14.8319 184.495ZM21.8055 183.207C22.8461 183.207 23.6325 183.636 24.1645 184.495C24.6965 185.354 24.9625 186.581 24.9625 188.177C24.9625 189.778 24.6965 191.01 24.1645 191.873C23.6325 192.732 22.8461 193.161 21.8055 193.161C20.7695 193.161 19.9831 192.732 19.4465 191.873C18.9145 191.01 18.6485 189.778 18.6485 188.177C18.6485 186.581 18.9145 185.354 19.4465 184.495C19.9831 183.636 20.7695 183.207 21.8055 183.207ZM21.8055 184.152C21.2128 184.152 20.7461 184.467 20.4055 185.097C20.0648 185.722 19.8945 186.749 19.8945 188.177C19.8945 189.138 19.9621 189.915 20.0975 190.508C20.2328 191.101 20.4405 191.532 20.7205 191.803C21.0051 192.074 21.3668 192.209 21.8055 192.209C22.2068 192.209 22.5498 192.071 22.8345 191.796C23.1238 191.521 23.3431 191.087 23.4925 190.494C23.6465 189.897 23.7235 189.124 23.7235 188.177C23.7235 187.216 23.6558 186.439 23.5205 185.846C23.3898 185.253 23.1821 184.824 22.8975 184.558C22.6175 184.287 22.2535 184.152 21.8055 184.152ZM23.2265 184.495L23.5345 185.524L20.4685 191.733L20.0345 190.914L23.2265 184.495Z" fill="black"/>
<path d="M4.58941 124.207C5.19607 124.207 5.71407 124.324 6.14341 124.557C6.57741 124.79 6.91107 125.11 7.14441 125.516C7.37774 125.922 7.49441 126.382 7.49441 126.895C7.49441 127.338 7.41741 127.772 7.26341 128.197C7.10941 128.617 6.86207 129.06 6.52141 129.527C6.18541 129.989 5.74207 130.502 5.19141 131.067C4.64541 131.632 3.97341 132.276 3.17541 132.999H7.71841L7.57141 134H1.83841V133.041C2.56641 132.346 3.18474 131.737 3.69341 131.214C4.20674 130.691 4.62907 130.234 4.96041 129.842C5.29641 129.445 5.55774 129.086 5.74441 128.764C5.93574 128.442 6.06874 128.136 6.14341 127.847C6.21807 127.553 6.25541 127.25 6.25541 126.937C6.25541 126.396 6.10141 125.969 5.79341 125.656C5.49007 125.343 5.07007 125.187 4.53341 125.187C4.05741 125.187 3.66774 125.269 3.36441 125.432C3.06107 125.595 2.75774 125.857 2.45441 126.216L1.64241 125.586C2.02507 125.119 2.44974 124.774 2.91641 124.55C3.38307 124.321 3.94074 124.207 4.58941 124.207ZM16.0289 124.361L15.8539 125.299H12.0459V128.337C12.3399 128.178 12.6176 128.071 12.8789 128.015C13.1449 127.954 13.4226 127.924 13.7119 127.924C14.2346 127.924 14.6943 128.043 15.0909 128.281C15.4876 128.514 15.7956 128.857 16.0149 129.31C16.2343 129.763 16.3439 130.309 16.3439 130.948C16.3439 131.587 16.2086 132.15 15.9379 132.635C15.6719 133.12 15.2963 133.496 14.8109 133.762C14.3256 134.028 13.7493 134.161 13.0819 134.161C12.5033 134.161 11.9853 134.058 11.5279 133.853C11.0753 133.648 10.6623 133.363 10.2889 132.999L11.0169 132.299C11.3109 132.598 11.6259 132.822 11.9619 132.971C12.3026 133.116 12.6806 133.188 13.0959 133.188C13.7306 133.188 14.2253 132.997 14.5799 132.614C14.9346 132.227 15.1119 131.66 15.1119 130.913C15.1119 130.395 15.0349 129.987 14.8809 129.688C14.7269 129.389 14.5169 129.177 14.2509 129.051C13.9896 128.92 13.6979 128.855 13.3759 128.855C13.0913 128.855 12.8393 128.883 12.6199 128.939C12.4006 128.99 12.1509 129.07 11.8709 129.177H10.9259V124.361H16.0289ZM21.8055 124.207C22.8461 124.207 23.6325 124.636 24.1645 125.495C24.6965 126.354 24.9625 127.581 24.9625 129.177C24.9625 130.778 24.6965 132.01 24.1645 132.873C23.6325 133.732 22.8461 134.161 21.8055 134.161C20.7695 134.161 19.9831 133.732 19.4465 132.873C18.9145 132.01 18.6485 130.778 18.6485 129.177C18.6485 127.581 18.9145 126.354 19.4465 125.495C19.9831 124.636 20.7695 124.207 21.8055 124.207ZM21.8055 125.152C21.2128 125.152 20.7461 125.467 20.4055 126.097C20.0648 126.722 19.8945 127.749 19.8945 129.177C19.8945 130.138 19.9621 130.915 20.0975 131.508C20.2328 132.101 20.4405 132.532 20.7205 132.803C21.0051 133.074 21.3668 133.209 21.8055 133.209C22.2068 133.209 22.5498 133.071 22.8345 132.796C23.1238 132.521 23.3431 132.087 23.4925 131.494C23.6465 130.897 23.7235 130.124 23.7235 129.177C23.7235 128.216 23.6558 127.439 23.5205 126.846C23.3898 126.253 23.1821 125.824 22.8975 125.558C22.6175 125.287 22.2535 125.152 21.8055 125.152ZM23.2265 125.495L23.5345 126.524L20.4685 132.733L20.0345 131.914L23.2265 125.495Z" fill="black"/>
<path d="M4.57541 64.207C5.18207 64.207 5.70474 64.3167 6.14341 64.536C6.58674 64.7507 6.92974 65.0423 7.17241 65.411C7.41507 65.775 7.53641 66.1763 7.53641 66.615C7.53641 67.0023 7.45007 67.3547 7.27741 67.672C7.10474 67.9893 6.87607 68.2507 6.59141 68.456C6.30674 68.6613 5.99407 68.7967 5.65341 68.862C6.03141 68.89 6.38607 68.9973 6.71741 69.184C7.04874 69.366 7.31941 69.6273 7.52941 69.968C7.73941 70.304 7.84441 70.7217 7.84441 71.221C7.84441 71.7763 7.70441 72.278 7.42441 72.726C7.14441 73.1693 6.75241 73.5193 6.24841 73.776C5.74907 74.0327 5.16574 74.161 4.49841 74.161C3.96174 74.161 3.42507 74.0583 2.88841 73.853C2.35641 73.6477 1.90607 73.321 1.53741 72.873L2.32841 72.229C2.60374 72.551 2.93041 72.7913 3.30841 72.95C3.69107 73.1087 4.07841 73.188 4.47041 73.188C5.14241 73.188 5.66741 73.013 6.04541 72.663C6.42341 72.3083 6.61241 71.8277 6.61241 71.221C6.61241 70.7637 6.52374 70.402 6.34641 70.136C6.17374 69.87 5.93807 69.681 5.63941 69.569C5.34074 69.4523 5.00007 69.394 4.61741 69.394H3.80541L3.95241 68.463H4.51941C4.83207 68.463 5.12607 68.4047 5.40141 68.288C5.68141 68.1667 5.91007 67.98 6.08741 67.728C6.26474 67.476 6.35341 67.161 6.35341 66.783C6.35341 66.251 6.17607 65.845 5.82141 65.565C5.46674 65.285 5.03741 65.145 4.53341 65.145C4.11341 65.145 3.74707 65.2197 3.43441 65.369C3.12174 65.5137 2.80674 65.7353 2.48941 66.034L1.83841 65.313C2.24907 64.9257 2.68541 64.6457 3.14741 64.473C3.60941 64.2957 4.08541 64.207 4.57541 64.207ZM13.4109 64.207C14.4516 64.207 15.2379 64.6363 15.7699 65.495C16.3019 66.3537 16.5679 67.581 16.5679 69.177C16.5679 70.7777 16.3019 72.0097 15.7699 72.873C15.2379 73.7317 14.4516 74.161 13.4109 74.161C12.3749 74.161 11.5886 73.7317 11.0519 72.873C10.5199 72.0097 10.2539 70.7777 10.2539 69.177C10.2539 67.581 10.5199 66.3537 11.0519 65.495C11.5886 64.6363 12.3749 64.207 13.4109 64.207ZM13.4109 65.152C12.8183 65.152 12.3516 65.467 12.0109 66.097C11.6703 66.7223 11.4999 67.749 11.4999 69.177C11.4999 70.1383 11.5676 70.9153 11.7029 71.508C11.8383 72.1007 12.0459 72.5323 12.3259 72.803C12.6106 73.0737 12.9723 73.209 13.4109 73.209C13.8123 73.209 14.1553 73.0713 14.4399 72.796C14.7293 72.5207 14.9486 72.0867 15.0979 71.494C15.2519 70.8967 15.3289 70.1243 15.3289 69.177C15.3289 68.2157 15.2613 67.4387 15.1259 66.846C14.9953 66.2533 14.7876 65.824 14.5029 65.558C14.2229 65.2873 13.8589 65.152 13.4109 65.152ZM14.8319 65.495L15.1399 66.524L12.0739 72.733L11.6399 71.914L14.8319 65.495ZM21.8055 64.207C22.8461 64.207 23.6325 64.6363 24.1645 65.495C24.6965 66.3537 24.9625 67.581 24.9625 69.177C24.9625 70.7777 24.6965 72.0097 24.1645 72.873C23.6325 73.7317 22.8461 74.161 21.8055 74.161C20.7695 74.161 19.9831 73.7317 19.4465 72.873C18.9145 72.0097 18.6485 70.7777 18.6485 69.177C18.6485 67.581 18.9145 66.3537 19.4465 65.495C19.9831 64.6363 20.7695 64.207 21.8055 64.207ZM21.8055 65.152C21.2128 65.152 20.7461 65.467 20.4055 66.097C20.0648 66.7223 19.8945 67.749 19.8945 69.177C19.8945 70.1383 19.9621 70.9153 20.0975 71.508C20.2328 72.1007 20.4405 72.5323 20.7205 72.803C21.0051 73.0737 21.3668 73.209 21.8055 73.209C22.2068 73.209 22.5498 73.0713 22.8345 72.796C23.1238 72.5207 23.3431 72.0867 23.4925 71.494C23.6465 70.8967 23.7235 70.1243 23.7235 69.177C23.7235 68.2157 23.6558 67.4387 23.5205 66.846C23.3898 66.2533 23.1821 65.824 22.8975 65.558C22.6175 65.2873 22.2535 65.152 21.8055 65.152ZM23.2265 65.495L23.5345 66.524L20.4685 72.733L20.0345 71.914L23.2265 65.495Z" fill="black"/>
<path d="M4.65241 4.207L5.63241 4.62L3.07041 10.717H8.21541V11.655H1.82441V10.801L4.65241 4.207ZM6.96941 7.98V14H5.83541L5.82841 10.941L5.98941 7.98H6.96941ZM13.4109 4.207C14.4516 4.207 15.2379 4.63633 15.7699 5.495C16.3019 6.35367 16.5679 7.581 16.5679 9.177C16.5679 10.7777 16.3019 12.0097 15.7699 12.873C15.2379 13.7317 14.4516 14.161 13.4109 14.161C12.3749 14.161 11.5886 13.7317 11.0519 12.873C10.5199 12.0097 10.2539 10.7777 10.2539 9.177C10.2539 7.581 10.5199 6.35367 11.0519 5.495C11.5886 4.63633 12.3749 4.207 13.4109 4.207ZM13.4109 5.152C12.8183 5.152 12.3516 5.467 12.0109 6.097C11.6703 6.72233 11.4999 7.749 11.4999 9.177C11.4999 10.1383 11.5676 10.9153 11.7029 11.508C11.8383 12.1007 12.0459 12.5323 12.3259 12.803C12.6106 13.0737 12.9723 13.209 13.4109 13.209C13.8123 13.209 14.1553 13.0713 14.4399 12.796C14.7293 12.5207 14.9486 12.0867 15.0979 11.494C15.2519 10.8967 15.3289 10.1243 15.3289 9.177C15.3289 8.21567 15.2613 7.43867 15.1259 6.846C14.9953 6.25333 14.7876 5.824 14.5029 5.558C14.2229 5.28733 13.8589 5.152 13.4109 5.152ZM14.8319 5.495L15.1399 6.524L12.0739 12.733L11.6399 11.914L14.8319 5.495ZM21.8055 4.207C22.8461 4.207 23.6325 4.63633 24.1645 5.495C24.6965 6.35367 24.9625 7.581 24.9625 9.177C24.9625 10.7777 24.6965 12.0097 24.1645 12.873C23.6325 13.7317 22.8461 14.161 21.8055 14.161C20.7695 14.161 19.9831 13.7317 19.4465 12.873C18.9145 12.0097 18.6485 10.7777 18.6485 9.177C18.6485 7.581 18.9145 6.35367 19.4465 5.495C19.9831 4.63633 20.7695 4.207 21.8055 4.207ZM21.8055 5.152C21.2128 5.152 20.7461 5.467 20.4055 6.097C20.0648 6.72233 19.8945 7.749 19.8945 9.177C19.8945 10.1383 19.9621 10.9153 20.0975 11.508C20.2328 12.1007 20.4405 12.5323 20.7205 12.803C21.0051 13.0737 21.3668 13.209 21.8055 13.209C22.2068 13.209 22.5498 13.0713 22.8345 12.796C23.1238 12.5207 23.3431 12.0867 23.4925 11.494C23.6465 10.8967 23.7235 10.1243 23.7235 9.177C23.7235 8.21567 23.6558 7.43867 23.5205 6.846C23.3898 6.25333 23.1821 5.824 22.8975 5.558C22.6175 5.28733 22.2535 5.152 21.8055 5.152ZM23.2265 5.495L23.5345 6.524L20.4685 12.733L20.0345 11.914L23.2265 5.495Z" fill="black"/>
</svg>
