<svg width="46" height="382" viewBox="0 0 46 382" fill="none" xmlns="http://www.w3.org/2000/svg">
<line y1="369" x2="15" y2="369" stroke="black" stroke-width="2"/>
<line y1="309" x2="15" y2="309" stroke="black" stroke-width="2"/>
<line y1="249" x2="15" y2="249" stroke="black" stroke-width="2"/>
<line y1="189" x2="15" y2="189" stroke="black" stroke-width="2"/>
<line y1="129" x2="15" y2="129" stroke="black" stroke-width="2"/>
<line y1="69" x2="15" y2="69" stroke="black" stroke-width="2"/>
<line y1="9" x2="15" y2="9" stroke="black" stroke-width="2"/>
<path d="M27.0289 364.361L26.8539 365.299H23.0459V368.337C23.3399 368.178 23.6176 368.071 23.8789 368.015C24.1449 367.954 24.4226 367.924 24.7119 367.924C25.2346 367.924 25.6943 368.043 26.0909 368.281C26.4876 368.514 26.7956 368.857 27.0149 369.31C27.2343 369.763 27.3439 370.309 27.3439 370.948C27.3439 371.587 27.2086 372.15 26.9379 372.635C26.6719 373.12 26.2963 373.496 25.8109 373.762C25.3256 374.028 24.7493 374.161 24.0819 374.161C23.5033 374.161 22.9853 374.058 22.5279 373.853C22.0753 373.648 21.6623 373.363 21.2889 372.999L22.0169 372.299C22.3109 372.598 22.6259 372.822 22.9619 372.971C23.3026 373.116 23.6806 373.188 24.0959 373.188C24.7306 373.188 25.2253 372.997 25.5799 372.614C25.9346 372.227 26.1119 371.66 26.1119 370.913C26.1119 370.395 26.0349 369.987 25.8809 369.688C25.7269 369.389 25.5169 369.177 25.2509 369.051C24.9896 368.92 24.6979 368.855 24.3759 368.855C24.0913 368.855 23.8393 368.883 23.6199 368.939C23.4006 368.99 23.1509 369.07 22.8709 369.177H21.9259V364.361H27.0289ZM32.8055 364.207C33.8461 364.207 34.6325 364.636 35.1645 365.495C35.6965 366.354 35.9625 367.581 35.9625 369.177C35.9625 370.778 35.6965 372.01 35.1645 372.873C34.6325 373.732 33.8461 374.161 32.8055 374.161C31.7695 374.161 30.9831 373.732 30.4465 372.873C29.9145 372.01 29.6485 370.778 29.6485 369.177C29.6485 367.581 29.9145 366.354 30.4465 365.495C30.9831 364.636 31.7695 364.207 32.8055 364.207ZM32.8055 365.152C32.2128 365.152 31.7461 365.467 31.4055 366.097C31.0648 366.722 30.8945 367.749 30.8945 369.177C30.8945 370.138 30.9621 370.915 31.0975 371.508C31.2328 372.101 31.4405 372.532 31.7205 372.803C32.0051 373.074 32.3668 373.209 32.8055 373.209C33.2068 373.209 33.5498 373.071 33.8345 372.796C34.1238 372.521 34.3431 372.087 34.4925 371.494C34.6465 370.897 34.7235 370.124 34.7235 369.177C34.7235 368.216 34.6558 367.439 34.5205 366.846C34.3898 366.253 34.1821 365.824 33.8975 365.558C33.6175 365.287 33.2535 365.152 32.8055 365.152ZM34.2265 365.495L34.5345 366.524L31.4685 372.733L31.0345 371.914L34.2265 365.495Z" fill="black"/>
<path d="M26.0454 303.361V312.72H24.8694V304.635L22.6574 305.979L22.1464 305.139L25.0164 303.361H26.0454ZM28.0614 312.041V313H22.4964V312.041H28.0614ZM33.4109 303.207C34.4516 303.207 35.2379 303.636 35.7699 304.495C36.3019 305.354 36.5679 306.581 36.5679 308.177C36.5679 309.778 36.3019 311.01 35.7699 311.873C35.2379 312.732 34.4516 313.161 33.4109 313.161C32.3749 313.161 31.5886 312.732 31.0519 311.873C30.5199 311.01 30.2539 309.778 30.2539 308.177C30.2539 306.581 30.5199 305.354 31.0519 304.495C31.5886 303.636 32.3749 303.207 33.4109 303.207ZM33.4109 304.152C32.8183 304.152 32.3516 304.467 32.0109 305.097C31.6703 305.722 31.4999 306.749 31.4999 308.177C31.4999 309.138 31.5676 309.915 31.7029 310.508C31.8383 311.101 32.0459 311.532 32.3259 311.803C32.6106 312.074 32.9723 312.209 33.4109 312.209C33.8123 312.209 34.1553 312.071 34.4399 311.796C34.7293 311.521 34.9486 311.087 35.0979 310.494C35.2519 309.897 35.3289 309.124 35.3289 308.177C35.3289 307.216 35.2613 306.439 35.1259 305.846C34.9953 305.253 34.7876 304.824 34.5029 304.558C34.2229 304.287 33.8589 304.152 33.4109 304.152ZM34.8319 304.495L35.1399 305.524L32.0739 311.733L31.6399 310.914L34.8319 304.495ZM41.8055 303.207C42.8461 303.207 43.6325 303.636 44.1645 304.495C44.6965 305.354 44.9625 306.581 44.9625 308.177C44.9625 309.778 44.6965 311.01 44.1645 311.873C43.6325 312.732 42.8461 313.161 41.8055 313.161C40.7695 313.161 39.9831 312.732 39.4465 311.873C38.9145 311.01 38.6485 309.778 38.6485 308.177C38.6485 306.581 38.9145 305.354 39.4465 304.495C39.9831 303.636 40.7695 303.207 41.8055 303.207ZM41.8055 304.152C41.2128 304.152 40.7461 304.467 40.4055 305.097C40.0648 305.722 39.8945 306.749 39.8945 308.177C39.8945 309.138 39.9621 309.915 40.0975 310.508C40.2328 311.101 40.4405 311.532 40.7205 311.803C41.0051 312.074 41.3668 312.209 41.8055 312.209C42.2068 312.209 42.5498 312.071 42.8345 311.796C43.1238 311.521 43.3431 311.087 43.4925 310.494C43.6465 309.897 43.7235 309.124 43.7235 308.177C43.7235 307.216 43.6558 306.439 43.5205 305.846C43.3898 305.253 43.1821 304.824 42.8975 304.558C42.6175 304.287 42.2535 304.152 41.8055 304.152ZM43.2265 304.495L43.5345 305.524L40.4685 311.733L40.0345 310.914L43.2265 304.495Z" fill="black"/>
<path d="M26.0454 244.361V253.72H24.8694V245.635L22.6574 246.979L22.1464 246.139L25.0164 244.361H26.0454ZM28.0614 253.041V254H22.4964V253.041H28.0614ZM36.0289 244.361L35.8539 245.299H32.0459V248.337C32.3399 248.178 32.6176 248.071 32.8789 248.015C33.1449 247.954 33.4226 247.924 33.7119 247.924C34.2346 247.924 34.6943 248.043 35.0909 248.281C35.4876 248.514 35.7956 248.857 36.0149 249.31C36.2343 249.763 36.3439 250.309 36.3439 250.948C36.3439 251.587 36.2086 252.15 35.9379 252.635C35.6719 253.12 35.2963 253.496 34.8109 253.762C34.3256 254.028 33.7493 254.161 33.0819 254.161C32.5033 254.161 31.9853 254.058 31.5279 253.853C31.0753 253.648 30.6623 253.363 30.2889 252.999L31.0169 252.299C31.3109 252.598 31.6259 252.822 31.9619 252.971C32.3026 253.116 32.6806 253.188 33.0959 253.188C33.7306 253.188 34.2253 252.997 34.5799 252.614C34.9346 252.227 35.1119 251.66 35.1119 250.913C35.1119 250.395 35.0349 249.987 34.8809 249.688C34.7269 249.389 34.5169 249.177 34.2509 249.051C33.9896 248.92 33.6979 248.855 33.3759 248.855C33.0913 248.855 32.8393 248.883 32.6199 248.939C32.4006 248.99 32.1509 249.07 31.8709 249.177H30.9259V244.361H36.0289ZM41.8055 244.207C42.8461 244.207 43.6325 244.636 44.1645 245.495C44.6965 246.354 44.9625 247.581 44.9625 249.177C44.9625 250.778 44.6965 252.01 44.1645 252.873C43.6325 253.732 42.8461 254.161 41.8055 254.161C40.7695 254.161 39.9831 253.732 39.4465 252.873C38.9145 252.01 38.6485 250.778 38.6485 249.177C38.6485 247.581 38.9145 246.354 39.4465 245.495C39.9831 244.636 40.7695 244.207 41.8055 244.207ZM41.8055 245.152C41.2128 245.152 40.7461 245.467 40.4055 246.097C40.0648 246.722 39.8945 247.749 39.8945 249.177C39.8945 250.138 39.9621 250.915 40.0975 251.508C40.2328 252.101 40.4405 252.532 40.7205 252.803C41.0051 253.074 41.3668 253.209 41.8055 253.209C42.2068 253.209 42.5498 253.071 42.8345 252.796C43.1238 252.521 43.3431 252.087 43.4925 251.494C43.6465 250.897 43.7235 250.124 43.7235 249.177C43.7235 248.216 43.6558 247.439 43.5205 246.846C43.3898 246.253 43.1821 245.824 42.8975 245.558C42.6175 245.287 42.2535 245.152 41.8055 245.152ZM43.2265 245.495L43.5345 246.524L40.4685 252.733L40.0345 251.914L43.2265 245.495Z" fill="black"/>
<path d="M24.5894 183.207C25.1961 183.207 25.7141 183.324 26.1434 183.557C26.5774 183.79 26.9111 184.11 27.1444 184.516C27.3777 184.922 27.4944 185.382 27.4944 185.895C27.4944 186.338 27.4174 186.772 27.2634 187.197C27.1094 187.617 26.8621 188.06 26.5214 188.527C26.1854 188.989 25.7421 189.502 25.1914 190.067C24.6454 190.632 23.9734 191.276 23.1754 191.999H27.7184L27.5714 193H21.8384V192.041C22.5664 191.346 23.1847 190.737 23.6934 190.214C24.2067 189.691 24.6291 189.234 24.9604 188.842C25.2964 188.445 25.5577 188.086 25.7444 187.764C25.9357 187.442 26.0687 187.136 26.1434 186.847C26.2181 186.553 26.2554 186.25 26.2554 185.937C26.2554 185.396 26.1014 184.969 25.7934 184.656C25.4901 184.343 25.0701 184.187 24.5334 184.187C24.0574 184.187 23.6677 184.269 23.3644 184.432C23.0611 184.595 22.7577 184.857 22.4544 185.216L21.6424 184.586C22.0251 184.119 22.4497 183.774 22.9164 183.55C23.3831 183.321 23.9407 183.207 24.5894 183.207ZM33.4109 183.207C34.4516 183.207 35.2379 183.636 35.7699 184.495C36.3019 185.354 36.5679 186.581 36.5679 188.177C36.5679 189.778 36.3019 191.01 35.7699 191.873C35.2379 192.732 34.4516 193.161 33.4109 193.161C32.3749 193.161 31.5886 192.732 31.0519 191.873C30.5199 191.01 30.2539 189.778 30.2539 188.177C30.2539 186.581 30.5199 185.354 31.0519 184.495C31.5886 183.636 32.3749 183.207 33.4109 183.207ZM33.4109 184.152C32.8183 184.152 32.3516 184.467 32.0109 185.097C31.6703 185.722 31.4999 186.749 31.4999 188.177C31.4999 189.138 31.5676 189.915 31.7029 190.508C31.8383 191.101 32.0459 191.532 32.3259 191.803C32.6106 192.074 32.9723 192.209 33.4109 192.209C33.8123 192.209 34.1553 192.071 34.4399 191.796C34.7293 191.521 34.9486 191.087 35.0979 190.494C35.2519 189.897 35.3289 189.124 35.3289 188.177C35.3289 187.216 35.2613 186.439 35.1259 185.846C34.9953 185.253 34.7876 184.824 34.5029 184.558C34.2229 184.287 33.8589 184.152 33.4109 184.152ZM34.8319 184.495L35.1399 185.524L32.0739 191.733L31.6399 190.914L34.8319 184.495ZM41.8055 183.207C42.8461 183.207 43.6325 183.636 44.1645 184.495C44.6965 185.354 44.9625 186.581 44.9625 188.177C44.9625 189.778 44.6965 191.01 44.1645 191.873C43.6325 192.732 42.8461 193.161 41.8055 193.161C40.7695 193.161 39.9831 192.732 39.4465 191.873C38.9145 191.01 38.6485 189.778 38.6485 188.177C38.6485 186.581 38.9145 185.354 39.4465 184.495C39.9831 183.636 40.7695 183.207 41.8055 183.207ZM41.8055 184.152C41.2128 184.152 40.7461 184.467 40.4055 185.097C40.0648 185.722 39.8945 186.749 39.8945 188.177C39.8945 189.138 39.9621 189.915 40.0975 190.508C40.2328 191.101 40.4405 191.532 40.7205 191.803C41.0051 192.074 41.3668 192.209 41.8055 192.209C42.2068 192.209 42.5498 192.071 42.8345 191.796C43.1238 191.521 43.3431 191.087 43.4925 190.494C43.6465 189.897 43.7235 189.124 43.7235 188.177C43.7235 187.216 43.6558 186.439 43.5205 185.846C43.3898 185.253 43.1821 184.824 42.8975 184.558C42.6175 184.287 42.2535 184.152 41.8055 184.152ZM43.2265 184.495L43.5345 185.524L40.4685 191.733L40.0345 190.914L43.2265 184.495Z" fill="black"/>
<path d="M24.5894 124.207C25.1961 124.207 25.7141 124.324 26.1434 124.557C26.5774 124.79 26.9111 125.11 27.1444 125.516C27.3777 125.922 27.4944 126.382 27.4944 126.895C27.4944 127.338 27.4174 127.772 27.2634 128.197C27.1094 128.617 26.8621 129.06 26.5214 129.527C26.1854 129.989 25.7421 130.502 25.1914 131.067C24.6454 131.632 23.9734 132.276 23.1754 132.999H27.7184L27.5714 134H21.8384V133.041C22.5664 132.346 23.1847 131.737 23.6934 131.214C24.2067 130.691 24.6291 130.234 24.9604 129.842C25.2964 129.445 25.5577 129.086 25.7444 128.764C25.9357 128.442 26.0687 128.136 26.1434 127.847C26.2181 127.553 26.2554 127.25 26.2554 126.937C26.2554 126.396 26.1014 125.969 25.7934 125.656C25.4901 125.343 25.0701 125.187 24.5334 125.187C24.0574 125.187 23.6677 125.269 23.3644 125.432C23.0611 125.595 22.7577 125.857 22.4544 126.216L21.6424 125.586C22.0251 125.119 22.4497 124.774 22.9164 124.55C23.3831 124.321 23.9407 124.207 24.5894 124.207ZM36.0289 124.361L35.8539 125.299H32.0459V128.337C32.3399 128.178 32.6176 128.071 32.8789 128.015C33.1449 127.954 33.4226 127.924 33.7119 127.924C34.2346 127.924 34.6943 128.043 35.0909 128.281C35.4876 128.514 35.7956 128.857 36.0149 129.31C36.2343 129.763 36.3439 130.309 36.3439 130.948C36.3439 131.587 36.2086 132.15 35.9379 132.635C35.6719 133.12 35.2963 133.496 34.8109 133.762C34.3256 134.028 33.7493 134.161 33.0819 134.161C32.5033 134.161 31.9853 134.058 31.5279 133.853C31.0753 133.648 30.6623 133.363 30.2889 132.999L31.0169 132.299C31.3109 132.598 31.6259 132.822 31.9619 132.971C32.3026 133.116 32.6806 133.188 33.0959 133.188C33.7306 133.188 34.2253 132.997 34.5799 132.614C34.9346 132.227 35.1119 131.66 35.1119 130.913C35.1119 130.395 35.0349 129.987 34.8809 129.688C34.7269 129.389 34.5169 129.177 34.2509 129.051C33.9896 128.92 33.6979 128.855 33.3759 128.855C33.0913 128.855 32.8393 128.883 32.6199 128.939C32.4006 128.99 32.1509 129.07 31.8709 129.177H30.9259V124.361H36.0289ZM41.8055 124.207C42.8461 124.207 43.6325 124.636 44.1645 125.495C44.6965 126.354 44.9625 127.581 44.9625 129.177C44.9625 130.778 44.6965 132.01 44.1645 132.873C43.6325 133.732 42.8461 134.161 41.8055 134.161C40.7695 134.161 39.9831 133.732 39.4465 132.873C38.9145 132.01 38.6485 130.778 38.6485 129.177C38.6485 127.581 38.9145 126.354 39.4465 125.495C39.9831 124.636 40.7695 124.207 41.8055 124.207ZM41.8055 125.152C41.2128 125.152 40.7461 125.467 40.4055 126.097C40.0648 126.722 39.8945 127.749 39.8945 129.177C39.8945 130.138 39.9621 130.915 40.0975 131.508C40.2328 132.101 40.4405 132.532 40.7205 132.803C41.0051 133.074 41.3668 133.209 41.8055 133.209C42.2068 133.209 42.5498 133.071 42.8345 132.796C43.1238 132.521 43.3431 132.087 43.4925 131.494C43.6465 130.897 43.7235 130.124 43.7235 129.177C43.7235 128.216 43.6558 127.439 43.5205 126.846C43.3898 126.253 43.1821 125.824 42.8975 125.558C42.6175 125.287 42.2535 125.152 41.8055 125.152ZM43.2265 125.495L43.5345 126.524L40.4685 132.733L40.0345 131.914L43.2265 125.495Z" fill="black"/>
<path d="M24.5754 64.207C25.1821 64.207 25.7047 64.3167 26.1434 64.536C26.5867 64.7507 26.9297 65.0423 27.1724 65.411C27.4151 65.775 27.5364 66.1763 27.5364 66.615C27.5364 67.0023 27.4501 67.3547 27.2774 67.672C27.1047 67.9893 26.8761 68.2507 26.5914 68.456C26.3067 68.6613 25.9941 68.7967 25.6534 68.862C26.0314 68.89 26.3861 68.9973 26.7174 69.184C27.0487 69.366 27.3194 69.6273 27.5294 69.968C27.7394 70.304 27.8444 70.7217 27.8444 71.221C27.8444 71.7763 27.7044 72.278 27.4244 72.726C27.1444 73.1693 26.7524 73.5193 26.2484 73.776C25.7491 74.0327 25.1657 74.161 24.4984 74.161C23.9617 74.161 23.4251 74.0583 22.8884 73.853C22.3564 73.6477 21.9061 73.321 21.5374 72.873L22.3284 72.229C22.6037 72.551 22.9304 72.7913 23.3084 72.95C23.6911 73.1087 24.0784 73.188 24.4704 73.188C25.1424 73.188 25.6674 73.013 26.0454 72.663C26.4234 72.3083 26.6124 71.8277 26.6124 71.221C26.6124 70.7637 26.5237 70.402 26.3464 70.136C26.1737 69.87 25.9381 69.681 25.6394 69.569C25.3407 69.4523 25.0001 69.394 24.6174 69.394H23.8054L23.9524 68.463H24.5194C24.8321 68.463 25.1261 68.4047 25.4014 68.288C25.6814 68.1667 25.9101 67.98 26.0874 67.728C26.2647 67.476 26.3534 67.161 26.3534 66.783C26.3534 66.251 26.1761 65.845 25.8214 65.565C25.4667 65.285 25.0374 65.145 24.5334 65.145C24.1134 65.145 23.7471 65.2197 23.4344 65.369C23.1217 65.5137 22.8067 65.7353 22.4894 66.034L21.8384 65.313C22.2491 64.9257 22.6854 64.6457 23.1474 64.473C23.6094 64.2957 24.0854 64.207 24.5754 64.207ZM33.4109 64.207C34.4516 64.207 35.2379 64.6363 35.7699 65.495C36.3019 66.3537 36.5679 67.581 36.5679 69.177C36.5679 70.7777 36.3019 72.0097 35.7699 72.873C35.2379 73.7317 34.4516 74.161 33.4109 74.161C32.3749 74.161 31.5886 73.7317 31.0519 72.873C30.5199 72.0097 30.2539 70.7777 30.2539 69.177C30.2539 67.581 30.5199 66.3537 31.0519 65.495C31.5886 64.6363 32.3749 64.207 33.4109 64.207ZM33.4109 65.152C32.8183 65.152 32.3516 65.467 32.0109 66.097C31.6703 66.7223 31.4999 67.749 31.4999 69.177C31.4999 70.1383 31.5676 70.9153 31.7029 71.508C31.8383 72.1007 32.0459 72.5323 32.3259 72.803C32.6106 73.0737 32.9723 73.209 33.4109 73.209C33.8123 73.209 34.1553 73.0713 34.4399 72.796C34.7293 72.5207 34.9486 72.0867 35.0979 71.494C35.2519 70.8967 35.3289 70.1243 35.3289 69.177C35.3289 68.2157 35.2613 67.4387 35.1259 66.846C34.9953 66.2533 34.7876 65.824 34.5029 65.558C34.2229 65.2873 33.8589 65.152 33.4109 65.152ZM34.8319 65.495L35.1399 66.524L32.0739 72.733L31.6399 71.914L34.8319 65.495ZM41.8055 64.207C42.8461 64.207 43.6325 64.6363 44.1645 65.495C44.6965 66.3537 44.9625 67.581 44.9625 69.177C44.9625 70.7777 44.6965 72.0097 44.1645 72.873C43.6325 73.7317 42.8461 74.161 41.8055 74.161C40.7695 74.161 39.9831 73.7317 39.4465 72.873C38.9145 72.0097 38.6485 70.7777 38.6485 69.177C38.6485 67.581 38.9145 66.3537 39.4465 65.495C39.9831 64.6363 40.7695 64.207 41.8055 64.207ZM41.8055 65.152C41.2128 65.152 40.7461 65.467 40.4055 66.097C40.0648 66.7223 39.8945 67.749 39.8945 69.177C39.8945 70.1383 39.9621 70.9153 40.0975 71.508C40.2328 72.1007 40.4405 72.5323 40.7205 72.803C41.0051 73.0737 41.3668 73.209 41.8055 73.209C42.2068 73.209 42.5498 73.0713 42.8345 72.796C43.1238 72.5207 43.3431 72.0867 43.4925 71.494C43.6465 70.8967 43.7235 70.1243 43.7235 69.177C43.7235 68.2157 43.6558 67.4387 43.5205 66.846C43.3898 66.2533 43.1821 65.824 42.8975 65.558C42.6175 65.2873 42.2535 65.152 41.8055 65.152ZM43.2265 65.495L43.5345 66.524L40.4685 72.733L40.0345 71.914L43.2265 65.495Z" fill="black"/>
<path d="M24.6524 4.207L25.6324 4.62L23.0704 10.717H28.2154V11.655H21.8244V10.801L24.6524 4.207ZM26.9694 7.98V14H25.8354L25.8284 10.941L25.9894 7.98H26.9694ZM33.4109 4.207C34.4516 4.207 35.2379 4.63633 35.7699 5.495C36.3019 6.35367 36.5679 7.581 36.5679 9.177C36.5679 10.7777 36.3019 12.0097 35.7699 12.873C35.2379 13.7317 34.4516 14.161 33.4109 14.161C32.3749 14.161 31.5886 13.7317 31.0519 12.873C30.5199 12.0097 30.2539 10.7777 30.2539 9.177C30.2539 7.581 30.5199 6.35367 31.0519 5.495C31.5886 4.63633 32.3749 4.207 33.4109 4.207ZM33.4109 5.152C32.8183 5.152 32.3516 5.467 32.0109 6.097C31.6703 6.72233 31.4999 7.749 31.4999 9.177C31.4999 10.1383 31.5676 10.9153 31.7029 11.508C31.8383 12.1007 32.0459 12.5323 32.3259 12.803C32.6106 13.0737 32.9723 13.209 33.4109 13.209C33.8123 13.209 34.1553 13.0713 34.4399 12.796C34.7293 12.5207 34.9486 12.0867 35.0979 11.494C35.2519 10.8967 35.3289 10.1243 35.3289 9.177C35.3289 8.21567 35.2613 7.43867 35.1259 6.846C34.9953 6.25333 34.7876 5.824 34.5029 5.558C34.2229 5.28733 33.8589 5.152 33.4109 5.152ZM34.8319 5.495L35.1399 6.524L32.0739 12.733L31.6399 11.914L34.8319 5.495ZM41.8055 4.207C42.8461 4.207 43.6325 4.63633 44.1645 5.495C44.6965 6.35367 44.9625 7.581 44.9625 9.177C44.9625 10.7777 44.6965 12.0097 44.1645 12.873C43.6325 13.7317 42.8461 14.161 41.8055 14.161C40.7695 14.161 39.9831 13.7317 39.4465 12.873C38.9145 12.0097 38.6485 10.7777 38.6485 9.177C38.6485 7.581 38.9145 6.35367 39.4465 5.495C39.9831 4.63633 40.7695 4.207 41.8055 4.207ZM41.8055 5.152C41.2128 5.152 40.7461 5.467 40.4055 6.097C40.0648 6.72233 39.8945 7.749 39.8945 9.177C39.8945 10.1383 39.9621 10.9153 40.0975 11.508C40.2328 12.1007 40.4405 12.5323 40.7205 12.803C41.0051 13.0737 41.3668 13.209 41.8055 13.209C42.2068 13.209 42.5498 13.0713 42.8345 12.796C43.1238 12.5207 43.3431 12.0867 43.4925 11.494C43.6465 10.8967 43.7235 10.1243 43.7235 9.177C43.7235 8.21567 43.6558 7.43867 43.5205 6.846C43.3898 6.25333 43.1821 5.824 42.8975 5.558C42.6175 5.28733 42.2535 5.152 41.8055 5.152ZM43.2265 5.495L43.5345 6.524L40.4685 12.733L40.0345 11.914L43.2265 5.495Z" fill="black"/>
</svg>
